<svg xmlns="http://www.w3.org/2000/svg" width="508" height="45.75" viewBox="0 0 487.706 45.75"><path d="M22.313-7.031H9.984L7.641,0H.164l12.7-34.125h6.516L32.156,0H24.68Zm-10.43-5.7h8.531L16.125-25.5Zm45.867.281q0,6.094-2.6,9.5A8.617,8.617,0,0,1,47.883.469,7.918,7.918,0,0,1,41.3-2.7l-.3,2.7H34.9V-36h6.773v12.914a7.714,7.714,0,0,1,6.164-2.742,8.689,8.689,0,0,1,7.277,3.41q2.637,3.41,2.637,9.6Zm-6.773-.492q0-3.844-1.219-5.613a4.121,4.121,0,0,0-3.633-1.77,4.468,4.468,0,0,0-4.453,2.648V-7.664a4.528,4.528,0,0,0,4.5,2.672,4.182,4.182,0,0,0,4.313-3.234A16.685,16.685,0,0,0,50.977-12.937Zm9.891.023a15.04,15.04,0,0,1,1.453-6.727,10.638,10.638,0,0,1,4.184-4.57,12.206,12.206,0,0,1,6.34-1.617,11.548,11.548,0,0,1,8.379,3.141,12.6,12.6,0,0,1,3.621,8.531l.047,1.734a13.255,13.255,0,0,1-3.258,9.363A11.324,11.324,0,0,1,72.891.469a11.38,11.38,0,0,1-8.754-3.516q-3.27-3.516-3.27-9.562Zm6.773.492A9.454,9.454,0,0,0,69-6.9a4.487,4.487,0,0,0,3.891,1.91,4.5,4.5,0,0,0,3.844-1.887q1.383-1.887,1.383-6.035A9.359,9.359,0,0,0,76.734-18.4a4.5,4.5,0,0,0-3.891-1.945A4.424,4.424,0,0,0,69-18.41Q67.641-16.477,67.641-12.422ZM104.25-2.578A8.494,8.494,0,0,1,97.313.469,8.011,8.011,0,0,1,91.09-1.875Q88.945-4.219,88.9-8.742V-25.359h6.773V-8.977q0,3.961,3.609,3.961,3.445,0,4.734-2.391V-25.359h6.8V0h-6.375Zm19.781-29.016v6.234h4.336v4.969h-4.336V-7.734a3.022,3.022,0,0,0,.539,2.016,2.707,2.707,0,0,0,2.063.609,10.8,10.8,0,0,0,1.992-.164V-.141a13.944,13.944,0,0,1-4.1.609q-7.125,0-7.266-7.2V-20.391h-3.7v-4.969h3.7v-6.234Zm28.172,0v6.234h4.336v4.969H152.2V-7.734a3.022,3.022,0,0,0,.539,2.016,2.707,2.707,0,0,0,2.063.609,10.8,10.8,0,0,0,1.992-.164V-.141a13.944,13.944,0,0,1-4.1.609q-7.125,0-7.266-7.2V-20.391h-3.7v-4.969h3.7v-6.234Zm14.719,9a8.454,8.454,0,0,1,6.773-3.234q8.25,0,8.367,9.586V0h-6.773V-16.055a4.711,4.711,0,0,0-.937-3.223,4.019,4.019,0,0,0-3.117-1.043,4.61,4.61,0,0,0-4.312,2.3V0h-6.773V-36h6.773ZM198.844.469a12.449,12.449,0,0,1-9.082-3.422,12.163,12.163,0,0,1-3.5-9.117v-.656a15.319,15.319,0,0,1,1.477-6.832,10.836,10.836,0,0,1,4.184-4.641,11.742,11.742,0,0,1,6.176-1.629,10.525,10.525,0,0,1,8.191,3.281q2.988,3.281,2.988,9.3v2.766H193.125a6.292,6.292,0,0,0,1.98,3.984,5.987,5.987,0,0,0,4.184,1.5,7.311,7.311,0,0,0,6.117-2.836L208.734-4.1a10.168,10.168,0,0,1-4.125,3.363A13.534,13.534,0,0,1,198.844.469Zm-.773-20.812a4.242,4.242,0,0,0-3.27,1.359,7.023,7.023,0,0,0-1.605,3.891h9.422v-.539a5.007,5.007,0,0,0-1.219-3.48A4.378,4.378,0,0,0,198.07-20.344Zm25.945,7.477q0-5.93,2.66-9.445a8.631,8.631,0,0,1,7.277-3.516,7.767,7.767,0,0,1,6.117,2.766V-36h6.8V0H240.75l-.328-2.7A7.971,7.971,0,0,1,233.906.469a8.608,8.608,0,0,1-7.184-3.527Q224.016-6.586,224.016-12.867Zm6.773.492a9.983,9.983,0,0,0,1.242,5.461,4.048,4.048,0,0,0,3.609,1.9,4.533,4.533,0,0,0,4.43-2.648V-17.672a4.468,4.468,0,0,0-4.383-2.648Q230.789-20.32,230.789-12.375Zm33,12.844a12.449,12.449,0,0,1-9.082-3.422,12.163,12.163,0,0,1-3.5-9.117v-.656a15.319,15.319,0,0,1,1.477-6.832,10.836,10.836,0,0,1,4.184-4.641,11.742,11.742,0,0,1,6.176-1.629,10.525,10.525,0,0,1,8.191,3.281q2.988,3.281,2.988,9.3v2.766H258.07a6.292,6.292,0,0,0,1.98,3.984,5.987,5.987,0,0,0,4.184,1.5,7.311,7.311,0,0,0,6.117-2.836L273.68-4.1a10.168,10.168,0,0,1-4.125,3.363A13.534,13.534,0,0,1,263.789.469Zm-.773-20.812a4.242,4.242,0,0,0-3.27,1.359,7.023,7.023,0,0,0-1.605,3.891h9.422v-.539a5.007,5.007,0,0,0-1.219-3.48A4.378,4.378,0,0,0,263.016-20.344ZM287.25-8.273l4.711-17.086h7.078L290.484,0h-6.469l-8.555-25.359h7.078ZM313.383.469A12.449,12.449,0,0,1,304.3-2.953a12.163,12.163,0,0,1-3.5-9.117v-.656a15.319,15.319,0,0,1,1.477-6.832,10.836,10.836,0,0,1,4.184-4.641,11.742,11.742,0,0,1,6.176-1.629,10.525,10.525,0,0,1,8.191,3.281q2.988,3.281,2.988,9.3v2.766H307.664a6.292,6.292,0,0,0,1.98,3.984,5.987,5.987,0,0,0,4.184,1.5,7.311,7.311,0,0,0,6.117-2.836L323.273-4.1a10.168,10.168,0,0,1-4.125,3.363A13.534,13.534,0,0,1,313.383.469Zm-.773-20.812a4.242,4.242,0,0,0-3.27,1.359,7.023,7.023,0,0,0-1.605,3.891h9.422v-.539a5.007,5.007,0,0,0-1.219-3.48A4.378,4.378,0,0,0,312.609-20.344ZM334.8,0h-6.8V-36h6.8Zm4.523-12.914a15.04,15.04,0,0,1,1.453-6.727,10.638,10.638,0,0,1,4.184-4.57,12.206,12.206,0,0,1,6.34-1.617,11.548,11.548,0,0,1,8.379,3.141,12.6,12.6,0,0,1,3.621,8.531l.047,1.734a13.255,13.255,0,0,1-3.258,9.363A11.324,11.324,0,0,1,351.352.469,11.38,11.38,0,0,1,342.6-3.047q-3.27-3.516-3.27-9.562Zm6.773.492a9.454,9.454,0,0,0,1.359,5.52,4.487,4.487,0,0,0,3.891,1.91A4.5,4.5,0,0,0,355.2-6.879q1.383-1.887,1.383-6.035A9.359,9.359,0,0,0,355.2-18.4a4.5,4.5,0,0,0-3.891-1.945,4.424,4.424,0,0,0-3.844,1.934Q346.1-16.477,346.1-12.422Zm44.25-.023q0,5.859-2.66,9.387A8.529,8.529,0,0,1,380.508.469,7.9,7.9,0,0,1,374.3-2.2V9.75h-6.773V-25.359H373.8l.234,2.484a7.961,7.961,0,0,1,6.422-2.953,8.587,8.587,0,0,1,7.289,3.469q2.6,3.469,2.6,9.563Zm-6.773-.492a9.98,9.98,0,0,0-1.254-5.461,4.084,4.084,0,0,0-3.645-1.922,4.435,4.435,0,0,0-4.383,2.438V-7.5a4.511,4.511,0,0,0,4.43,2.508Q383.578-4.992,383.578-12.937ZM406.219.469a12.449,12.449,0,0,1-9.082-3.422,12.163,12.163,0,0,1-3.5-9.117v-.656a15.319,15.319,0,0,1,1.477-6.832,10.836,10.836,0,0,1,4.184-4.641,11.742,11.742,0,0,1,6.176-1.629,10.525,10.525,0,0,1,8.191,3.281q2.988,3.281,2.988,9.3v2.766H400.5a6.292,6.292,0,0,0,1.98,3.984,5.987,5.987,0,0,0,4.184,1.5,7.311,7.311,0,0,0,6.117-2.836L416.109-4.1a10.168,10.168,0,0,1-4.125,3.363A13.534,13.534,0,0,1,406.219.469Zm-.773-20.812a4.242,4.242,0,0,0-3.27,1.359,7.023,7.023,0,0,0-1.605,3.891h9.422v-.539a5.007,5.007,0,0,0-1.219-3.48A4.378,4.378,0,0,0,405.445-20.344Zm29.3,1.336A18.4,18.4,0,0,0,432.3-19.2q-3.844,0-5.039,2.6V0h-6.773V-25.359h6.4l.188,3.023a6.276,6.276,0,0,1,5.648-3.492,7.1,7.1,0,0,1,2.109.3Zm16.992,12a2.182,2.182,0,0,0-1.23-1.957,13.977,13.977,0,0,0-3.949-1.277q-9.047-1.9-9.047-7.687a6.968,6.968,0,0,1,2.8-5.637,11.3,11.3,0,0,1,7.324-2.262,12.16,12.16,0,0,1,7.723,2.273,7.165,7.165,0,0,1,2.895,5.906h-6.773a3.277,3.277,0,0,0-.937-2.4,3.967,3.967,0,0,0-2.93-.949,4.054,4.054,0,0,0-2.648.773,2.442,2.442,0,0,0-.937,1.969,2.087,2.087,0,0,0,1.066,1.816,10.97,10.97,0,0,0,3.6,1.2,29.385,29.385,0,0,1,4.266,1.137q5.367,1.969,5.367,6.82a6.615,6.615,0,0,1-2.977,5.613A12.84,12.84,0,0,1,447.656.469,13.411,13.411,0,0,1,442-.668a9.5,9.5,0,0,1-3.879-3.117,7.243,7.243,0,0,1-1.406-4.277h6.422A3.536,3.536,0,0,0,444.469-5.3a5.3,5.3,0,0,0,3.328.961,4.9,4.9,0,0,0,2.941-.738A2.3,2.3,0,0,0,451.734-7.008Zm32.344-14.064a3.516,3.516,0,0,0-2.688,1.1,3.654,3.654,0,0,0-1.056,2.688,3.731,3.731,0,0,0,1.056,2.688,3.854,3.854,0,0,0,2.688,1.056,3.941,3.941,0,0,0,2.688-1.056,3.775,3.775,0,0,0,1.1-2.688,3.7,3.7,0,0,0-1.1-2.688A3.587,3.587,0,0,0,484.078-21.072Z" transform="translate(-0.164 36)" fill="#333"/></svg>