<svg xmlns="http://www.w3.org/2000/svg" width="390" height="36.469" viewBox="0 0 369.534 36.469"><path d="M22.313-7.031H9.984L7.641,0H.164l12.7-34.125h6.516L32.156,0H24.68Zm-10.43-5.7h8.531L16.125-25.5Zm45.867.281q0,6.094-2.6,9.5A8.617,8.617,0,0,1,47.883.469,7.918,7.918,0,0,1,41.3-2.7l-.3,2.7H34.9V-36h6.773v12.914a7.714,7.714,0,0,1,6.164-2.742,8.689,8.689,0,0,1,7.277,3.41q2.637,3.41,2.637,9.6Zm-6.773-.492q0-3.844-1.219-5.613a4.121,4.121,0,0,0-3.633-1.77,4.468,4.468,0,0,0-4.453,2.648V-7.664a4.528,4.528,0,0,0,4.5,2.672,4.182,4.182,0,0,0,4.313-3.234A16.685,16.685,0,0,0,50.977-12.937Zm9.891.023a15.04,15.04,0,0,1,1.453-6.727,10.638,10.638,0,0,1,4.184-4.57,12.206,12.206,0,0,1,6.34-1.617,11.548,11.548,0,0,1,8.379,3.141,12.6,12.6,0,0,1,3.621,8.531l.047,1.734a13.255,13.255,0,0,1-3.258,9.363A11.324,11.324,0,0,1,72.891.469a11.38,11.38,0,0,1-8.754-3.516q-3.27-3.516-3.27-9.562Zm6.773.492A9.454,9.454,0,0,0,69-6.9a4.487,4.487,0,0,0,3.891,1.91,4.5,4.5,0,0,0,3.844-1.887q1.383-1.887,1.383-6.035A9.359,9.359,0,0,0,76.734-18.4a4.5,4.5,0,0,0-3.891-1.945A4.424,4.424,0,0,0,69-18.41Q67.641-16.477,67.641-12.422ZM104.25-2.578A8.494,8.494,0,0,1,97.313.469,8.011,8.011,0,0,1,91.09-1.875Q88.945-4.219,88.9-8.742V-25.359h6.773V-8.977q0,3.961,3.609,3.961,3.445,0,4.734-2.391V-25.359h6.8V0h-6.375Zm19.781-29.016v6.234h4.336v4.969h-4.336V-7.734a3.022,3.022,0,0,0,.539,2.016,2.707,2.707,0,0,0,2.063.609,10.8,10.8,0,0,0,1.992-.164V-.141a13.944,13.944,0,0,1-4.1.609q-7.125,0-7.266-7.2V-20.391h-3.7v-4.969h3.7v-6.234Zm28.172,0v6.234h4.336v4.969H152.2V-7.734a3.022,3.022,0,0,0,.539,2.016,2.707,2.707,0,0,0,2.063.609,10.8,10.8,0,0,0,1.992-.164V-.141a13.944,13.944,0,0,1-4.1.609q-7.125,0-7.266-7.2V-20.391h-3.7v-4.969h3.7v-6.234Zm14.719,9a8.454,8.454,0,0,1,6.773-3.234q8.25,0,8.367,9.586V0h-6.773V-16.055a4.711,4.711,0,0,0-.937-3.223,4.019,4.019,0,0,0-3.117-1.043,4.61,4.61,0,0,0-4.312,2.3V0h-6.773V-36h6.773ZM198.844.469a12.449,12.449,0,0,1-9.082-3.422,12.163,12.163,0,0,1-3.5-9.117v-.656a15.319,15.319,0,0,1,1.477-6.832,10.836,10.836,0,0,1,4.184-4.641,11.742,11.742,0,0,1,6.176-1.629,10.525,10.525,0,0,1,8.191,3.281q2.988,3.281,2.988,9.3v2.766H193.125a6.292,6.292,0,0,0,1.98,3.984,5.987,5.987,0,0,0,4.184,1.5,7.311,7.311,0,0,0,6.117-2.836L208.734-4.1a10.168,10.168,0,0,1-4.125,3.363A13.534,13.534,0,0,1,198.844.469Zm-.773-20.812a4.242,4.242,0,0,0-3.27,1.359,7.023,7.023,0,0,0-1.605,3.891h9.422v-.539a5.007,5.007,0,0,0-1.219-3.48A4.378,4.378,0,0,0,198.07-20.344ZM249.8-28.43H239.344V0h-7.031V-28.43H222v-5.7h27.8ZM262.945.469a12.449,12.449,0,0,1-9.082-3.422,12.163,12.163,0,0,1-3.5-9.117v-.656a15.319,15.319,0,0,1,1.477-6.832A10.836,10.836,0,0,1,256.02-24.2a11.742,11.742,0,0,1,6.176-1.629,10.525,10.525,0,0,1,8.191,3.281q2.988,3.281,2.988,9.3v2.766H257.227a6.292,6.292,0,0,0,1.98,3.984,5.987,5.987,0,0,0,4.184,1.5,7.311,7.311,0,0,0,6.117-2.836L272.836-4.1a10.168,10.168,0,0,1-4.125,3.363A13.534,13.534,0,0,1,262.945.469Zm-.773-20.812a4.242,4.242,0,0,0-3.27,1.359,7.023,7.023,0,0,0-1.605,3.891h9.422v-.539a5.007,5.007,0,0,0-1.219-3.48A4.378,4.378,0,0,0,262.172-20.344ZM291.914,0a7.522,7.522,0,0,1-.68-2.273,8.2,8.2,0,0,1-6.4,2.742,9,9,0,0,1-6.176-2.156,6.935,6.935,0,0,1-2.449-5.437,7.166,7.166,0,0,1,2.988-6.187q2.988-2.156,8.637-2.18h3.117v-1.453a4.179,4.179,0,0,0-.9-2.812,3.55,3.55,0,0,0-2.848-1.055,4.036,4.036,0,0,0-2.684.82,2.787,2.787,0,0,0-.973,2.25h-6.773a6.8,6.8,0,0,1,1.359-4.078,8.986,8.986,0,0,1,3.844-2.941,14.008,14.008,0,0,1,5.578-1.066A11.067,11.067,0,0,1,295-23.473a8.24,8.24,0,0,1,2.754,6.621V-5.859A12.124,12.124,0,0,0,298.758-.4V0Zm-5.6-4.711a5.834,5.834,0,0,0,2.766-.668,4.387,4.387,0,0,0,1.875-1.793v-4.359h-2.531q-5.086,0-5.414,3.516l-.023.4a2.712,2.712,0,0,0,.891,2.086A3.46,3.46,0,0,0,286.313-4.711ZM309.3-25.359l.211,2.836a8.912,8.912,0,0,1,7.289-3.3q4.9,0,6.727,3.867a8.707,8.707,0,0,1,7.617-3.867q4.125,0,6.141,2.4T339.3-16.2V0h-6.8V-16.172a4.829,4.829,0,0,0-.844-3.152,3.739,3.739,0,0,0-2.977-1,4.228,4.228,0,0,0-4.219,2.906L324.492,0h-6.773V-16.148a4.77,4.77,0,0,0-.867-3.187,3.776,3.776,0,0,0-2.953-.984,4.39,4.39,0,0,0-4.172,2.391V0h-6.773V-25.359Zm56.6,4.287a3.516,3.516,0,0,0-2.688,1.1,3.654,3.654,0,0,0-1.056,2.688,3.731,3.731,0,0,0,1.056,2.688,3.854,3.854,0,0,0,2.688,1.056,3.941,3.941,0,0,0,2.688-1.056,3.775,3.775,0,0,0,1.1-2.688,3.7,3.7,0,0,0-1.1-2.688A3.587,3.587,0,0,0,365.906-21.072Z" transform="translate(-0.164 36)" fill="#333"/></svg>