<svg width="200" height="200" viewBox="0 0 200 200" fill="none" xmlns="http://www.w3.org/2000/svg">
<path d="M59.0589 67.8579H43.3647V83.5088H59.0589V67.8579Z" fill="#F7F7F7" stroke="#333333" stroke-width="4" stroke-linejoin="round"/>
<path d="M125.247 63.7751H116.376V72.6213H125.247V63.7751Z" fill="#F7F7F7" stroke="#333333" stroke-width="4" stroke-linejoin="round"/>
<path d="M116.376 43.3608H107.506V52.207H116.376V43.3608Z" fill="#F7F7F7" stroke="#333333" stroke-width="4" stroke-linejoin="round"/>
<path d="M122.518 103.243H106.823V118.894H122.518V103.243Z" fill="#F7F7F7" stroke="#333333" stroke-width="4" stroke-linejoin="round"/>
<path d="M96.5882 117.532H87.7177V126.379H96.5882V117.532Z" fill="#F7F7F7" stroke="#333333" stroke-width="4" stroke-linejoin="round"/>
<path d="M130.706 139.988H115.012V155.639H130.706V139.988Z" fill="#F7F7F7" stroke="#333333" stroke-width="4" stroke-linejoin="round"/>
<path d="M100.682 73.3018H84.9883V88.9526H100.682V73.3018Z" fill="#F7F7F7" stroke="#333333" stroke-width="4" stroke-linejoin="round"/>
<path d="M156.635 60.3728H140.941V76.0237H156.635V60.3728Z" fill="#F7F7F7" stroke="#333333" stroke-width="4" stroke-linejoin="round"/>
<path d="M153.223 105.965H144.353V114.811H153.223V105.965Z" fill="#F7F7F7" stroke="#333333" stroke-width="4" stroke-linejoin="round"/>
<path d="M71.3412 112.089H55.6471V127.74H71.3412V112.089Z" fill="#F7F7F7" stroke="#333333" stroke-width="4" stroke-linejoin="round"/>
<path d="M107.506 48.1243L59.0588 75.3228" stroke="#333333" stroke-width="4" stroke-linejoin="round"/>
<path d="M55.6471 84.1895L63.4942 111.735" stroke="#333333" stroke-width="4" stroke-linejoin="round"/>
<path d="M84.9882 81.1271L59.5706 79.4055" stroke="#333333" stroke-width="4" stroke-linejoin="round"/>
<path d="M114.671 103.243L100.682 88.9526" stroke="#333333" stroke-width="4" stroke-linejoin="round"/>
<path d="M140.941 60.3729L116.376 46.7634" stroke="#333333" stroke-width="4" stroke-linejoin="round"/>
<path d="M148.788 75.6833L122.518 112.089" stroke="#333333" stroke-width="4" stroke-linejoin="round"/>
<path d="M150.835 75.6833L148.447 105.964" stroke="#333333" stroke-width="4" stroke-linejoin="round"/>
<path d="M150.153 114.47L130.706 139.988" stroke="#333333" stroke-width="4" stroke-linejoin="round"/>
<path d="M101.024 82.4883L144.353 105.965" stroke="#333333" stroke-width="4" stroke-linejoin="round"/>
<path d="M71.3412 127.74L115.012 146.793" stroke="#333333" stroke-width="4" stroke-linejoin="round"/>
<path d="M110.235 51.5266L100.682 73.3018" stroke="#333333" stroke-width="4" stroke-linejoin="round"/>
<path d="M116.376 71.2739L100 80.1065" stroke="#333333" stroke-width="4" stroke-linejoin="round"/>
<path d="M142.306 70.1104L125.247 68.8992" stroke="#333333" stroke-width="4" stroke-linejoin="round"/>
<path d="M84.6471 88.5989L71.3412 112.089" stroke="#333333" stroke-width="4" stroke-linejoin="round"/>
<path d="M92.8353 89.2793L91.1294 118.893" stroke="#333333" stroke-width="4" stroke-linejoin="round"/>
<path d="M96.5883 126.379L115.012 142.71" stroke="#333333" stroke-width="4" stroke-linejoin="round"/>
<path d="M71.3412 119.574L87.7177 123.657" stroke="#333333" stroke-width="4" stroke-linejoin="round"/>
<path d="M96.5883 121.615L106.141 112.722" stroke="#333333" stroke-width="4" stroke-linejoin="round"/>
<path d="M117.762 118.894L122.518 139.988" stroke="#333333" stroke-width="4" stroke-linejoin="round"/>
</svg>
