<svg width="32" height="25" viewBox="0 0 32 25" fill="none" xmlns="http://www.w3.org/2000/svg">
<path d="M27.0894 2.98914C25.0494 2.06914 22.8627 1.38914 20.576 1.00247C20.5557 0.998559 20.5346 1.00108 20.5157 1.00968C20.4968 1.01828 20.4811 1.03253 20.4707 1.05047C20.1907 1.54247 19.8787 2.1838 19.66 2.69047C17.2348 2.32812 14.7692 2.32812 12.344 2.69047C12.1005 2.12895 11.8258 1.58143 11.5214 1.05047C11.511 1.03231 11.4954 1.01774 11.4766 1.00868C11.4578 0.999629 11.4367 0.996531 11.416 0.999802C9.1307 1.38647 6.94403 2.06647 4.9027 2.9878C4.88514 2.99517 4.87025 3.00773 4.86003 3.0238C0.710697 9.1238 -0.426636 15.0731 0.13203 20.9478C0.133585 20.9622 0.138051 20.9761 0.145157 20.9887C0.152263 21.0013 0.16186 21.0124 0.173364 21.0211C2.59522 22.7844 5.29648 24.1276 8.16403 24.9945C8.18402 25.0006 8.2054 25.0006 8.22538 24.9944C8.24536 24.9882 8.26301 24.9762 8.27603 24.9598C8.89309 24.1346 9.43989 23.2591 9.9107 22.3425C9.91723 22.3299 9.921 22.3161 9.92174 22.302C9.92248 22.2879 9.92019 22.2738 9.915 22.2607C9.90982 22.2475 9.90187 22.2356 9.8917 22.2258C9.88152 22.216 9.86936 22.2085 9.85603 22.2038C8.9947 21.8794 8.16014 21.488 7.36003 21.0331C7.34565 21.0249 7.33354 21.0133 7.32477 20.9992C7.31601 20.9852 7.31087 20.9692 7.30981 20.9527C7.30875 20.9362 7.31181 20.9196 7.31872 20.9046C7.32562 20.8895 7.33615 20.8764 7.34936 20.8665C7.51736 20.7425 7.68536 20.6131 7.84536 20.4838C7.85977 20.4722 7.87711 20.4648 7.89548 20.4624C7.91384 20.4601 7.93249 20.4628 7.94936 20.4705C13.1854 22.8225 18.856 22.8225 24.0307 20.4705C24.0476 20.4624 24.0665 20.4592 24.0851 20.4614C24.1037 20.4635 24.1214 20.4708 24.136 20.4825C24.296 20.6131 24.4627 20.7425 24.632 20.8665C24.6454 20.8762 24.6561 20.8892 24.6632 20.9041C24.6703 20.919 24.6736 20.9354 24.6728 20.952C24.6721 20.9685 24.6672 20.9845 24.6587 20.9987C24.6501 21.0129 24.6382 21.0247 24.624 21.0331C23.8267 21.4918 22.9974 21.8798 22.1267 22.2025C22.1133 22.2073 22.1011 22.215 22.091 22.2249C22.0808 22.2348 22.0728 22.2468 22.0677 22.2601C22.0625 22.2733 22.0602 22.2875 22.061 22.3017C22.0617 22.316 22.0655 22.3298 22.072 22.3425C22.552 23.2585 23.1014 24.1305 23.7054 24.9585C23.7179 24.9755 23.7354 24.9882 23.7555 24.9948C23.7755 25.0015 23.7971 25.0019 23.8174 24.9958C26.6898 24.1313 29.3955 22.7875 31.82 21.0211C31.8319 21.0129 31.8418 21.0022 31.8491 20.9897C31.8565 20.9773 31.8611 20.9635 31.8627 20.9491C32.5294 14.1571 30.7454 8.2558 27.1307 3.02647C27.1218 3.00947 27.1072 2.99623 27.0894 2.98914ZM10.6934 17.3705C9.11736 17.3705 7.81736 15.9451 7.81736 14.1971C7.81736 12.4478 9.09203 11.0238 10.6934 11.0238C12.3067 11.0238 13.5947 12.4598 13.5694 14.1971C13.5694 15.9465 12.2947 17.3705 10.6934 17.3705ZM21.3267 17.3705C19.7494 17.3705 18.4507 15.9451 18.4507 14.1971C18.4507 12.4478 19.724 11.0238 21.3267 11.0238C22.94 11.0238 24.228 12.4598 24.2027 14.1971C24.2027 15.9465 22.9414 17.3705 21.3267 17.3705Z" fill="white"/>
</svg>
