<svg width="31" height="26" viewBox="0 0 31 26" fill="none" xmlns="http://www.w3.org/2000/svg">
<path d="M30.5241 3.58244C29.4107 4.07578 28.2147 4.40911 26.9574 4.55978C28.2547 3.7835 29.2253 2.56173 29.6881 1.12244C28.4692 1.84643 27.1352 2.35604 25.7441 2.62911C24.8086 1.63026 23.5695 0.968212 22.2192 0.745742C20.8688 0.523273 19.4829 0.752832 18.2764 1.39878C17.0699 2.04473 16.1104 3.07093 15.5469 4.31805C14.9834 5.56517 14.8474 6.96344 15.1601 8.29578C12.6903 8.17177 10.2742 7.52984 8.06862 6.41165C5.86302 5.29346 3.91718 3.72399 2.35739 1.80511C1.82406 2.72511 1.51739 3.79178 1.51739 4.92778C1.51679 5.95044 1.76863 6.95743 2.25056 7.85942C2.73249 8.76141 3.4296 9.53049 4.28006 10.0984C3.29376 10.0671 2.32922 9.80056 1.46672 9.32111V9.40111C1.46662 10.8354 1.96277 12.2256 2.87097 13.3358C3.77917 14.4459 5.04348 15.2077 6.44939 15.4918C5.53443 15.7394 4.57517 15.7759 3.64406 15.5984C4.04072 16.8326 4.81338 17.9118 5.85388 18.685C6.89437 19.4582 8.15061 19.8867 9.44672 19.9104C7.2465 21.6377 4.52924 22.5746 1.73206 22.5704C1.23656 22.5706 0.741491 22.5416 0.24939 22.4838C3.08869 24.3093 6.39384 25.2782 9.76939 25.2744C21.1961 25.2744 27.4427 15.8104 27.4427 7.60244C27.4427 7.33578 27.4361 7.06644 27.4241 6.79978C28.6391 5.92108 29.6879 4.83297 30.5214 3.58644L30.5241 3.58244Z" fill="white"/>
</svg>
