<svg width="369" height="350" viewBox="0 0 369 350" fill="none" xmlns="http://www.w3.org/2000/svg">
<g clip-path="url(#clip0_2_1524)">
<path d="M6.69222 10.4239H369V273.017C369 273.017 303.625 299.476 260.208 256.044C216.791 212.611 249.229 184.654 187.846 145.215C124.527 104.533 83.1112 149.618 38.6312 117.258C-21.7534 73.3265 6.69222 10.4239 6.69222 10.4239Z" fill="#333333"/>
<path d="M232.192 64.3402C232.192 64.3402 231.872 73.3263 225.774 73.3263C225.774 73.3263 232.192 74.2898 232.192 83.9149C232.192 83.9149 231.872 73.6458 239.248 73.6458C239.248 73.6458 232.192 73.3263 232.192 64.3402Z" fill="#F7F7F7"/>
<path d="M261.028 173.207C261.028 173.207 260.708 182.193 254.61 182.193C254.61 182.193 261.028 183.156 261.028 192.781C261.028 192.781 260.708 182.512 268.084 182.512C268.084 182.512 261.028 182.193 261.028 173.207Z" fill="#F7F7F7"/>
<path d="M280.195 36.8829C280.195 36.8829 279.97 43.2081 275.678 43.2081C275.678 43.2081 280.195 43.8871 280.195 50.6616C280.195 50.6616 279.97 43.4328 285.16 43.4328C285.16 43.4328 280.195 43.2081 280.195 36.8829V36.8829Z" fill="#F7F7F7"/>
<path d="M285.374 216.508C285.374 216.508 285.219 220.836 282.285 220.836C282.285 220.836 285.374 221.301 285.374 225.934C285.374 225.934 285.219 220.991 288.773 220.991C288.773 220.991 285.374 220.837 285.374 216.508Z" fill="#F7F7F7"/>
<path d="M308.437 163.072C308.437 163.072 308.282 167.4 305.348 167.4C305.348 167.4 308.437 167.865 308.437 172.498C308.437 172.498 308.282 167.555 311.835 167.555C311.835 167.555 308.437 167.4 308.437 163.072Z" fill="#F7F7F7"/>
<path d="M251.242 108.715C251.242 108.715 251.087 113.043 248.153 113.043C248.153 113.043 251.242 113.507 251.242 118.14C251.242 118.14 251.087 113.198 254.64 113.198C254.64 113.198 251.242 113.043 251.242 108.715Z" fill="#F7F7F7"/>
<path d="M231.869 152.016C231.869 152.016 231.714 156.345 228.78 156.345C228.78 156.345 231.869 156.809 231.869 161.442C231.869 161.442 231.714 156.499 235.268 156.499C235.268 156.499 231.869 156.345 231.869 152.016Z" fill="#F7F7F7"/>
<path d="M194.047 123.456C194.047 123.456 193.892 127.784 190.957 127.784C190.957 127.784 194.047 128.248 194.047 132.881C194.047 132.881 193.892 127.939 197.445 127.939C197.445 127.939 194.047 127.784 194.047 123.456Z" fill="#F7F7F7"/>
<path d="M152.414 29.8937C152.414 29.8937 152.164 36.8829 147.423 36.8829C147.423 36.8829 152.414 37.6317 152.414 45.1201C152.414 45.1201 152.164 37.1325 157.903 37.1325C157.903 37.1325 152.414 36.8829 152.414 29.8937V29.8937Z" fill="#F7F7F7"/>
<path d="M30.0775 50.362C30.0775 50.362 29.7581 59.3481 23.6598 59.3481C23.6598 59.3481 30.0775 60.3116 30.0775 69.9367C30.0775 69.9367 29.7581 59.6676 37.134 59.6676C37.134 59.6676 30.0775 59.3481 30.0775 50.362V50.362Z" fill="#F7F7F7"/>
<path d="M332.001 182.657C332.001 182.657 331.681 191.643 325.583 191.643C325.583 191.643 332.001 192.607 332.001 202.232C332.001 202.232 331.681 191.963 339.057 191.963C339.057 191.963 332.001 191.643 332.001 182.657Z" fill="#F7F7F7"/>
<path d="M61.7678 112.4C61.7678 112.4 61.4484 121.386 55.35 121.386C55.35 121.386 61.7678 122.35 61.7678 131.975C61.7678 131.975 61.4484 121.706 68.8243 121.706C68.8243 121.706 61.7678 121.386 61.7678 112.4Z" fill="#F7F7F7"/>
<path d="M118.788 82.3125C118.788 82.3125 118.598 87.6393 114.985 87.6393C114.985 87.6393 118.788 88.2084 118.788 93.9146C118.788 93.9146 118.598 87.829 122.97 87.829C122.97 87.829 118.788 87.6393 118.788 82.3125V82.3125Z" fill="#F7F7F7"/>
<path d="M349.74 93.9738C349.74 93.9738 349.551 99.3005 345.938 99.3005C345.938 99.3005 349.74 99.8696 349.74 105.576C349.74 105.576 349.551 99.4902 353.922 99.4902C353.922 99.4902 349.74 99.3005 349.74 93.9738V93.9738Z" fill="#F7F7F7"/>
<path d="M324.833 52.5148C324.833 52.5148 324.643 57.8415 321.03 57.8415C321.03 57.8415 324.833 58.4106 324.833 64.1168C324.833 64.1168 324.643 58.0312 329.015 58.0312C329.015 58.0312 324.833 57.8415 324.833 52.5148V52.5148Z" fill="#F7F7F7"/>
<path d="M208.312 47.1171C204.3 43.4128 206.93 33.6429 214.266 25.1611C221.602 16.6742 230.889 12.6604 235.131 16.1001H235.136L238.504 19.0056H238.499C242.512 22.7149 239.882 32.4847 232.546 40.9716C225.21 49.4585 215.922 53.4722 211.681 50.0326H211.676L208.307 47.1271H208.312V47.1171Z" fill="#F7F7F7"/>
<path d="M215.538 52.2441C213.841 52.2441 212.349 51.8048 211.157 50.8862C211.107 50.8563 211.062 50.8263 211.022 50.7864L207.653 47.8759C207.608 47.836 207.568 47.796 207.533 47.7561C203.212 43.5776 205.812 33.4083 213.512 24.5071C221.212 15.6009 230.894 11.5621 235.65 15.2414C235.7 15.2714 235.745 15.3013 235.785 15.3413L239.153 18.2518C239.198 18.2917 239.238 18.3316 239.273 18.3766C243.595 22.5551 240.99 32.7194 233.294 41.6256C227.52 48.3052 220.628 52.2491 215.533 52.2491L215.538 52.2441ZM212.23 49.1939C212.254 49.2138 212.284 49.2288 212.309 49.2488C216.057 52.2841 224.975 48.1904 231.787 40.3126C238.599 32.4298 241.364 23.0094 237.821 19.7395C237.796 19.7195 237.776 19.6945 237.751 19.6696L234.582 16.9238C234.557 16.9038 234.527 16.8889 234.502 16.8689C230.759 13.8336 221.836 17.9223 215.024 25.8051C208.212 33.6879 205.447 43.1083 208.991 46.3782C209.016 46.3982 209.036 46.4231 209.056 46.4431L212.23 49.1889V49.1939Z" fill="#333333"/>
<path d="M229.425 38.2723C236.834 29.7039 239.449 19.8232 235.265 16.203C231.082 12.5829 221.684 16.5942 214.275 25.1625C206.866 33.7309 204.251 43.6116 208.435 47.2318C212.619 50.8519 222.016 46.8406 229.425 38.2723Z" fill="#F7F7F7"/>
<path d="M212.434 49.5583C210.608 49.5583 209.011 49.0491 207.778 47.9807C205.452 45.9688 204.834 42.3494 206.041 37.7915C207.184 33.4782 209.839 28.7605 213.517 24.5021C217.195 20.2437 221.482 16.9388 225.584 15.1865C229.916 13.3344 233.584 13.4242 235.914 15.4411C238.24 17.453 238.859 21.0724 237.651 25.6303C236.508 29.9437 233.853 34.6613 230.175 38.9198C224.371 45.6294 217.514 49.5583 212.434 49.5583V49.5583ZM209.081 46.4731C212.778 49.6731 221.746 45.6144 228.663 37.6118C232.151 33.578 234.657 29.1449 235.72 25.1211C236.708 21.3969 236.299 18.4215 234.607 16.9538C232.91 15.486 229.911 15.516 226.368 17.0286C222.54 18.6611 218.513 21.7813 215.029 25.815C211.541 29.8488 209.036 34.2819 207.973 38.3057C206.99 42.0299 207.394 45.0053 209.086 46.4731H209.081Z" fill="#333333"/>
<path d="M237.913 21.5888L236.608 23.0993L239.741 25.8095L241.047 24.299L237.913 21.5888Z" fill="#333333"/>
<path d="M237.885 19.2571L236.579 20.7673L239.463 23.2626L240.768 21.7523L237.885 19.2571Z" fill="#333333"/>
<path d="M237.221 24.358L235.916 25.8685L239.049 28.5788L240.354 27.0683L237.221 24.358Z" fill="#333333"/>
<path d="M236.556 27.5654L235.25 29.0757L238.383 31.7865L239.688 30.2762L236.556 27.5654Z" fill="#333333"/>
<path d="M234.73 30.6086L233.425 32.1191L236.558 34.8294L237.864 33.3189L234.73 30.6086Z" fill="#333333"/>
<path d="M233.386 33.6542L232.081 35.1644L235.213 37.8752L236.519 36.365L233.386 33.6542Z" fill="#333333"/>
<path d="M230.884 36.528L229.578 38.0385L232.711 40.7487L234.017 39.2382L230.884 36.528Z" fill="#333333"/>
<path d="M215.798 47.6556L214.492 49.1661L217.625 51.8763L218.931 50.3658L215.798 47.6556Z" fill="#333333"/>
<path d="M213.475 47.9701L212.169 49.4804L215.053 51.9756L216.359 50.4653L213.475 47.9701Z" fill="#333333"/>
<path d="M218.437 46.5742L217.131 48.0845L220.263 50.7953L221.569 49.285L218.437 46.5742Z" fill="#333333"/>
<path d="M221.497 45.4377L220.192 46.9483L223.325 49.6585L224.63 48.148L221.497 45.4377Z" fill="#333333"/>
<path d="M223.622 43.4967L222.316 45.007L225.449 47.7178L226.755 46.2075L223.622 43.4967Z" fill="#333333"/>
<path d="M226.181 41.5047L224.876 43.015L228.008 45.7258L229.314 44.2155L226.181 41.5047Z" fill="#333333"/>
<path d="M228.955 39.2755L227.649 40.7858L230.782 43.4966L232.088 41.9863L228.955 39.2755Z" fill="#333333"/>
<path d="M209.071 43.3579C209.011 43.0484 207.648 35.6598 215.573 26.499C223.478 17.3531 231.163 17.3831 231.488 17.3881L231.453 19.385L231.473 18.3865L231.458 19.385C231.418 19.37 229.666 19.385 227.031 20.4084C224.591 21.357 220.883 23.4138 217.085 27.807C213.298 32.1902 211.85 36.0842 211.306 38.5803C210.717 41.2711 211.027 42.9585 211.027 42.9785L209.071 43.3629V43.3579Z" fill="#333333"/>
<path d="M153.115 93.9911C153.305 88.5373 162.431 84.1488 173.653 84.1614C184.88 84.1707 193.988 88.5765 194.149 94.0312L194.152 94.035L194.149 98.4802L194.145 98.4764C193.952 103.933 184.826 108.322 173.6 108.313C162.374 108.303 153.265 103.898 153.104 98.4428L153.101 98.4391L153.105 93.9938L153.108 93.9976L153.115 93.9911Z" fill="#F7F7F7"/>
<path d="M153.946 102.805C152.838 101.521 152.197 100.106 152.115 98.6037C152.105 98.5464 152.098 98.4929 152.102 98.4366L152.11 93.9881C152.111 93.928 152.115 93.8718 152.122 93.8193C152.469 87.8218 161.879 83.1499 173.657 83.1644C185.439 83.1755 194.824 87.8632 195.139 93.8632C195.149 93.9206 195.156 93.9741 195.152 94.0304L195.144 98.4789C195.143 98.5389 195.139 98.5952 195.127 98.651C194.781 104.648 185.372 109.313 173.593 109.306C164.757 109.298 157.266 106.659 153.939 102.805L153.946 102.805ZM154.099 98.3106C154.1 98.3425 154.108 98.3749 154.109 98.4069C154.254 103.224 163.182 107.298 173.604 107.309C184.03 107.316 192.98 103.257 193.146 98.4421C193.145 98.4101 193.15 98.3787 193.153 98.3436L193.166 94.1536C193.165 94.1217 193.157 94.0893 193.156 94.0574C193.013 89.2442 184.086 85.163 173.66 85.1557C163.234 85.1484 154.285 89.2069 154.119 94.0222C154.12 94.0541 154.114 94.0855 154.112 94.1136L154.102 98.3073L154.099 98.3106Z" fill="#333333"/>
<path d="M173.61 104.188C184.946 104.199 194.147 99.7275 194.16 94.2002C194.174 88.6729 184.995 84.1829 173.659 84.1716C162.322 84.1602 153.122 88.6317 153.108 94.159C153.094 99.6864 162.273 104.176 173.61 104.188Z" fill="#F7F7F7"/>
<path d="M153.956 98.7033C152.763 97.3215 152.107 95.781 152.112 94.151C152.119 91.0782 154.46 88.2471 158.705 86.1851C162.722 84.2338 168.034 83.1624 173.665 83.1649C179.296 83.1673 184.601 84.2529 188.608 86.2123C192.842 88.2803 195.168 91.1139 195.161 94.1937C195.154 97.2665 192.813 100.098 188.568 102.16C184.551 104.111 179.239 105.182 173.608 105.18C164.73 105.169 157.273 102.547 153.956 98.7033V98.7033ZM154.106 94.1521C154.094 99.0388 163.028 103.174 173.613 103.182C178.95 103.188 183.947 102.189 187.693 100.366C191.162 98.6822 193.152 96.4302 193.16 94.1921C193.165 91.9502 191.184 89.7008 187.723 88.0077C183.986 86.1777 178.99 85.1679 173.656 85.166C168.319 85.1604 163.322 86.1592 159.576 87.9819C156.11 89.6695 154.117 91.9178 154.109 94.1559L154.106 94.1521Z" fill="#333333"/>
<path d="M191.804 99.7179L189.805 99.7163L189.796 103.856L191.794 103.857L191.804 99.7179Z" fill="#333333"/>
<path d="M193.553 98.174L191.555 98.172L191.546 101.982L193.544 101.984L193.553 98.174Z" fill="#333333"/>
<path d="M189.251 101.002L187.253 101.001L187.244 105.14L189.242 105.142L189.251 101.002Z" fill="#333333"/>
<path d="M186.384 102.593L184.386 102.591L184.376 106.731L186.374 106.733L186.384 102.593Z" fill="#333333"/>
<path d="M182.885 103.199L180.886 103.198L180.877 107.337L182.875 107.339L182.885 103.199Z" fill="#333333"/>
<path d="M179.697 104.171L177.699 104.169L177.689 108.309L179.687 108.311L179.697 104.171Z" fill="#333333"/>
<path d="M175.884 104.154L173.885 104.152L173.876 108.292L175.874 108.294L175.884 104.154Z" fill="#333333"/>
<path d="M157.595 100.007L155.596 100.006L155.587 104.145L157.585 104.147L157.595 100.007Z" fill="#333333"/>
<path d="M155.84 98.4561L153.841 98.454L153.832 102.264L155.83 102.266L155.84 98.4561Z" fill="#333333"/>
<path d="M160.138 101.298L158.139 101.296L158.129 105.435L160.128 105.437L160.138 101.298Z" fill="#333333"/>
<path d="M162.998 102.871L160.999 102.869L160.99 107.009L162.989 107.01L162.998 102.871Z" fill="#333333"/>
<path d="M165.857 103.211L163.859 103.209L163.849 107.348L165.847 107.35L165.857 103.211Z" fill="#333333"/>
<path d="M169.039 103.846L167.041 103.844L167.031 107.984L169.029 107.986L169.039 103.846Z" fill="#333333"/>
<path d="M172.541 104.489L170.542 104.487L170.532 108.627L172.531 108.629L172.541 104.489Z" fill="#333333"/>
<path d="M156.462 92.1108C156.658 91.8635 161.371 86.0092 173.493 86.024C185.59 86.0336 190.586 91.8673 190.794 92.116L189.257 93.3932L190.027 92.7565L189.26 93.397C189.245 93.357 188.09 92.0416 185.594 90.7163C183.281 89.4893 179.3 88.027 173.488 88.0219C167.691 88.0179 163.793 89.4652 161.545 90.6832C159.12 91.9944 158.042 93.3301 158.027 93.3431L156.458 92.1141L156.462 92.1108Z" fill="#333333"/>
<path d="M295.416 79.6568C297.052 74.4449 289.906 67.286 279.321 63.5817C268.737 59.8775 258.686 61.0257 256.719 66.1178H256.71L255.242 70.3163H255.252C253.615 75.5282 260.762 82.6921 271.347 86.3964C281.931 90.1007 291.982 88.9524 293.948 83.8603H293.958L295.425 79.6618H295.416V79.6568Z" fill="#F7F7F7"/>
<path d="M283.174 89.5715C279.511 89.5715 275.319 88.8476 271.017 87.3449C259.908 83.456 252.587 75.9326 254.259 70.1565C254.269 70.1016 254.284 70.0467 254.299 69.9918L255.766 65.7883C255.786 65.7334 255.811 65.6785 255.836 65.6286C258.132 60.0722 268.542 58.7542 279.646 62.6382C290.754 66.5272 298.07 74.0455 296.404 79.8216C296.394 79.8765 296.379 79.9314 296.364 79.9863L294.896 84.1898C294.877 84.2447 294.852 84.2997 294.827 84.3496C293.419 87.7543 288.968 89.5665 283.174 89.5665V89.5715ZM256.225 70.531C256.22 70.5609 256.21 70.5909 256.2 70.6208C254.753 75.2237 261.84 82.0132 271.671 85.4529C281.502 88.8925 291.278 87.9989 293.01 83.5009C293.02 83.4709 293.035 83.441 293.05 83.411L294.437 79.4472C294.442 79.4172 294.452 79.3873 294.462 79.3573C295.91 74.7544 288.823 67.9649 278.992 64.5253C269.161 61.0856 259.384 61.9792 257.653 66.4822C257.643 66.5122 257.628 66.5421 257.613 66.5721L256.225 70.531Z" fill="#333333"/>
<path d="M295.387 79.8179C297.213 74.5947 290.028 67.3279 279.338 63.5872C268.648 59.8465 258.502 61.0483 256.675 66.2716C254.849 71.4949 262.034 78.7616 272.724 82.5023C283.414 86.243 293.56 85.0412 295.387 79.8179Z" fill="#F7F7F7"/>
<path d="M284.581 85.6825C280.918 85.6825 276.716 84.9536 272.38 83.436C267.07 81.5789 262.419 78.8082 259.28 75.6381C255.966 72.2882 254.698 68.8436 255.716 65.9381C256.734 63.0326 259.868 61.1255 264.549 60.5714C268.976 60.0472 274.341 60.7811 279.651 62.6382C291.034 66.622 298.35 74.3101 296.314 80.1361C295.051 83.7455 290.535 85.6775 284.581 85.6775V85.6825ZM267.479 62.4036C266.546 62.4036 265.647 62.4535 264.789 62.5533C260.966 63.0076 258.346 64.4803 257.608 66.5971C256.869 68.7138 257.997 71.4945 260.707 74.2352C263.631 77.1956 268.013 79.7916 273.043 81.5539C283.024 85.0485 292.82 84.095 294.432 79.4821C296.044 74.8693 288.978 68.0199 278.997 64.5253C275.014 63.1324 271.022 62.4036 267.479 62.4036V62.4036Z" fill="#333333"/>
<path d="M257.055 72.2971L255.687 76.2083L257.571 76.8677L258.939 72.9565L257.055 72.2971Z" fill="#333333"/>
<path d="M255.924 70.2305L254.665 73.8307L256.549 74.4901L257.808 70.8899L255.924 70.2305Z" fill="#333333"/>
<path d="M259.035 74.3402L257.667 78.2514L259.552 78.9108L260.919 74.9996L259.035 74.3402Z" fill="#333333"/>
<path d="M261.215 76.7829L259.847 80.6941L261.732 81.3535L263.099 77.4423L261.215 76.7829Z" fill="#333333"/>
<path d="M264.303 78.5383L262.935 82.4494L264.819 83.1088L266.187 79.1976L264.303 78.5383Z" fill="#333333"/>
<path d="M266.986 80.4916L265.618 84.4028L267.503 85.0622L268.87 81.151L266.986 80.4916Z" fill="#333333"/>
<path d="M270.595 81.7498L269.227 85.661L271.112 86.3204L272.479 82.4092L270.595 81.7498Z" fill="#333333"/>
<path d="M289.208 83.8874L287.84 87.7986L289.724 88.458L291.092 84.5468L289.208 83.8874Z" fill="#333333"/>
<path d="M291.382 82.9716L290.123 86.5718L292.007 87.2311L293.266 83.631L291.382 82.9716Z" fill="#333333"/>
<path d="M286.385 84.2473L285.018 88.1585L286.902 88.8178L288.27 84.9066L286.385 84.2473Z" fill="#333333"/>
<path d="M283.163 84.8002L281.796 88.7114L283.68 89.3707L285.048 85.4595L283.163 84.8002Z" fill="#333333"/>
<path d="M280.356 84.1587L278.988 88.0699L280.872 88.7292L282.24 84.818L280.356 84.1587Z" fill="#333333"/>
<path d="M277.146 83.7055L275.778 87.6167L277.662 88.2761L279.03 84.3648L277.146 83.7055Z" fill="#333333"/>
<path d="M273.633 83.151L272.265 87.0622L274.149 87.7215L275.517 83.8103L273.633 83.151Z" fill="#333333"/>
<path d="M290.999 77.4153C290.979 77.3554 288.643 70.9353 278.198 67.281C272.719 65.364 268.482 65.4289 265.892 65.8232C263.092 66.2476 261.56 67.1362 261.545 67.1412L260.522 65.4239C260.802 65.2591 267.444 61.4001 278.857 65.3939C290.29 69.3927 292.791 76.4768 292.89 76.7763L290.999 77.4153V77.4153Z" fill="#333333"/>
<path d="M379.818 140.306C379.494 134.851 370.268 130.686 359.057 130.969C347.846 131.252 338.861 135.885 338.835 141.344L338.825 141.348L338.948 145.795L338.957 145.791C339.281 151.246 348.509 155.417 359.72 155.133C370.931 154.85 379.916 150.217 379.942 144.758L379.952 144.754L379.829 140.307L379.82 140.311L379.818 140.306Z" fill="#F7F7F7"/>
<path d="M371.904 153.915C368.48 155.212 364.305 156.019 359.749 156.137C347.983 156.433 338.464 151.988 337.972 145.993C337.962 145.939 337.956 145.882 337.951 145.825L337.827 141.374C337.826 141.315 337.83 141.255 337.835 141.2C338.004 135.189 347.265 130.27 359.025 129.971C370.791 129.675 380.303 134.117 380.8 140.11C380.81 140.165 380.816 140.222 380.821 140.279L380.945 144.73C380.946 144.789 380.943 144.849 380.937 144.904C380.833 148.587 377.317 151.859 371.902 153.91L371.904 153.915ZM339.943 145.647C339.949 145.677 339.95 145.709 339.952 145.74C340.236 150.558 349.275 154.4 359.687 154.136C370.1 153.872 378.919 149.574 378.937 144.754C378.936 144.722 378.939 144.689 378.943 144.655L378.829 140.456C378.823 140.427 378.822 140.395 378.821 140.364C378.536 135.546 369.497 131.704 359.085 131.968C348.673 132.232 339.853 136.53 339.837 141.355C339.838 141.386 339.835 141.42 339.831 141.453L339.943 145.647Z" fill="#333333"/>
<path d="M379.847 140.467C379.696 134.932 370.397 130.676 359.076 130.963C347.755 131.249 338.7 135.969 338.851 141.505C339.002 147.041 348.302 151.296 359.623 151.01C370.944 150.723 379.998 146.003 379.847 140.467Z" fill="#F7F7F7"/>
<path d="M371.837 149.78C368.413 151.077 364.226 151.883 359.633 151.999C354.01 152.143 348.677 151.198 344.615 149.344C340.326 147.384 337.916 144.611 337.834 141.532C337.752 138.454 340.003 135.56 344.181 133.384C348.131 131.326 353.407 130.113 359.03 129.97C371.087 129.666 380.66 134.266 380.83 140.437C380.934 144.261 377.4 147.667 371.835 149.775L371.837 149.78ZM347.57 134.061C346.698 134.391 345.876 134.756 345.11 135.153C341.698 136.932 339.773 139.237 339.836 141.479C339.899 143.72 341.942 145.922 345.45 147.526C349.236 149.26 354.255 150.137 359.584 150.004C370.156 149.738 378.973 145.377 378.838 140.492C378.704 135.606 369.663 131.701 359.091 131.967C354.873 132.074 350.882 132.806 347.57 134.061V134.061Z" fill="#333333"/>
<path d="M341.343 147.012L341.456 151.154L343.45 151.104L343.337 146.962L341.343 147.012Z" fill="#333333"/>
<path d="M339.551 145.481L339.655 149.294L341.649 149.243L341.545 145.43L339.551 145.481Z" fill="#333333"/>
<path d="M343.92 148.22L344.033 152.363L346.027 152.312L345.914 148.17L343.92 148.22Z" fill="#333333"/>
<path d="M346.826 149.731L346.939 153.874L348.933 153.823L348.82 149.681L346.826 149.731Z" fill="#333333"/>
<path d="M350.336 150.278L350.449 154.42L352.443 154.37L352.33 150.228L350.336 150.278Z" fill="#333333"/>
<path d="M353.539 151.153L353.652 155.296L355.646 155.245L355.533 151.103L353.539 151.153Z" fill="#333333"/>
<path d="M357.361 151.05L357.474 155.193L359.468 155.142L359.355 151L357.361 151.05Z" fill="#333333"/>
<path d="M367.342 149.843L367.455 153.985L369.449 153.935L369.336 149.793L367.342 149.843Z" fill="#333333"/>
<path d="M364.18 150.557L364.293 154.699L366.287 154.649L366.174 150.507L364.18 150.557Z" fill="#333333"/>
<path d="M360.698 151.284L360.811 155.426L362.806 155.375L362.693 151.233L360.698 151.284Z" fill="#333333"/>
<path d="M374.896 139.773C374.856 139.724 370.39 134.546 359.326 134.828C353.523 134.976 349.585 136.538 347.304 137.824C344.838 139.213 343.722 140.587 343.71 140.597L342.143 139.353C342.345 139.1 347.182 133.137 359.271 132.83C371.381 132.52 376.237 138.26 376.437 138.505L374.896 139.773V139.773Z" fill="#333333"/>
<path d="M277.788 163.86C282.905 165.783 290.461 159.055 294.758 148.705C299.054 138.355 298.472 128.267 293.493 126.023L293.494 126.013L289.38 124.315L289.379 124.325C284.263 122.403 276.702 129.13 272.405 139.48C268.108 149.83 268.691 159.918 273.67 162.162L273.669 162.172L277.783 163.869L277.783 163.859L277.788 163.86Z" fill="#F7F7F7"/>
<path d="M268.567 151.099C268.773 147.445 269.732 143.305 271.475 139.099C275.986 128.237 283.916 121.355 289.595 123.344C289.649 123.357 289.703 123.375 289.757 123.393L293.876 125.09C293.93 125.113 293.983 125.141 294.032 125.169C299.456 127.768 300.188 138.223 295.683 149.081C291.172 159.943 283.247 166.82 277.568 164.836C277.514 164.823 277.46 164.805 277.406 164.787L273.287 163.09C273.233 163.067 273.18 163.039 273.131 163.011C269.808 161.418 268.247 156.877 268.572 151.099L268.567 151.099ZM289.11 125.284C289.081 125.277 289.051 125.266 289.022 125.254C284.503 123.554 277.32 130.243 273.33 139.856C269.34 149.469 269.684 159.269 274.082 161.247C274.111 161.258 274.14 161.275 274.169 161.291L278.053 162.896C278.082 162.903 278.112 162.914 278.141 162.926C282.66 164.626 289.843 157.937 293.833 148.324C297.823 138.711 297.479 128.911 293.076 126.933C293.047 126.921 293.018 126.905 292.989 126.888L289.11 125.284Z" fill="#333333"/>
<path d="M277.629 163.82C282.747 165.932 290.414 159.172 294.753 148.721C299.093 138.27 298.461 128.085 293.343 125.973C288.225 123.86 280.559 130.62 276.219 141.072C271.88 151.523 272.511 161.708 277.629 163.82Z" fill="#F7F7F7"/>
<path d="M272.376 152.719C272.582 149.066 273.546 144.916 275.307 140.676C277.461 135.484 280.491 131 283.836 128.046C287.369 124.928 290.883 123.856 293.73 125.033C296.576 126.21 298.306 129.442 298.597 134.141C298.872 138.585 297.837 143.894 295.683 149.086C291.062 160.217 282.968 167.084 277.26 164.729C273.724 163.269 272.047 158.657 272.381 152.719L272.376 152.719ZM296.601 136.96C296.653 136.03 296.654 135.131 296.602 134.27C296.363 130.432 295.039 127.737 292.965 126.882C290.891 126.028 288.049 126.998 285.157 129.547C282.035 132.299 279.194 136.524 277.15 141.443C273.097 151.202 273.5 161.025 278.019 162.889C282.538 164.754 289.78 158.088 293.834 148.329C295.449 144.435 296.402 140.494 296.601 136.96V136.96Z" fill="#333333"/>
<path d="M287.295 126.016L283.462 124.433L282.697 126.276L286.531 127.858L287.295 126.016Z" fill="#333333"/>
<path d="M289.425 125.004L285.896 123.547L285.131 125.39L288.66 126.846L289.425 125.004Z" fill="#333333"/>
<path d="M285.142 127.876L281.309 126.294L280.544 128.136L284.377 129.718L285.142 127.876Z" fill="#333333"/>
<path d="M282.578 129.913L278.745 128.331L277.98 130.173L281.813 131.755L282.578 129.913Z" fill="#333333"/>
<path d="M280.65 132.893L276.817 131.311L276.052 133.154L279.886 134.736L280.65 132.893Z" fill="#333333"/>
<path d="M278.548 135.46L274.714 133.878L273.949 135.72L277.783 137.302L278.548 135.46Z" fill="#333333"/>
<path d="M277.088 138.988L273.254 137.406L272.49 139.249L276.323 140.831L277.088 138.988Z" fill="#333333"/>
<path d="M273.909 157.428L270.076 155.846L269.311 157.689L273.144 159.271L273.909 157.428Z" fill="#333333"/>
<path d="M274.703 159.648L271.175 158.191L270.41 160.034L273.938 161.49L274.703 159.648Z" fill="#333333"/>
<path d="M273.707 154.594L269.874 153.012L269.109 154.854L272.942 156.436L273.707 154.594Z" fill="#333333"/>
<path d="M273.335 151.35L269.502 149.768L268.737 151.61L272.57 153.193L273.335 151.35Z" fill="#333333"/>
<path d="M274.133 148.586L270.3 147.004L269.535 148.847L273.368 150.429L274.133 148.586Z" fill="#333333"/>
<path d="M274.766 145.411L270.933 143.829L270.168 145.671L274.001 147.253L274.766 145.411Z" fill="#333333"/>
<path d="M275.517 141.939L271.684 140.357L270.919 142.199L274.752 143.782L275.517 141.939Z" fill="#333333"/>
<path d="M280.279 159.578C280.34 159.561 286.888 157.591 291.126 147.38C293.35 142.023 293.522 137.794 293.273 135.19C293.006 132.374 292.203 130.797 292.199 130.782L293.973 129.857C294.122 130.145 297.607 136.985 292.976 148.142C288.338 159.32 281.117 161.417 280.812 161.5L280.279 159.578V159.578Z" fill="#333333"/>
<path d="M127.197 46.0088C124.762 41.1214 114.651 40.9217 104.456 45.5994C94.26 50.2772 87.8173 58.0751 89.9333 63.1123H89.9283L91.7847 67.161H91.7897C94.2251 72.0485 104.336 72.2482 114.531 67.5704C124.727 62.8927 131.169 55.0947 129.054 50.0575H129.059L127.202 46.0088H127.197V46.0088Z" fill="#F7F7F7"/>
<path d="M100.693 71.9486C96.0416 71.9486 92.4385 70.5258 90.9613 67.7252C90.9314 67.6802 90.9014 67.6303 90.8765 67.5804L89.02 63.5317C88.9951 63.4768 88.9751 63.4268 88.9601 63.3719C86.7593 57.7756 93.3418 49.6032 104.036 44.6958C114.731 39.7884 125.216 40.1279 128.021 45.4447C128.05 45.4896 128.08 45.5395 128.105 45.5944L129.962 49.6432C129.987 49.6981 130.007 49.753 130.022 49.8079C132.217 55.4042 125.64 63.5716 114.945 68.479C109.88 70.8054 104.865 71.9486 100.688 71.9486H100.693ZM92.6381 66.6319C92.6531 66.6568 92.668 66.6868 92.683 66.7167C94.8339 71.035 104.645 71.0101 114.112 66.6668C123.579 62.3235 129.997 54.895 128.13 50.4519C128.115 50.422 128.105 50.392 128.095 50.3571L126.349 46.543C126.334 46.518 126.319 46.4881 126.304 46.4581C124.153 42.1398 114.342 42.1647 104.875 46.508C95.4078 50.8513 88.9901 58.2798 90.8565 62.7229C90.8665 62.7529 90.8815 62.7828 90.8914 62.8128L92.6431 66.6269L92.6381 66.6319Z" fill="#333333"/>
<path d="M112.806 63.8215C123.1 59.0982 129.575 51.1918 127.269 46.1621C124.962 41.1323 114.748 40.8839 104.454 45.6072C94.1603 50.3305 87.685 58.2369 89.9913 63.2666C92.2975 68.2964 102.512 68.5448 112.806 63.8215Z" fill="#F7F7F7"/>
<path d="M98.9261 68.1995C98.7414 68.1995 98.5618 68.1995 98.3821 68.1945C93.6711 68.0796 90.3724 66.4771 89.0899 63.6814C87.8073 60.8858 88.7455 57.3363 91.7298 53.6869C94.5544 50.2373 98.9261 47.0422 104.041 44.6958C109.157 42.3495 114.416 41.1114 118.883 41.2212C123.594 41.336 126.893 42.9385 128.175 45.7342C129.458 48.5299 128.52 52.0794 125.535 55.7288C122.711 59.1784 118.339 62.3735 113.224 64.7198C108.318 66.9714 103.263 68.1995 98.9261 68.1995V68.1995ZM118.334 43.2131C114.282 43.2131 109.526 44.3763 104.875 46.508C100.029 48.7296 95.9118 51.7299 93.2719 54.95C90.8315 57.9303 89.9682 60.8059 90.9014 62.8427C91.8346 64.8796 94.5794 66.1027 98.432 66.1926C102.579 66.3074 107.55 65.1242 112.395 62.9027C117.241 60.6811 121.358 57.6807 123.998 54.4607C126.439 51.4803 127.302 48.6048 126.369 46.5679C125.435 44.5311 122.691 43.308 118.838 43.2181C118.673 43.2181 118.504 43.2131 118.339 43.2131H118.334Z" fill="#333333"/>
<path d="M96.2539 66.4911L94.4396 67.324L96.1671 71.09L97.9814 70.2571L96.2539 66.4911Z" fill="#333333"/>
<path d="M94.0002 65.7852L92.1859 66.6181L93.7782 70.0892L95.5925 69.2563L94.0002 65.7852Z" fill="#333333"/>
<path d="M99.0938 66.5907L97.2795 67.4236L99.0071 71.1896L100.821 70.3567L99.0938 66.5907Z" fill="#333333"/>
<path d="M102.359 66.8387L100.545 67.6716L102.272 71.4376L104.086 70.6047L102.359 66.8387Z" fill="#333333"/>
<path d="M105.801 65.9614L103.987 66.7942L105.714 70.5602L107.528 69.7274L105.801 65.9614Z" fill="#333333"/>
<path d="M109.092 65.4997L107.278 66.3326L109.006 70.0986L110.82 69.2657L109.092 65.4997Z" fill="#333333"/>
<path d="M112.557 63.9259L110.743 64.7584L112.47 68.5247L114.284 67.6922L112.557 63.9259Z" fill="#333333"/>
<path d="M127.443 52.5433L125.628 53.3758L127.355 57.1421L129.17 56.3096L127.443 52.5433Z" fill="#333333"/>
<path d="M128.383 50.3701L126.569 51.2027L128.158 54.6695L129.973 53.8369L128.383 50.3701Z" fill="#333333"/>
<path d="M125.666 54.7473L123.851 55.5802L125.579 59.3462L127.393 58.5133L125.666 54.7473Z" fill="#333333"/>
<path d="M123.727 57.3818L121.913 58.2146L123.641 61.9806L125.455 61.1478L123.727 57.3818Z" fill="#333333"/>
<path d="M121.257 58.8664L119.443 59.6993L121.17 63.4653L122.984 62.6324L121.257 58.8664Z" fill="#333333"/>
<path d="M118.638 60.7692L116.823 61.6021L118.551 65.3681L120.365 64.5352L118.638 60.7692Z" fill="#333333"/>
<path d="M115.725 62.808L113.911 63.6409L115.639 67.4069L117.453 66.574L115.725 62.808Z" fill="#333333"/>
<path d="M94.1153 60.5014L92.1889 59.9772C92.2738 59.6676 94.3847 52.2741 105.374 47.2319C116.383 42.1797 123.095 45.5495 123.374 45.6943L122.451 47.4665C122.396 47.4366 116.258 44.4312 106.207 49.0491C100.932 51.4703 97.923 54.4607 96.331 56.5375C94.6093 58.784 94.1202 60.4864 94.1153 60.5063V60.5014Z" fill="#333333"/>
<path d="M350.419 234.675C347.984 229.788 337.873 229.588 327.677 234.266C317.482 238.944 311.039 246.742 313.155 251.779H313.15L315.007 255.827H315.012C317.447 260.715 327.558 260.915 337.753 256.237C347.949 251.559 354.391 243.761 352.276 238.724H352.281L350.424 234.675H350.419V234.675Z" fill="#F7F7F7"/>
<path d="M323.915 260.615C319.264 260.615 315.661 259.192 314.183 256.392C314.153 256.347 314.123 256.297 314.098 256.247L312.242 252.198C312.217 252.143 312.197 252.093 312.182 252.038C309.981 246.442 316.564 238.27 327.258 233.362C337.953 228.455 348.438 228.794 351.242 234.111C351.272 234.156 351.302 234.206 351.327 234.261L353.184 238.31C353.209 238.365 353.229 238.419 353.244 238.474C355.439 244.071 348.862 252.238 338.167 257.145C333.102 259.472 328.087 260.615 323.91 260.615H323.915ZM315.86 255.298C315.875 255.323 315.89 255.353 315.905 255.383C318.056 259.701 327.867 259.677 337.334 255.333C346.801 250.99 353.219 243.561 351.352 239.118C351.337 239.088 351.327 239.058 351.317 239.023L349.571 235.209C349.556 235.184 349.541 235.154 349.526 235.125C347.375 230.806 337.564 230.831 328.097 235.174C318.63 239.518 312.212 246.946 314.079 251.389C314.089 251.419 314.103 251.449 314.113 251.479L315.865 255.293L315.86 255.298Z" fill="#333333"/>
<path d="M336.028 252.488C346.322 247.765 352.797 239.858 350.491 234.828C348.184 229.799 337.97 229.55 327.676 234.274C317.382 238.997 310.907 246.903 313.213 251.933C315.519 256.963 325.734 257.211 336.028 252.488Z" fill="#F7F7F7"/>
<path d="M322.148 256.866C321.963 256.866 321.784 256.866 321.604 256.861C316.893 256.746 313.594 255.144 312.312 252.348C311.029 249.552 311.968 246.003 314.952 242.353C317.776 238.904 322.148 235.709 327.263 233.362C332.379 231.016 337.638 229.778 342.105 229.888C346.816 230.002 350.115 231.605 351.397 234.401C352.68 237.196 351.742 240.746 348.757 244.395C345.933 247.845 341.561 251.04 336.446 253.386C331.54 255.638 326.485 256.866 322.148 256.866V256.866ZM341.556 231.88C337.504 231.88 332.748 233.043 328.097 235.174C323.251 237.396 319.134 240.396 316.494 243.616C314.054 246.597 313.19 249.472 314.123 251.509C315.057 253.546 317.801 254.769 321.654 254.859C325.801 254.974 330.772 253.791 335.617 251.569C340.463 249.348 344.58 246.347 347.22 243.127C349.661 240.147 350.524 237.271 349.591 235.234C348.657 233.198 345.913 231.974 342.06 231.885C341.895 231.885 341.726 231.88 341.561 231.88H341.556Z" fill="#333333"/>
<path d="M319.476 255.158L317.662 255.99L319.389 259.756L321.203 258.924L319.476 255.158Z" fill="#333333"/>
<path d="M317.222 254.452L315.408 255.285L317 258.756L318.815 257.923L317.222 254.452Z" fill="#333333"/>
<path d="M322.316 255.257L320.502 256.09L322.229 259.856L324.043 259.023L322.316 255.257Z" fill="#333333"/>
<path d="M325.581 255.505L323.767 256.338L325.494 260.104L327.308 259.271L325.581 255.505Z" fill="#333333"/>
<path d="M329.023 254.628L327.209 255.461L328.936 259.227L330.75 258.394L329.023 254.628Z" fill="#333333"/>
<path d="M332.314 254.166L330.5 254.999L332.228 258.765L334.042 257.932L332.314 254.166Z" fill="#333333"/>
<path d="M335.779 252.592L333.965 253.425L335.691 257.191L337.506 256.359L335.779 252.592Z" fill="#333333"/>
<path d="M350.665 241.21L348.85 242.042L350.577 245.809L352.392 244.976L350.665 241.21Z" fill="#333333"/>
<path d="M351.605 239.037L349.791 239.869L351.38 243.336L353.195 242.503L351.605 239.037Z" fill="#333333"/>
<path d="M348.888 243.414L347.073 244.247L348.801 248.013L350.615 247.18L348.888 243.414Z" fill="#333333"/>
<path d="M346.949 246.048L345.135 246.881L346.863 250.647L348.677 249.814L346.949 246.048Z" fill="#333333"/>
<path d="M344.479 247.533L342.665 248.366L344.392 252.132L346.206 251.299L344.479 247.533Z" fill="#333333"/>
<path d="M341.86 249.436L340.045 250.268L341.773 254.034L343.587 253.202L341.86 249.436Z" fill="#333333"/>
<path d="M338.947 251.474L337.133 252.307L338.86 256.073L340.675 255.24L338.947 251.474Z" fill="#333333"/>
<path d="M317.337 249.168L315.411 248.644C315.496 248.334 317.607 240.941 328.596 235.898C339.605 230.846 346.317 234.216 346.596 234.361L345.673 236.133C345.618 236.103 339.48 233.098 329.429 237.716C324.154 240.137 321.145 243.127 319.553 245.204C317.831 247.45 317.342 249.153 317.337 249.173V249.168Z" fill="#333333"/>
<path d="M67.8504 19.2502C69.4872 14.0383 62.3409 6.87935 51.7561 3.17509C41.1713 -0.529177 31.1205 0.619045 29.1543 5.71116H29.1443L27.6771 9.90966H27.6871C26.0502 15.1216 33.1966 22.2855 43.7814 25.9898C54.3661 29.694 64.4169 28.5458 66.3832 23.4537H66.3931L67.8603 19.2552H67.8504V19.2502Z" fill="#F7F7F7"/>
<path d="M55.6087 29.1649C51.9457 29.1649 47.7538 28.441 43.452 26.9383C32.3432 23.0493 25.0222 15.526 26.694 9.74991C26.704 9.69499 26.719 9.64008 26.7339 9.58516L28.2011 5.38167C28.2211 5.32676 28.246 5.27184 28.271 5.22192C30.5716 -0.334481 40.9817 -1.65244 52.0855 2.23155C63.1943 6.12053 70.5103 13.6389 68.8435 19.4149C68.8335 19.4699 68.8185 19.5248 68.8035 19.5797L67.3363 23.7832C67.3164 23.8381 67.2914 23.893 67.2665 23.9429C65.8592 27.3477 61.4077 29.1599 55.6137 29.1599L55.6087 29.1649ZM28.6602 10.1243C28.6553 10.1543 28.6453 10.1842 28.6353 10.2142C27.1881 14.8171 34.2745 21.6066 44.1057 25.0462C53.9369 28.4859 63.7133 27.5923 65.445 23.0943C65.4549 23.0643 65.4699 23.0343 65.4849 23.0044L66.8722 19.0405C66.8772 19.0106 66.8872 18.9806 66.8972 18.9507C68.3444 14.3478 61.258 7.5583 51.4267 4.11863C41.5955 0.67895 31.8192 1.57257 30.0875 6.0756C30.0775 6.10555 30.0626 6.1355 30.0476 6.16546L28.6602 10.1243V10.1243Z" fill="#333333"/>
<path d="M67.8076 19.403C69.634 14.1798 62.4488 6.91303 51.7589 3.17231C41.069 -0.568402 30.9225 0.633446 29.096 5.85671C27.2696 11.08 34.4548 18.3467 45.1447 22.0874C55.8346 25.8281 65.9811 24.6263 67.8076 19.403Z" fill="#F7F7F7"/>
<path d="M57.0161 25.2759C53.3531 25.2759 49.1511 24.547 44.8144 23.0294C39.5045 21.1722 34.8534 18.4015 31.7144 15.2314C28.4007 11.8816 27.1332 8.43695 28.1512 5.53145C29.1693 2.62595 32.3033 0.718901 36.9843 0.164759C41.4109 -0.35943 46.7756 0.374434 52.0855 2.23156C63.4687 6.21539 70.7848 13.9035 68.7486 19.7295C67.4861 23.3389 62.9697 25.2709 57.0161 25.2709V25.2759ZM39.9087 1.99692C38.9755 1.99692 38.0772 2.04685 37.2189 2.14669C33.3962 2.60099 30.7762 4.07371 30.0376 6.19043C29.299 8.30715 30.4269 11.0878 33.1367 13.8286C36.0611 16.789 40.4427 19.385 45.4731 21.1473C55.4541 24.6369 65.2503 23.6883 66.8623 19.0755C68.4742 14.4626 61.4077 7.61323 51.4267 4.11864C47.4444 2.72579 43.452 1.99692 39.9087 1.99692V1.99692Z" fill="#333333"/>
<path d="M29.4756 11.8772L28.1079 15.7884L29.9921 16.4478L31.3598 12.5366L29.4756 11.8772Z" fill="#333333"/>
<path d="M28.3448 9.81565L27.0859 13.4158L28.9701 14.0752L30.229 10.475L28.3448 9.81565Z" fill="#333333"/>
<path d="M31.4559 13.9253L30.0882 17.8365L31.9724 18.4959L33.3401 14.5847L31.4559 13.9253Z" fill="#333333"/>
<path d="M33.6307 16.368L32.2631 20.2792L34.1473 20.9386L35.515 17.0274L33.6307 16.368Z" fill="#333333"/>
<path d="M36.7233 18.1234L35.3557 22.0346L37.2399 22.6939L38.6076 18.7827L36.7233 18.1234Z" fill="#333333"/>
<path d="M39.4067 20.0767L38.0391 23.9879L39.9233 24.6473L41.291 20.7361L39.4067 20.0767Z" fill="#333333"/>
<path d="M43.0109 21.3349L41.6432 25.2461L43.5275 25.9055L44.8951 21.9943L43.0109 21.3349Z" fill="#333333"/>
<path d="M61.6285 23.4675L60.2609 27.3787L62.1451 28.0381L63.5128 24.1269L61.6285 23.4675Z" fill="#333333"/>
<path d="M63.8029 22.5567L62.5439 26.1569L64.4282 26.8163L65.6871 23.2161L63.8029 22.5567Z" fill="#333333"/>
<path d="M58.806 23.8274L57.4383 27.7386L59.3225 28.3979L60.6902 24.4867L58.806 23.8274Z" fill="#333333"/>
<path d="M55.5842 24.3853L54.2166 28.2965L56.1008 28.9558L57.4684 25.0446L55.5842 24.3853Z" fill="#333333"/>
<path d="M52.7716 23.7438L51.4039 27.655L53.2881 28.3143L54.6558 24.4031L52.7716 23.7438Z" fill="#333333"/>
<path d="M49.5614 23.2906L48.1938 27.2018L50.078 27.8611L51.4456 23.9499L49.5614 23.2906Z" fill="#333333"/>
<path d="M46.0536 22.7311L44.686 26.6423L46.5702 27.3016L47.9379 23.3904L46.0536 22.7311Z" fill="#333333"/>
<path d="M63.4338 17.0087C63.4138 16.9488 61.0783 10.5287 50.6333 6.87437C45.1537 4.95734 40.9168 5.02224 38.3268 5.41663C35.5271 5.84097 33.995 6.72959 33.9801 6.73458L32.957 5.01724C33.2365 4.8525 39.8788 0.993473 51.292 4.98729C62.7252 8.9861 65.2254 16.0701 65.3252 16.3697L63.4338 17.0087Z" fill="#333333"/>
</g>
<g clip-path="url(#clip1_2_1524)">
<path d="M169.79 265.98C169.79 265.98 165.41 273.03 179.75 274.57C194.1 276.11 190.69 267.23 190.69 267.23C190.69 267.23 183.98 270.6 169.79 265.97V265.98Z" fill="#F7F7F7"/>
<path d="M182.82 276.75C181.8 276.75 180.71 276.69 179.54 276.56C173.2 275.88 169.24 274 167.77 270.99C166.57 268.54 167.41 266.02 168.09 264.93C168.58 264.15 169.54 263.8 170.41 264.08C183.46 268.33 189.75 265.47 189.82 265.44C190.32 265.2 190.91 265.18 191.43 265.39C191.95 265.6 192.36 266.01 192.56 266.52C193.12 267.98 193.56 271.09 191.69 273.52C190.04 275.67 187.06 276.75 182.82 276.75V276.75ZM171.16 268.5C171.18 268.75 171.24 269.01 171.37 269.27C171.76 270.03 173.37 271.88 179.96 272.59C185.9 273.23 187.87 271.92 188.51 271.09C188.8 270.71 188.94 270.28 189 269.86C185.9 270.55 179.99 271.06 171.15 268.51L171.16 268.5Z" fill="#333333"/>
<path d="M169.79 260.66C169.79 260.66 165.41 267.71 179.75 269.25C194.1 270.79 190.69 261.91 190.69 261.91C190.69 261.91 183.98 265.28 169.79 260.65V260.66Z" fill="#F7F7F7"/>
<path d="M182.82 271.43C181.8 271.43 180.71 271.37 179.54 271.24C173.2 270.56 169.24 268.68 167.77 265.67C166.57 263.22 167.41 260.7 168.09 259.61C168.58 258.83 169.54 258.48 170.41 258.76C183.46 263.02 189.75 260.15 189.82 260.12C190.32 259.88 190.91 259.86 191.43 260.07C191.95 260.28 192.36 260.69 192.56 261.2C193.12 262.66 193.56 265.77 191.69 268.2C190.04 270.35 187.06 271.43 182.82 271.43V271.43ZM171.16 263.18C171.18 263.43 171.24 263.69 171.37 263.95C171.76 264.71 173.37 266.56 179.96 267.27C185.9 267.91 187.87 266.6 188.51 265.77C188.8 265.39 188.94 264.96 189 264.54C185.9 265.23 179.99 265.74 171.15 263.19L171.16 263.18Z" fill="#333333"/>
<path d="M169.79 255.34C169.79 255.34 165.41 262.39 179.75 263.93C194.1 265.47 190.69 256.59 190.69 256.59C190.69 256.59 183.98 259.96 169.79 255.33V255.34Z" fill="#F7F7F7"/>
<path d="M182.82 266.11C181.8 266.11 180.71 266.05 179.54 265.92C173.2 265.24 169.24 263.36 167.77 260.35C166.57 257.9 167.41 255.38 168.09 254.29C168.58 253.51 169.54 253.16 170.41 253.44C183.46 257.69 189.75 254.83 189.82 254.8C190.32 254.56 190.91 254.54 191.43 254.75C191.95 254.96 192.36 255.37 192.56 255.88C193.12 257.34 193.56 260.45 191.69 262.88C190.04 265.03 187.06 266.11 182.82 266.11V266.11ZM171.17 257.86C171.19 258.11 171.25 258.37 171.38 258.63C171.77 259.39 173.38 261.24 179.97 261.95C185.89 262.58 187.86 261.29 188.51 260.46C188.81 260.08 188.96 259.64 189.02 259.21C185.92 259.9 180.01 260.41 171.17 257.86V257.86Z" fill="#333333"/>
<path d="M169.79 250.02C169.79 250.02 165.41 257.07 179.75 258.61C194.1 260.15 190.69 251.27 190.69 251.27C190.69 251.27 183.98 254.64 169.79 250.01V250.02Z" fill="#F7F7F7"/>
<path d="M182.82 260.79C181.8 260.79 180.71 260.73 179.54 260.6C173.2 259.92 169.24 258.04 167.77 255.03C166.57 252.58 167.41 250.06 168.09 248.97C168.58 248.19 169.54 247.84 170.41 248.12C183.46 252.37 189.75 249.51 189.82 249.48C190.32 249.24 190.91 249.22 191.43 249.43C191.95 249.64 192.36 250.05 192.56 250.56C193.12 252.02 193.56 255.13 191.69 257.56C190.04 259.71 187.06 260.79 182.82 260.79V260.79ZM171.16 252.54C171.18 252.79 171.24 253.05 171.37 253.31C171.76 254.07 173.37 255.92 179.96 256.63C185.9 257.27 187.87 255.96 188.51 255.13C188.8 254.75 188.94 254.32 189 253.9C185.9 254.59 179.99 255.1 171.15 252.55L171.16 252.54Z" fill="#333333"/>
<path d="M169.79 244.71C169.79 244.71 165.41 251.76 179.75 253.3C194.1 254.84 190.69 245.96 190.69 245.96C190.69 245.96 183.98 249.33 169.79 244.7V244.71Z" fill="#F7F7F7"/>
<path d="M182.82 255.48C181.8 255.48 180.71 255.42 179.54 255.29C173.2 254.61 169.24 252.73 167.77 249.72C166.57 247.27 167.41 244.75 168.09 243.66C168.58 242.88 169.54 242.53 170.41 242.81C183.46 247.07 189.75 244.2 189.82 244.17C190.32 243.93 190.91 243.91 191.43 244.12C191.95 244.33 192.36 244.74 192.56 245.25C193.12 246.71 193.56 249.82 191.69 252.25C190.04 254.4 187.06 255.48 182.82 255.48V255.48ZM171.16 247.23C171.18 247.48 171.24 247.74 171.37 248C171.76 248.76 173.37 250.61 179.96 251.32C185.9 251.96 187.87 250.65 188.51 249.82C188.8 249.44 188.94 249.01 189 248.59C185.9 249.28 179.99 249.79 171.15 247.24L171.16 247.23Z" fill="#333333"/>
<path d="M169.79 239.39C169.79 239.39 165.41 246.44 179.75 247.98C194.1 249.52 190.69 240.64 190.69 240.64C190.69 240.64 183.98 244.01 169.79 239.38V239.39Z" fill="#F7F7F7"/>
<path d="M182.83 250.16C181.81 250.16 180.71 250.1 179.55 249.97C173.21 249.29 169.25 247.41 167.78 244.4C166.58 241.95 167.42 239.43 168.1 238.34C168.59 237.56 169.55 237.21 170.42 237.49C183.46 241.74 189.76 238.88 189.83 238.85C190.33 238.61 190.92 238.59 191.44 238.8C191.96 239.01 192.37 239.42 192.57 239.93C193.13 241.39 193.57 244.5 191.7 246.93C190.05 249.08 187.07 250.16 182.83 250.16V250.16ZM171.17 241.91C171.19 242.16 171.25 242.42 171.38 242.68C171.77 243.44 173.38 245.29 179.97 246C185.89 246.63 187.86 245.34 188.51 244.51C188.81 244.13 188.96 243.69 189.02 243.26C185.92 243.95 180.01 244.46 171.17 241.91V241.91Z" fill="#333333"/>
<path d="M169.79 234.07C169.79 234.07 165.41 241.12 179.75 242.66C194.1 244.2 190.69 235.32 190.69 235.32C190.69 235.32 183.98 238.69 169.79 234.06V234.07Z" fill="#F7F7F7"/>
<path d="M182.82 244.84C181.8 244.84 180.71 244.78 179.54 244.65C173.2 243.97 169.24 242.09 167.77 239.08C166.57 236.63 167.41 234.11 168.09 233.02C168.58 232.24 169.54 231.89 170.41 232.17C183.46 236.42 189.75 233.56 189.82 233.53C190.32 233.29 190.91 233.27 191.43 233.48C191.95 233.69 192.36 234.1 192.56 234.61C193.12 236.07 193.56 239.18 191.69 241.61C190.04 243.76 187.06 244.84 182.82 244.84V244.84ZM171.17 236.59C171.19 236.84 171.25 237.1 171.38 237.36C171.77 238.12 173.38 239.97 179.97 240.68C185.88 241.31 187.86 240.02 188.51 239.19C188.81 238.81 188.96 238.37 189.02 237.94C185.92 238.63 180.01 239.14 171.17 236.59V236.59Z" fill="#333333"/>
<path d="M168.91 228.75C168.91 228.75 164.53 235.8 178.87 237.34C193.22 238.88 189.81 230 189.81 230C189.81 230 183.1 233.37 168.91 228.74V228.75Z" fill="#F7F7F7"/>
<path d="M181.94 239.52C180.92 239.52 179.83 239.46 178.66 239.33C172.32 238.65 168.36 236.77 166.89 233.76C165.69 231.31 166.53 228.79 167.21 227.69C167.7 226.91 168.66 226.56 169.53 226.84C182.57 231.09 188.85 228.24 188.91 228.21C189.42 227.96 190 227.93 190.53 228.13C191.06 228.33 191.47 228.75 191.67 229.28C192.23 230.74 192.67 233.85 190.8 236.28C189.15 238.43 186.17 239.51 181.93 239.51L181.94 239.52ZM170.28 231.26C170.3 231.51 170.36 231.77 170.49 232.03C170.88 232.79 172.49 234.64 179.08 235.35C185.02 235.99 186.99 234.68 187.63 233.85C187.92 233.47 188.06 233.04 188.12 232.62C185.02 233.31 179.11 233.82 170.27 231.27L170.28 231.26Z" fill="#333333"/>
<path d="M168.91 222.55C168.91 222.55 164.53 229.6 178.87 231.14C193.22 232.68 189.81 223.8 189.81 223.8C189.81 223.8 183.1 227.17 168.91 222.54V222.55Z" fill="#F7F7F7"/>
<path d="M181.94 233.32C180.92 233.32 179.83 233.26 178.66 233.13C172.32 232.45 168.36 230.57 166.89 227.56C165.69 225.11 166.53 222.59 167.21 221.49C167.7 220.71 168.66 220.36 169.53 220.64C182.57 224.89 188.87 222.03 188.93 222C189.43 221.76 190.02 221.74 190.54 221.95C191.06 222.16 191.47 222.57 191.67 223.08C192.23 224.54 192.67 227.65 190.8 230.08C189.15 232.23 186.17 233.31 181.93 233.31L181.94 233.32ZM170.29 225.06C170.31 225.31 170.37 225.57 170.5 225.83C170.89 226.59 172.5 228.44 179.09 229.15C185.01 229.78 186.98 228.49 187.63 227.66C187.93 227.28 188.08 226.84 188.14 226.41C185.04 227.1 179.13 227.61 170.29 225.06Z" fill="#333333"/>
<path d="M164.88 208.42C164.88 208.42 160.79 213.37 172.32 217.8C183.85 222.23 192.49 220.6 192.6 215.65L164.88 208.42V208.42Z" fill="#F7F7F7"/>
<path d="M184.46 222.37C180.73 222.37 176.27 221.46 171.6 219.66C166.26 217.61 163.16 215.05 162.37 212.05C161.65 209.29 163.16 207.35 163.34 207.14C163.84 206.54 164.63 206.28 165.39 206.48L193.11 213.71C194.01 213.94 194.62 214.76 194.61 215.69C194.57 217.66 193.58 219.39 191.83 220.57C190.03 221.78 187.49 222.37 184.47 222.37H184.46ZM166.19 210.83C166.2 210.92 166.22 211.01 166.25 211.1C166.47 211.85 167.58 213.83 173.03 215.93C181.16 219.06 187.21 218.85 189.58 217.25C189.7 217.17 189.8 217.09 189.89 217.01L166.18 210.83H166.19Z" fill="#333333"/>
<path d="M169.26 216.43C169.26 216.43 164.34 223.12 178.52 225.78C192.7 228.44 190 219.32 190 219.32C190 219.32 183.04 222.16 169.26 216.43V216.43Z" fill="#F7F7F7"/>
<path d="M183.13 228.25C181.64 228.25 179.99 228.08 178.16 227.74C171.89 226.57 168.09 224.39 166.86 221.26C165.86 218.72 166.89 216.28 167.65 215.24C168.19 214.5 169.18 214.23 170.03 214.58C182.7 219.84 189.2 217.48 189.27 217.45C189.79 217.25 190.38 217.28 190.88 217.52C191.38 217.77 191.76 218.21 191.92 218.74C192.36 220.24 192.56 223.37 190.51 225.65C188.95 227.38 186.48 228.25 183.13 228.25V228.25ZM170.44 219.04C170.44 219.29 170.48 219.55 170.59 219.82C170.92 220.61 172.38 222.58 178.89 223.8C184.74 224.9 186.81 223.76 187.52 222.99C187.85 222.63 188.03 222.2 188.12 221.78C184.98 222.23 179.04 222.27 170.43 219.04H170.44Z" fill="#333333"/>
<path d="M187.74 274.75C187.74 274.75 188.27 286.04 181.18 289.59C174.09 293.14 145.73 302 145.73 302C145.73 302 140.41 301.11 142.18 298.45C143.95 295.79 159.91 290.47 159.91 290.47C159.91 290.47 160.8 285.15 154.59 285.15C148.38 285.15 133.32 291.35 133.32 291.35C133.32 291.35 128 286.92 135.98 284.26C143.96 281.6 151.05 279.83 151.05 279.83C151.05 279.83 149.28 274.51 143.07 274.51C136.86 274.51 127.12 273.62 127.12 273.62C127.12 273.62 125.35 266.53 135.98 268.3C146.62 270.07 168.77 269.19 168.77 269.19C168.77 269.19 170.37 277.62 187.74 274.74V274.75Z" fill="#F7F7F7"/>
<path d="M145.73 304C145.62 304 145.51 304 145.4 303.97C144.41 303.8 141.09 303.09 140.1 300.8C139.82 300.16 139.51 298.86 140.52 297.34C142.3 294.67 152.36 290.94 157.88 289.05C157.81 288.71 157.66 288.34 157.4 288.04C156.89 287.45 155.94 287.15 154.59 287.15C149.83 287.15 138.17 291.52 134.08 293.2C133.39 293.48 132.61 293.36 132.04 292.89C131.74 292.64 129.09 290.34 129.66 287.33C130.07 285.16 131.98 283.49 135.34 282.36C140.41 280.67 145.17 279.32 147.97 278.57C147.06 277.55 145.52 276.51 143.06 276.51C136.84 276.51 127.33 275.65 126.92 275.62C126.07 275.54 125.37 274.94 125.16 274.11C125.07 273.76 124.37 270.65 126.57 268.26C128.45 266.22 131.73 265.57 136.29 266.33C146.6 268.05 168.46 267.2 168.67 267.19C169.65 267.15 170.53 267.84 170.71 268.81C171.24 271.02 175.43 274.75 187.39 272.76C187.96 272.67 188.53 272.82 188.97 273.18C189.41 273.54 189.68 274.07 189.71 274.64C189.73 275.15 190.2 287.28 182.04 291.36C174.89 294.94 147.45 303.53 146.29 303.89C146.1 303.95 145.89 303.98 145.69 303.98L145.73 304ZM144.05 299.37C144.43 299.58 145.03 299.8 145.63 299.94C149.42 298.75 173.93 290.99 180.29 287.81C184.4 285.76 185.43 280.21 185.68 277.07C173.13 278.55 168.85 273.9 167.45 271.26C162.35 271.42 144.93 271.84 135.65 270.3C132.63 269.8 130.4 270.05 129.53 271C129.31 271.24 129.18 271.52 129.1 271.81C132.19 272.06 138.61 272.54 143.07 272.54C149.12 272.54 152.17 276.91 152.94 279.23C153.12 279.76 153.06 280.34 152.8 280.83C152.53 281.32 152.07 281.67 151.53 281.81C151.46 281.83 144.41 283.6 136.61 286.2C134.52 286.9 133.68 287.66 133.59 288.11C133.54 288.35 133.68 288.69 133.88 289.01C137.77 287.47 149.12 283.19 154.59 283.19C157.19 283.19 159.16 283.97 160.47 285.51C162.34 287.72 161.94 290.53 161.89 290.84C161.77 291.57 161.25 292.17 160.55 292.41C153.7 294.69 145.75 297.94 144.06 299.4L144.05 299.37Z" fill="#333333"/>
<path d="M221.87 295.36C221.87 295.36 216.93 303.32 233.11 305.06C249.3 306.8 245.45 296.78 245.45 296.78C245.45 296.78 237.87 300.58 221.87 295.36Z" fill="#F7F7F7"/>
<path d="M236.58 307.25C235.44 307.25 234.21 307.18 232.9 307.04C225.84 306.28 221.44 304.21 219.82 300.89C218.52 298.22 219.43 295.49 220.17 294.3C220.66 293.52 221.62 293.17 222.49 293.45C237.33 298.29 244.5 295.01 244.57 294.97C245.07 294.73 245.66 294.71 246.18 294.91C246.7 295.11 247.12 295.53 247.32 296.05C247.39 296.23 248.94 300.38 246.38 303.7C244.57 306.06 241.28 307.24 236.58 307.24V307.25ZM223.16 297.85C223.14 298.26 223.2 298.72 223.43 299.17C223.99 300.29 226.03 302.28 233.33 303.06C238.38 303.6 241.88 302.97 243.2 301.28C243.66 300.7 243.82 300.01 243.85 299.39C240.46 300.21 233.63 300.93 223.17 297.85H223.16Z" fill="#333333"/>
<path d="M221.87 289.36C221.87 289.36 216.93 297.32 233.11 299.06C249.3 300.8 245.45 290.78 245.45 290.78C245.45 290.78 237.87 294.58 221.87 289.36Z" fill="#F7F7F7"/>
<path d="M236.58 301.25C235.44 301.25 234.21 301.18 232.9 301.04C225.84 300.28 221.44 298.21 219.82 294.89C218.52 292.22 219.43 289.49 220.17 288.3C220.66 287.52 221.62 287.17 222.49 287.45C237.33 292.29 244.5 289.01 244.57 288.97C245.07 288.73 245.66 288.71 246.18 288.91C246.7 289.11 247.12 289.53 247.32 290.05C247.39 290.23 248.94 294.38 246.38 297.7C244.57 300.06 241.28 301.24 236.58 301.24V301.25ZM223.16 291.85C223.14 292.26 223.2 292.72 223.43 293.17C223.99 294.29 226.03 296.28 233.33 297.06C238.38 297.6 241.88 296.97 243.2 295.28C243.66 294.7 243.82 294.01 243.85 293.39C240.46 294.21 233.63 294.93 223.17 291.85H223.16Z" fill="#333333"/>
<path d="M221.87 283.36C221.87 283.36 216.93 291.32 233.11 293.06C249.3 294.8 245.45 284.78 245.45 284.78C245.45 284.78 237.87 288.58 221.87 283.36Z" fill="#F7F7F7"/>
<path d="M236.58 295.25C235.44 295.25 234.21 295.18 232.9 295.04C225.84 294.28 221.44 292.21 219.82 288.89C218.52 286.22 219.43 283.49 220.17 282.3C220.66 281.52 221.62 281.17 222.49 281.45C237.33 286.29 244.5 283.01 244.57 282.97C245.07 282.73 245.66 282.71 246.18 282.91C246.7 283.11 247.12 283.53 247.32 284.05C247.39 284.23 248.94 288.38 246.38 291.7C244.57 294.06 241.28 295.24 236.58 295.24V295.25ZM223.16 285.85C223.14 286.26 223.2 286.72 223.43 287.17C223.99 288.29 226.03 290.28 233.33 291.06C238.38 291.6 241.88 290.97 243.2 289.28C243.66 288.7 243.82 288.01 243.85 287.39C240.46 288.21 233.63 288.93 223.17 285.85H223.16Z" fill="#333333"/>
<path d="M221.87 277.36C221.87 277.36 216.93 285.32 233.11 287.06C249.3 288.8 245.45 278.78 245.45 278.78C245.45 278.78 237.87 282.58 221.87 277.36Z" fill="#F7F7F7"/>
<path d="M236.58 289.25C235.44 289.25 234.21 289.18 232.9 289.04C225.84 288.28 221.44 286.21 219.82 282.89C218.52 280.22 219.43 277.49 220.17 276.3C220.66 275.52 221.62 275.17 222.49 275.45C237.33 280.29 244.5 277.01 244.57 276.97C245.07 276.73 245.66 276.71 246.18 276.91C246.7 277.12 247.12 277.53 247.32 278.05C247.39 278.23 248.94 282.38 246.38 285.7C244.57 288.06 241.28 289.24 236.58 289.24V289.25ZM223.16 279.85C223.14 280.26 223.2 280.72 223.43 281.17C223.99 282.29 226.03 284.28 233.33 285.06C238.38 285.6 241.88 284.97 243.2 283.28C243.66 282.7 243.82 282.01 243.85 281.39C240.46 282.21 233.63 282.93 223.17 279.85H223.16Z" fill="#333333"/>
<path d="M221.87 271.36C221.87 271.36 216.93 279.32 233.11 281.06C249.3 282.8 245.45 272.78 245.45 272.78C245.45 272.78 237.87 276.58 221.87 271.36Z" fill="#F7F7F7"/>
<path d="M236.58 283.25C235.44 283.25 234.21 283.18 232.9 283.04C225.84 282.28 221.44 280.21 219.82 276.89C218.52 274.22 219.43 271.49 220.17 270.3C220.66 269.52 221.62 269.17 222.49 269.45C237.33 274.29 244.5 271.01 244.57 270.97C245.07 270.73 245.66 270.71 246.18 270.91C246.7 271.11 247.12 271.53 247.32 272.05C247.39 272.23 248.94 276.38 246.38 279.7C244.57 282.06 241.28 283.24 236.58 283.24V283.25ZM223.16 273.85C223.14 274.26 223.2 274.72 223.43 275.17C223.99 276.29 226.03 278.28 233.33 279.06C238.38 279.6 241.88 278.97 243.2 277.28C243.66 276.7 243.82 276.01 243.85 275.39C240.46 276.21 233.63 276.93 223.17 273.85H223.16Z" fill="#333333"/>
<path d="M221.87 265.36C221.87 265.36 216.93 273.32 233.11 275.06C249.3 276.8 245.45 266.78 245.45 266.78C245.45 266.78 237.87 270.58 221.87 265.36Z" fill="#F7F7F7"/>
<path d="M236.58 277.25C235.44 277.25 234.21 277.18 232.9 277.04C225.84 276.28 221.44 274.21 219.82 270.89C218.52 268.22 219.43 265.49 220.17 264.3C220.66 263.52 221.62 263.17 222.49 263.45C237.33 268.29 244.5 265.01 244.57 264.97C245.07 264.73 245.66 264.71 246.18 264.91C246.7 265.12 247.12 265.53 247.32 266.05C247.39 266.23 248.94 270.38 246.38 273.7C244.57 276.06 241.28 277.24 236.58 277.24V277.25ZM223.16 267.85C223.14 268.26 223.2 268.72 223.43 269.17C223.99 270.29 226.03 272.28 233.33 273.06C238.38 273.6 241.88 272.97 243.2 271.28C243.66 270.7 243.82 270.01 243.85 269.39C240.46 270.21 233.63 270.93 223.17 267.85H223.16Z" fill="#333333"/>
<path d="M221.87 259.36C221.87 259.36 216.93 267.32 233.11 269.06C249.3 270.8 245.45 260.78 245.45 260.78C245.45 260.78 237.87 264.58 221.87 259.36Z" fill="#F7F7F7"/>
<path d="M236.58 271.25C235.44 271.25 234.21 271.18 232.9 271.04C225.84 270.28 221.44 268.21 219.82 264.89C218.52 262.22 219.43 259.49 220.17 258.3C220.66 257.52 221.62 257.17 222.49 257.45C237.33 262.29 244.5 259.01 244.57 258.97C245.07 258.73 245.66 258.71 246.18 258.91C246.7 259.11 247.12 259.53 247.32 260.05C247.39 260.23 248.94 264.38 246.38 267.7C244.57 270.06 241.28 271.24 236.58 271.24V271.25ZM223.16 261.85C223.14 262.26 223.2 262.72 223.43 263.17C223.99 264.29 226.03 266.28 233.33 267.06C238.38 267.6 241.88 266.97 243.2 265.28C243.66 264.7 243.82 264.01 243.85 263.39C240.46 264.21 233.63 264.93 223.17 261.85H223.16Z" fill="#333333"/>
<path d="M220.87 253.36C220.87 253.36 215.93 261.32 232.11 263.06C248.3 264.8 244.45 254.78 244.45 254.78C244.45 254.78 236.87 258.58 220.87 253.36Z" fill="#F7F7F7"/>
<path d="M235.58 265.25C234.44 265.25 233.21 265.18 231.9 265.04C224.84 264.28 220.44 262.21 218.82 258.89C217.52 256.22 218.43 253.49 219.17 252.3C219.66 251.52 220.62 251.17 221.49 251.45C236.33 256.29 243.5 253.01 243.57 252.97C244.07 252.73 244.66 252.71 245.18 252.91C245.7 253.12 246.12 253.53 246.32 254.05C246.39 254.23 247.94 258.38 245.38 261.7C243.57 264.06 240.28 265.24 235.58 265.24V265.25ZM222.16 255.85C222.14 256.26 222.2 256.72 222.43 257.17C222.99 258.29 225.03 260.28 232.33 261.06C237.38 261.6 240.88 260.97 242.2 259.28C242.66 258.7 242.82 258.01 242.85 257.39C239.46 258.21 232.63 258.93 222.17 255.85H222.16Z" fill="#333333"/>
<path d="M220.87 246.36C220.87 246.36 215.93 254.32 232.11 256.06C248.3 257.8 244.45 247.78 244.45 247.78C244.45 247.78 236.87 251.58 220.87 246.36Z" fill="#F7F7F7"/>
<path d="M235.58 258.25C234.44 258.25 233.21 258.18 231.9 258.04C224.84 257.28 220.44 255.21 218.82 251.89C217.52 249.22 218.43 246.49 219.17 245.3C219.66 244.52 220.62 244.17 221.49 244.45C236.33 249.29 243.5 246.01 243.57 245.97C244.07 245.73 244.66 245.71 245.18 245.91C245.7 246.12 246.12 246.53 246.32 247.05C246.39 247.23 247.94 251.38 245.38 254.7C243.57 257.06 240.28 258.24 235.58 258.24V258.25ZM222.16 248.85C222.14 249.26 222.2 249.72 222.43 250.17C222.99 251.29 225.03 253.28 232.33 254.06C237.38 254.6 240.88 253.97 242.2 252.28C242.66 251.7 242.82 251.01 242.85 250.39C239.46 251.21 232.63 251.93 222.17 248.85H222.16Z" fill="#333333"/>
<path d="M216.33 230.42C216.33 230.42 211.72 236 224.72 241C237.72 246 247.48 244.15 247.6 238.58L216.33 230.42V230.42Z" fill="#F7F7F7"/>
<path d="M238.42 245.91C234.25 245.91 229.25 244.89 224 242.87C218.06 240.58 214.61 237.76 213.74 234.46C212.96 231.47 214.59 229.38 214.78 229.15C215.28 228.55 216.07 228.29 216.83 228.49L248.1 236.65C249 236.88 249.61 237.7 249.6 238.63C249.55 240.77 248.48 242.65 246.58 243.93C244.59 245.26 241.78 245.92 238.42 245.92V245.91ZM217.53 232.8C217.53 233.01 217.55 233.25 217.62 233.51C217.94 234.61 219.38 236.81 225.43 239.14C234.69 242.7 241.6 242.44 244.34 240.6C244.64 240.4 244.87 240.19 245.05 239.99L217.53 232.81V232.8Z" fill="#333333"/>
<path d="M221.27 239.45C221.27 239.45 215.72 247 231.72 250C247.72 253 244.67 242.71 244.67 242.71C244.67 242.71 236.82 245.91 221.27 239.45V239.45Z" fill="#F7F7F7"/>
<path d="M236.92 252.54C235.26 252.54 233.4 252.35 231.35 251.96C224.37 250.65 220.15 248.25 218.79 244.81C217.7 242.05 218.82 239.4 219.65 238.26C220.19 237.52 221.18 237.25 222.03 237.6C236.45 243.59 243.85 240.87 243.93 240.84C244.45 240.64 245.04 240.66 245.54 240.91C246.04 241.16 246.42 241.6 246.58 242.13C246.63 242.31 247.85 246.57 245.04 249.68C243.33 251.57 240.61 252.53 236.91 252.53L236.92 252.54ZM222.36 242.04C222.31 242.45 222.33 242.91 222.52 243.38C222.99 244.54 224.87 246.68 232.08 248.03C237.07 248.96 240.61 248.61 242.05 247.03C242.55 246.49 242.77 245.82 242.85 245.19C239.41 245.74 232.54 245.93 222.35 242.04H222.36Z" fill="#333333"/>
<path d="M243.72 304C243.72 304 247.65 317.21 241.09 323.28C234.53 329.36 206.6 347.91 206.6 347.91C206.6 347.91 200.56 348.63 201.64 345.19C202.72 341.75 218.33 330.96 218.33 330.96C218.33 330.96 217.61 324.92 210.89 326.88C204.17 328.84 189.8 340.31 189.8 340.31C189.8 340.31 182.64 337.19 190.44 331.79C198.24 326.39 205.36 322.24 205.36 322.24C205.36 322.24 201.76 317.04 195.04 319C188.32 320.96 177.48 323.07 177.48 323.07C177.48 323.07 173.32 315.95 185.4 314.51C197.48 313.07 222.7 302.01 222.7 302.01C222.7 302.01 228.7 309.01 243.7 304.01L243.72 304Z" fill="#F7F7F7"/>
<path d="M205.33 349.98C203.75 349.98 201.53 349.69 200.32 348.23C199.85 347.66 199.15 346.44 199.73 344.59C200.81 341.17 210.68 333.87 216 330.14C215.79 329.7 215.47 329.22 214.98 328.9C214.18 328.38 212.98 328.34 211.44 328.79C206.24 330.3 194.95 338.74 191.04 341.86C190.46 342.32 189.67 342.43 188.99 342.13C188.6 341.96 185.13 340.36 184.81 337.07C184.58 334.69 186.09 332.35 189.29 330.13C194.45 326.56 199.35 323.51 202.09 321.84C200.74 320.9 198.55 320.03 195.59 320.9C188.86 322.86 178.3 324.93 177.85 325.02C177.01 325.18 176.17 324.8 175.74 324.06C175.03 322.84 174.16 320.09 175.43 317.53C176.79 314.81 180.06 313.12 185.15 312.51C196.8 311.13 221.64 300.27 221.89 300.16C222.69 299.8 223.64 300.02 224.21 300.69C224.41 300.91 229.69 306.55 243.06 302.09C243.57 301.92 244.14 301.96 244.62 302.21C245.1 302.46 245.46 302.89 245.61 303.41C245.78 304 249.81 317.89 242.42 324.73C235.81 330.85 208.82 348.79 207.68 349.56C207.42 349.73 207.12 349.84 206.81 349.88C206.49 349.92 205.95 349.97 205.3 349.97L205.33 349.98ZM203.57 345.74C204.04 345.91 205.02 346.01 205.92 345.95C209.45 343.6 233.8 327.3 239.73 321.8C243.92 317.92 242.99 310.16 242.26 306.52C230.99 309.65 224.72 306.21 222.33 304.33C217.12 306.56 196.51 315.18 185.64 316.47C182.09 316.89 179.75 317.89 179.04 319.28C178.79 319.76 178.76 320.28 178.81 320.74C182.12 320.06 189.5 318.5 194.48 317.05C200.89 315.18 205.48 318.87 207 321.08C207.32 321.54 207.43 322.11 207.31 322.65C207.19 323.19 206.85 323.66 206.37 323.94C206.3 323.98 199.22 328.13 191.58 333.41C189.45 334.88 188.75 336.06 188.8 336.66C188.84 337.08 189.22 337.51 189.65 337.85C193.21 335.09 204.35 326.67 210.32 324.93C213.06 324.13 215.37 324.34 217.2 325.55C219.83 327.29 220.26 330.35 220.3 330.69C220.39 331.43 220.06 332.15 219.45 332.57C212.39 337.46 204.36 343.83 203.55 345.72L203.57 345.74Z" fill="#333333"/>
<path d="M149.72 133L154.72 216L246.72 240V150L149.72 133Z" fill="#F7F7F7"/>
<path d="M246.72 242C246.55 242 246.38 241.98 246.22 241.94L154.21 217.94C153.37 217.72 152.77 216.99 152.72 216.12L147.72 133.12C147.68 132.51 147.93 131.91 148.38 131.51C148.84 131.1 149.45 130.92 150.06 131.03L247.06 148.03C248.02 148.2 248.71 149.03 248.71 150V240C248.71 240.62 248.42 241.2 247.93 241.58C247.58 241.85 247.14 242 246.71 242H246.72ZM156.63 214.43L244.72 237.41V151.68L151.87 135.41L156.63 214.43V214.43Z" fill="#333333"/>
<path d="M246.72 150L291.72 123L287.72 210L246.72 240V150Z" fill="#F7F7F7"/>
<path d="M246.72 242C246.41 242 246.1 241.93 245.81 241.78C245.14 241.44 244.72 240.75 244.72 240V150C244.72 149.3 245.09 148.65 245.69 148.29L290.69 121.29C291.32 120.91 292.11 120.91 292.74 121.29C293.37 121.67 293.75 122.36 293.71 123.1L289.71 210.1C289.68 210.7 289.38 211.27 288.89 211.62L247.89 241.62C247.54 241.87 247.13 242.01 246.71 242.01L246.72 242ZM248.72 151.13V236.06L285.77 208.95L289.56 126.63L248.73 151.13H248.72Z" fill="#333333"/>
<path d="M149.72 133L197.72 107L291.72 123L246.72 150L149.72 133Z" fill="#F7F7F7"/>
<path d="M246.72 152C246.6 152 246.49 152 246.37 151.97L149.37 134.97C148.53 134.82 147.88 134.16 147.74 133.32C147.6 132.48 148.01 131.65 148.76 131.24L196.76 105.24C197.15 105.03 197.61 104.95 198.05 105.03L292.05 121.03C292.87 121.17 293.52 121.81 293.68 122.63C293.83 123.45 293.46 124.28 292.74 124.71L247.74 151.71C247.43 151.9 247.07 152 246.71 152H246.72ZM155.72 132.02L246.33 147.9L286.06 124.06L198.06 109.09L155.72 132.02Z" fill="#333333"/>
<path d="M246.72 150L263.72 182L306.72 154L291.72 123L246.72 150Z" fill="#F7F7F7"/>
<path d="M263.72 184C263.55 184 263.39 183.98 263.22 183.94C262.68 183.8 262.22 183.44 261.95 182.94L244.95 150.94C244.45 150 244.78 148.83 245.69 148.29L290.69 121.29C291.17 121 291.75 120.93 292.29 121.09C292.83 121.25 293.27 121.63 293.52 122.14L308.52 153.14C308.96 154.05 308.65 155.14 307.81 155.69L264.81 183.69C264.48 183.9 264.1 184.01 263.72 184.01V184ZM249.38 150.74L264.46 179.13L304.15 153.28L290.87 125.84L249.37 150.74H249.38Z" fill="#333333"/>
<path d="M246.72 240L260.72 200L302.72 169L287.72 210L246.72 240Z" fill="#F7F7F7"/>
<path d="M246.72 242C246.3 242 245.88 241.87 245.53 241.61C244.83 241.09 244.54 240.17 244.83 239.34L258.83 199.34C258.96 198.96 259.21 198.63 259.53 198.39L301.53 167.39C302.24 166.87 303.21 166.87 303.92 167.39C304.63 167.92 304.9 168.85 304.6 169.68L289.6 210.68C289.46 211.05 289.22 211.37 288.9 211.61L247.9 241.61C247.55 241.87 247.13 242 246.72 242V242ZM262.4 201.24L250.73 234.58L286.05 208.74L298.56 174.55L262.41 201.23L262.4 201.24Z" fill="#333333"/>
<path d="M270.74 177.43L270.08 193.09L278.68 186.74L279.09 171.99L270.74 177.43Z" fill="#333333"/>
<path d="M189.72 214C204.079 214 215.72 201.24 215.72 185.5C215.72 169.76 204.079 157 189.72 157C175.361 157 163.72 169.76 163.72 185.5C163.72 201.24 175.361 214 189.72 214Z" fill="#F7F7F7"/>
<path d="M189.72 216C174.28 216 161.72 202.32 161.72 185.5C161.72 168.68 174.28 155 189.72 155C205.16 155 217.72 168.68 217.72 185.5C217.72 202.32 205.16 216 189.72 216ZM189.72 159C176.49 159 165.72 170.89 165.72 185.5C165.72 200.11 176.49 212 189.72 212C202.95 212 213.72 200.11 213.72 185.5C213.72 170.89 202.95 159 189.72 159Z" fill="#333333"/>
<path d="M183.55 202.52C191.74 202.52 198.38 195.24 198.38 186.26C198.38 177.28 191.74 170 183.55 170C175.36 170 168.72 177.28 168.72 186.26C168.72 195.24 175.36 202.52 183.55 202.52Z" fill="#333333"/>
<path d="M191.09 187.34C191.07 186.38 190.64 177.99 181.78 177.64L181.93 173.64C192.19 174.04 195.02 182.73 195.08 187.27L191.08 187.33L191.09 187.34Z" fill="#F7F7F7"/>
<path d="M187.48 157C187.48 157 222.72 152 223.72 183C224.72 214 192.6 214 192.6 214C192.6 214 218.72 209 216.72 183C214.72 157 187.48 157 187.48 157V157Z" fill="#333333"/>
<path d="M238.72 159H234.72V210H238.72V159Z" fill="#333333"/>
<path d="M238.72 216H234.72V227H238.72V216Z" fill="#333333"/>
</g>
<defs>
<clipPath id="clip0_2_1524">
<rect width="369" height="281" fill="white"/>
</clipPath>
<clipPath id="clip1_2_1524">
<rect width="183.72" height="244.98" fill="white" transform="translate(125 105)"/>
</clipPath>
</defs>
</svg>
