<svg width="40" height="40" viewBox="0 0 40 40" fill="none" xmlns="http://www.w3.org/2000/svg">
<g clip-path="url(#clip0_500_4089)">
<path d="M36 10.3791C35.9381 10.9365 35.7827 11.4607 35.6652 11.9923C35.2231 14.0113 34.7974 16.0341 34.3312 18.0469C34.1948 18.6328 34.1443 19.2458 33.86 19.7983C33.7653 19.9821 33.8133 20.1819 33.8752 20.3706C34.2504 21.5263 34.6243 22.6819 35.0007 23.8364C35.2433 24.5801 35.4896 25.3226 35.7397 26.0638C35.8016 26.2476 35.7953 26.4228 35.7397 26.6078C35.189 28.4517 34.6407 30.2968 34.0937 32.1419C33.9346 32.6784 33.5417 32.9017 32.9796 32.75C31.5799 32.3725 30.1827 31.9853 28.7856 31.6029C28.3296 31.4783 27.8748 31.3501 27.4162 31.2366C27.1194 31.1626 26.8301 31.1848 26.5812 31.3908C25.5769 32.2245 24.464 32.9115 23.3991 33.6639C23.0884 33.8834 22.7725 34.0043 22.3797 33.9994C21.1063 33.9833 19.833 33.9895 18.5584 33.9957C18.2615 33.9969 17.9987 33.9204 17.7625 33.749C16.7064 32.9843 15.5784 32.317 14.5766 31.4808C14.233 31.1947 13.8932 31.1503 13.4435 31.281C11.9529 31.7189 10.4445 32.1012 8.94381 32.5057C8.64948 32.5847 8.35893 32.6735 8.0646 32.7561C7.53909 32.9029 7.1058 32.6908 6.95168 32.1752C6.39712 30.3325 5.85645 28.485 5.3082 26.6398C5.18314 26.2193 5.37515 25.8492 5.49769 25.4731C6.0472 23.7895 6.60808 22.1097 7.17148 20.431C7.26875 20.1387 7.24349 19.8797 7.10074 19.6022C6.88599 19.1853 6.85315 18.713 6.75082 18.2628C6.17857 15.7677 5.61769 13.2689 5.04292 10.7737C4.96839 10.4481 4.99239 10.1571 5.10355 9.84255C5.47495 8.79418 5.81729 7.73595 6.17352 6.68265C6.38954 6.04376 6.79756 5.86616 7.44687 6.1042C8.98424 6.66785 10.5241 7.22287 12.0615 7.78405C13.4018 8.2737 14.7408 8.76335 16.0786 9.25916C16.2795 9.33316 16.4778 9.37633 16.6926 9.37633C19.219 9.37386 21.7455 9.3714 24.272 9.37633C24.8316 9.37756 25.3066 9.11116 25.8043 8.93355C27.9481 8.16763 30.0829 7.3758 32.2203 6.59261C32.7029 6.41624 33.1842 6.2337 33.6668 6.0598C34.1329 5.89082 34.6129 6.08323 34.7708 6.54204C35.1789 7.72978 35.5641 8.92615 35.9545 10.1188C35.9835 10.2052 35.9873 10.3001 36 10.3791ZM34.9009 10.8847C34.8757 10.7996 34.8529 10.6997 34.8176 10.6035C34.4449 9.57737 34.0748 8.55121 33.6958 7.52751C33.5531 7.14146 33.3863 7.09336 33.0339 7.3314C31.6481 8.2626 30.2674 9.19996 28.8803 10.1312C26.9741 11.4114 25.0666 12.6867 23.1591 13.9645C22.7965 14.2074 22.7915 14.3949 23.1313 14.6539C24.0838 15.3804 25.03 16.1155 25.9888 16.8321C26.3033 17.0676 26.5648 17.3982 26.9589 17.5042C28.7628 17.9927 30.5718 18.4613 32.377 18.9424C32.6334 19.0102 32.7749 18.9424 32.8419 18.6871C33.121 17.6338 33.4091 16.5817 33.6908 15.5296C33.9775 14.4566 34.2617 13.3836 34.5422 12.3093C34.6672 11.8418 34.7797 11.3719 34.9009 10.8847ZM6.11162 10.8588C6.10404 11.0266 6.15331 11.1845 6.195 11.3436C6.32511 11.8406 6.46028 12.3377 6.59039 12.8347C7.08558 14.7144 7.5833 16.594 8.07218 18.4749C8.20482 18.9843 8.2604 19.0324 8.78465 18.8943C10.5216 18.4367 12.2573 17.9729 13.993 17.5166C14.1408 17.4771 14.2583 17.4019 14.3745 17.3106C14.8937 16.9085 15.4154 16.5102 15.9371 16.1118C16.5662 15.6308 17.2029 15.1584 17.8257 14.6687C18.2034 14.3715 18.1945 14.2309 17.8067 13.9645C16.973 13.391 16.1342 12.8248 15.2941 12.2587C14.2115 11.5298 13.1264 10.8058 12.0426 10.0806C10.6719 9.16296 9.30384 8.24286 7.93196 7.32894C7.5833 7.09706 7.44813 7.139 7.30286 7.52011C7.00221 8.30947 6.7104 9.10252 6.41985 9.89435C6.3049 10.2126 6.12047 10.5098 6.11162 10.8588ZM20.4722 31.133C21.1341 31.133 21.7973 31.1367 22.4593 31.1318C22.8218 31.1293 22.8925 31.0541 22.8584 30.7137C22.8218 30.3461 22.7688 29.981 22.7283 29.6135C22.6652 29.0511 22.338 28.7538 21.7594 28.7526C20.908 28.7501 20.0553 28.7489 19.2039 28.7526C18.547 28.7551 18.2135 29.0733 18.1807 29.7023C18.1642 30.0094 18.1326 30.3153 18.0998 30.6212C18.0569 31.0319 18.1453 31.1318 18.5798 31.1342C19.2102 31.1355 19.8418 31.133 20.4722 31.133ZM17.4922 24.5875C17.8143 24.5838 17.9646 24.3581 17.8446 24.088C17.6476 23.6464 17.429 23.2148 17.2155 22.7806C17.1372 22.6215 16.9882 22.5339 16.8277 22.6018C16.2694 22.8361 15.7123 23.0766 15.1716 23.348C14.948 23.4602 14.9493 23.8031 15.1691 23.8771C15.951 24.1386 16.7469 24.363 17.4922 24.5875ZM23.4964 24.5863C24.2303 24.363 25.0287 24.1398 25.8094 23.8709C26.0785 23.7784 26.0582 23.4923 25.7841 23.3603C25.2662 23.1112 24.7369 22.883 24.2126 22.6486C24.0143 22.5598 23.8564 22.6203 23.7629 22.8016C23.5355 23.2407 23.3119 23.6822 23.1048 24.1312C22.9949 24.3643 23.1717 24.5912 23.4964 24.5863Z" fill="#333333"/>
</g>
<defs>
<clipPath id="clip0_500_4089">
<rect width="31" height="28" fill="white" transform="translate(5 6)"/>
</clipPath>
</defs>
</svg>
