<svg xmlns="http://www.w3.org/2000/svg" width="567" height="46" viewBox="0 0 567 46"><path d="M10.07-12.149V-.189H3.047V-34.135h13.3a15.438,15.438,0,0,1,6.754,1.4,10.337,10.337,0,0,1,4.483,3.975A11.049,11.049,0,0,1,29.149-22.9a9.729,9.729,0,0,1-3.43,7.869q-3.43,2.879-9.493,2.879Zm0-5.665h6.274a6.186,6.186,0,0,0,4.249-1.306,4.739,4.739,0,0,0,1.463-3.73,5.586,5.586,0,0,0-1.475-4.033,5.521,5.521,0,0,0-4.073-1.585H10.07Zm22.1,4.78a14.91,14.91,0,0,1,1.451-6.691A10.6,10.6,0,0,1,37.8-24.273a12.23,12.23,0,0,1,6.332-1.609A11.561,11.561,0,0,1,52.5-22.757a12.514,12.514,0,0,1,3.617,8.487l.047,1.725a13.153,13.153,0,0,1-3.254,9.314A11.334,11.334,0,0,1,44.179.278a11.391,11.391,0,0,1-8.744-3.5q-3.266-3.5-3.266-9.512Zm6.766.49a9.375,9.375,0,0,0,1.358,5.491,4.488,4.488,0,0,0,3.886,1.9,4.5,4.5,0,0,0,3.839-1.877q1.381-1.877,1.381-6a9.281,9.281,0,0,0-1.381-5.456,4.5,4.5,0,0,0-3.886-1.935A4.424,4.424,0,0,0,40.293-18.5Q38.935-16.579,38.935-12.545ZM82.361-9.351l3.324-16.064h6.531L85.755-.189H80.09l-4.8-15.877L70.492-.189H64.85L58.389-25.415H64.92l3.3,16.041,4.635-16.041h4.893ZM107.223.278a12.463,12.463,0,0,1-9.071-3.4,12.073,12.073,0,0,1-3.5-9.069v-.653a15.187,15.187,0,0,1,1.475-6.8,10.8,10.8,0,0,1,4.179-4.616,11.766,11.766,0,0,1,6.169-1.62,10.534,10.534,0,0,1,8.182,3.264q2.985,3.264,2.985,9.256v2.751h-16.13a6.25,6.25,0,0,0,1.978,3.964,5.994,5.994,0,0,0,4.179,1.492,7.314,7.314,0,0,0,6.11-2.821L117.1-4.269a10.148,10.148,0,0,1-4.12,3.346A13.565,13.565,0,0,1,107.223.278Zm-.773-20.7a4.245,4.245,0,0,0-3.266,1.352,6.972,6.972,0,0,0-1.6,3.87h9.411v-.536a4.969,4.969,0,0,0-1.217-3.462A4.383,4.383,0,0,0,106.45-20.426ZM135.713-19.1a18.454,18.454,0,0,0-2.435-.187q-3.839,0-5.033,2.588V-.189H121.48V-25.415h6.391l.187,3.008a6.272,6.272,0,0,1,5.642-3.474,7.116,7.116,0,0,1,2.107.3ZM150.181.278a12.463,12.463,0,0,1-9.072-3.4,12.073,12.073,0,0,1-3.5-9.069v-.653a15.187,15.187,0,0,1,1.475-6.8,10.8,10.8,0,0,1,4.179-4.616,11.766,11.766,0,0,1,6.169-1.62,10.534,10.534,0,0,1,8.182,3.264q2.985,3.264,2.985,9.256v2.751h-16.13a6.25,6.25,0,0,0,1.978,3.964,5.994,5.994,0,0,0,4.179,1.492,7.314,7.314,0,0,0,6.11-2.821l3.324,3.707a10.148,10.148,0,0,1-4.12,3.346A13.565,13.565,0,0,1,150.181.278Zm-.773-20.7a4.245,4.245,0,0,0-3.266,1.352,6.972,6.972,0,0,0-1.6,3.87h9.411v-.536a4.969,4.969,0,0,0-1.217-3.462A4.383,4.383,0,0,0,149.408-20.426Zm13.976,7.437q0-5.9,2.657-9.4a8.634,8.634,0,0,1,7.269-3.5,7.772,7.772,0,0,1,6.11,2.751V-36h6.789V-.189H180.1l-.328-2.681A7.973,7.973,0,0,1,173.263.278a8.61,8.61,0,0,1-7.175-3.509Q163.384-6.74,163.384-12.988Zm6.766.49a9.9,9.9,0,0,0,1.241,5.432A4.048,4.048,0,0,0,175-5.178a4.53,4.53,0,0,0,4.425-2.635v-9.955a4.465,4.465,0,0,0-4.378-2.635Q170.15-20.4,170.15-12.5Zm56.068-.07q0,6.062-2.6,9.454A8.621,8.621,0,0,1,216.361.278a7.92,7.92,0,0,1-6.578-3.147l-.3,2.681h-6.087V-36h6.766v12.846a7.719,7.719,0,0,1,6.157-2.728,8.692,8.692,0,0,1,7.269,3.392q2.634,3.392,2.634,9.547Zm-6.766-.49q0-3.824-1.217-5.584a4.122,4.122,0,0,0-3.629-1.76,4.465,4.465,0,0,0-4.448,2.635v9.955a4.525,4.525,0,0,0,4.495,2.658,4.175,4.175,0,0,0,4.307-3.217A16.533,16.533,0,0,0,219.452-13.058Zm20.133,3.334,4.682-15.691h7.257L241.34,3.728l-.562,1.329A7.722,7.722,0,0,1,233.287,10a10.685,10.685,0,0,1-3-.443V4.451l1.03.023a5.585,5.585,0,0,0,2.868-.583,3.831,3.831,0,0,0,1.487-1.935l.8-2.075-8.872-25.3h7.281Zm36.169-24.411,8.755,24.62,8.709-24.62h9.224V-.189h-7.046V-9.468l.7-16.017-9.2,25.3h-4.823L272.9-25.462l.7,15.994V-.189h-7.023V-34.135ZM322.808-.189a7.459,7.459,0,0,1-.679-2.262A8.2,8.2,0,0,1,315.738.278a9.016,9.016,0,0,1-6.169-2.145,6.886,6.886,0,0,1-2.446-5.409,7.119,7.119,0,0,1,2.985-6.155q2.985-2.145,8.627-2.168h3.114v-1.446a4.146,4.146,0,0,0-.9-2.8,3.553,3.553,0,0,0-2.844-1.049,4.042,4.042,0,0,0-2.68.816,2.767,2.767,0,0,0-.972,2.238h-6.766a6.75,6.75,0,0,1,1.358-4.057,8.971,8.971,0,0,1,3.839-2.926,14.042,14.042,0,0,1,5.572-1.061,11.085,11.085,0,0,1,7.433,2.343,8.181,8.181,0,0,1,2.751,6.586V-6.017a12.018,12.018,0,0,0,1.007,5.432v.4Zm-5.6-4.686a5.846,5.846,0,0,0,2.762-.664,4.374,4.374,0,0,0,1.873-1.784v-4.337H319.32q-5.08,0-5.408,3.5l-.023.4a2.692,2.692,0,0,0,.89,2.075A3.464,3.464,0,0,0,317.213-4.875Zm24.721-26.742v6.2h4.331v4.943h-4.331v12.59a3,3,0,0,0,.538,2.005,2.711,2.711,0,0,0,2.06.606,10.832,10.832,0,0,0,1.99-.163V-.328a13.98,13.98,0,0,1-4.1.606q-7.117,0-7.257-7.158V-20.472h-3.7v-4.943h3.7v-6.2Zm16.2,0v6.2h4.331v4.943h-4.331v12.59a3,3,0,0,0,.538,2.005,2.711,2.711,0,0,0,2.06.606,10.832,10.832,0,0,0,1.99-.163V-.328a13.98,13.98,0,0,1-4.1.606q-7.117,0-7.257-7.158V-20.472h-3.7v-4.943h3.7v-6.2ZM377.892.278a12.463,12.463,0,0,1-9.072-3.4,12.073,12.073,0,0,1-3.5-9.069v-.653a15.187,15.187,0,0,1,1.475-6.8,10.8,10.8,0,0,1,4.179-4.616,11.766,11.766,0,0,1,6.169-1.62,10.534,10.534,0,0,1,8.182,3.264q2.985,3.264,2.985,9.256v2.751H372.18a6.25,6.25,0,0,0,1.978,3.964,5.994,5.994,0,0,0,4.179,1.492,7.314,7.314,0,0,0,6.11-2.821l3.324,3.707a10.148,10.148,0,0,1-4.12,3.346A13.565,13.565,0,0,1,377.892.278Zm-.773-20.7a4.245,4.245,0,0,0-3.266,1.352,6.971,6.971,0,0,0-1.6,3.87h9.411v-.536a4.969,4.969,0,0,0-1.217-3.462A4.383,4.383,0,0,0,377.12-20.426ZM406.383-19.1a18.454,18.454,0,0,0-2.435-.187q-3.839,0-5.033,2.588V-.189h-6.766V-25.415h6.391l.187,3.008a6.272,6.272,0,0,1,5.642-3.474,7.116,7.116,0,0,1,2.107.3ZM423.355-7.16a2.17,2.17,0,0,0-1.229-1.947,14,14,0,0,0-3.945-1.271q-9.036-1.888-9.036-7.647a6.922,6.922,0,0,1,2.8-5.607,11.316,11.316,0,0,1,7.316-2.25,12.181,12.181,0,0,1,7.714,2.262,7.117,7.117,0,0,1,2.891,5.875H423.1a3.253,3.253,0,0,0-.936-2.39,3.973,3.973,0,0,0-2.926-.944,4.061,4.061,0,0,0-2.645.769,2.425,2.425,0,0,0-.936,1.958,2.075,2.075,0,0,0,1.065,1.807,10.988,10.988,0,0,0,3.593,1.189,29.446,29.446,0,0,1,4.261,1.131q5.361,1.958,5.361,6.785a6.573,6.573,0,0,1-2.973,5.584A12.864,12.864,0,0,1,419.282.278a13.443,13.443,0,0,1-5.654-1.131,9.479,9.479,0,0,1-3.874-3.1,7.185,7.185,0,0,1-1.4-4.255h6.414A3.512,3.512,0,0,0,416.1-5.458a5.308,5.308,0,0,0,3.324.956,4.914,4.914,0,0,0,2.938-.734A2.282,2.282,0,0,0,423.355-7.16ZM453.7-5.807h14.912V-.189H446.672V-34.135H453.7ZM486.867-.189a7.46,7.46,0,0,1-.679-2.262A8.2,8.2,0,0,1,479.8.278a9.016,9.016,0,0,1-6.169-2.145,6.886,6.886,0,0,1-2.446-5.409,7.119,7.119,0,0,1,2.985-6.155q2.985-2.145,8.627-2.168h3.114v-1.446a4.146,4.146,0,0,0-.9-2.8,3.554,3.554,0,0,0-2.844-1.049,4.042,4.042,0,0,0-2.68.816,2.767,2.767,0,0,0-.972,2.238h-6.766a6.75,6.75,0,0,1,1.358-4.057,8.971,8.971,0,0,1,3.839-2.926,14.042,14.042,0,0,1,5.572-1.061,11.085,11.085,0,0,1,7.433,2.343,8.181,8.181,0,0,1,2.751,6.586V-6.017A12.018,12.018,0,0,0,493.7-.585v.4Zm-5.6-4.686a5.846,5.846,0,0,0,2.762-.664,4.374,4.374,0,0,0,1.873-1.784v-4.337h-2.528q-5.08,0-5.408,3.5l-.023.4a2.692,2.692,0,0,0,.89,2.075A3.464,3.464,0,0,0,481.272-4.875Zm39.446-7.694q0,6.062-2.6,9.454A8.621,8.621,0,0,1,510.863.278a7.92,7.92,0,0,1-6.578-3.147l-.3,2.681h-6.087V-36h6.766v12.846a7.719,7.719,0,0,1,6.157-2.728,8.692,8.692,0,0,1,7.269,3.392q2.634,3.392,2.634,9.547Zm-6.766-.49q0-3.824-1.217-5.584a4.122,4.122,0,0,0-3.629-1.76,4.465,4.465,0,0,0-4.448,2.635v9.955a4.525,4.525,0,0,0,4.495,2.658,4.175,4.175,0,0,0,4.307-3.217A16.532,16.532,0,0,0,513.953-13.058Zm32.306-8.092a3.519,3.519,0,0,0-2.685,1.1,3.627,3.627,0,0,0-1.055,2.674,3.7,3.7,0,0,0,1.055,2.674,3.858,3.858,0,0,0,2.685,1.05,3.945,3.945,0,0,0,2.685-1.05,3.747,3.747,0,0,0,1.1-2.674,3.668,3.668,0,0,0-1.1-2.674A3.59,3.59,0,0,0,546.259-21.15Z" transform="translate(-3.047 36)" fill="#333"/></svg>