<svg width="151" height="180" viewBox="0 0 151 180" fill="none" xmlns="http://www.w3.org/2000/svg">
<g clip-path="url(#clip0_500_3324)">
<path d="M2.03 133C2.58 115.83 31.23 102 66.5 102C101.77 102 130.42 115.83 130.97 133H131V147H130.97C130.42 164.17 101.77 178 66.5 178C31.23 178 2.58 164.17 2.03 147H2V133H2.03Z" fill="#F7F7F7"/>
<path d="M66.5 180C102.96 180 132.03 165.71 132.96 147.4C132.99 147.27 133 147.14 133 147V133C133 132.86 132.99 132.73 132.96 132.6C132.03 114.29 102.96 100 66.5 100C30.04 100 0.969986 114.29 0.0399933 132.6C0.00999451 132.73 0 132.86 0 133V147C0 147.14 0.00999451 147.27 0.0399933 147.4C0.969986 165.71 30.04 180 66.5 180ZM129 146.68C128.99 146.76 128.98 146.85 128.98 146.93C128.47 162.96 100.44 175.99 66.5 175.99C32.56 175.99 4.54001 162.95 4.02 146.93C4.02 146.84 4.00999 146.76 4 146.68V133.32C4.00999 133.24 4.02 133.15 4.02 133.07C4.53 117.04 32.56 104.01 66.5 104.01C100.44 104.01 128.46 117.05 128.98 133.07C128.98 133.16 128.99 133.24 129 133.32V146.68Z" fill="#333333"/>
<path d="M66.5 165C30.8776 165 2 150.897 2 133.5C2 116.103 30.8776 102 66.5 102C102.122 102 131 116.103 131 133.5C131 150.897 102.122 165 66.5 165Z" fill="#F7F7F7"/>
<path d="M66.5 167C103.79 167 133 152.29 133 133.5C133 114.71 103.79 100 66.5 100C29.21 100 0 114.71 0 133.5C0 152.29 29.21 167 66.5 167ZM66.5 104C100.38 104 129 117.51 129 133.5C129 149.49 100.38 163 66.5 163C32.62 163 4 149.49 4 133.5C4 117.51 32.62 104 66.5 104Z" fill="#333333"/>
<path d="M118.49 150.97H122.49V164H118.49V150.97Z" fill="#333333"/>
<path d="M124 146H128V158H124V146Z" fill="#333333"/>
<path d="M110.49 154.97H114.49V168H110.49V154.97Z" fill="#333333"/>
<path d="M101.49 159.97H105.49V173H101.49V159.97Z" fill="#333333"/>
<path d="M90.4902 161.97H94.4902V175H90.4902V161.97Z" fill="#333333"/>
<path d="M80.4902 164.97H84.4902V178H80.4902V164.97Z" fill="#333333"/>
<path d="M68.4902 164.97H72.4902V178H68.4902V164.97Z" fill="#333333"/>
<path d="M11 151.97H15V165H11V151.97Z" fill="#333333"/>
<path d="M5.49023 147H9.49023V159H5.49023V147Z" fill="#333333"/>
<path d="M19 155.97H23V169H19V155.97Z" fill="#333333"/>
<path d="M28 160.97H32V174H28V160.97Z" fill="#333333"/>
<path d="M37 161.97H41V175H37V161.97Z" fill="#333333"/>
<path d="M47 163.97H51V177H47V163.97Z" fill="#333333"/>
<path d="M58 165.97H62V179H58V165.97Z" fill="#333333"/>
<path d="M116.47 130.28L119.54 127.72C118.9 126.96 103.51 109 66 109C28.49 109 14.02 127.01 13.42 127.77L16.58 130.23C16.58 130.23 20.06 125.88 27.82 121.63C35 117.69 47.46 113 66 113C84.54 113 97.3 117.7 104.71 121.65C112.73 125.92 116.43 130.24 116.46 130.29L116.47 130.28Z" fill="#333333"/>
<path d="M20.03 112C20.58 94.83 49.23 81 84.5 81C119.77 81 148.42 94.83 148.97 112H149V126H148.97C148.42 143.17 119.77 157 84.5 157C49.23 157 20.58 143.17 20.03 126H20V112H20.03Z" fill="#F7F7F7"/>
<path d="M84.5 159C120.96 159 150.03 144.71 150.96 126.4C150.99 126.27 151 126.14 151 126V112C151 111.86 150.99 111.73 150.96 111.6C150.03 93.29 120.96 79 84.5 79C48.04 79 18.97 93.29 18.04 111.6C18.01 111.73 18 111.86 18 112V126C18 126.14 18.01 126.27 18.04 126.4C18.97 144.71 48.04 159 84.5 159ZM147 125.68C146.99 125.76 146.98 125.85 146.98 125.93C146.47 141.96 118.44 154.99 84.5 154.99C50.56 154.99 22.54 141.95 22.02 125.93C22.02 125.84 22.01 125.76 22 125.68V112.32C22.01 112.24 22.02 112.15 22.02 112.07C22.53 96.04 50.56 83.01 84.5 83.01C118.44 83.01 146.46 96.04 146.98 112.06C146.98 112.15 146.99 112.23 147 112.31V125.67V125.68Z" fill="#333333"/>
<path d="M84.5 144C48.8776 144 20 129.897 20 112.5C20 95.103 48.8776 81 84.5 81C120.122 81 149 95.103 149 112.5C149 129.897 120.122 144 84.5 144Z" fill="#F7F7F7"/>
<path d="M84.5 146C121.79 146 151 131.29 151 112.5C151 93.71 121.79 79 84.5 79C47.21 79 18 93.71 18 112.5C18 131.29 47.21 146 84.5 146ZM84.5 83C118.38 83 147 96.51 147 112.5C147 128.49 118.38 142 84.5 142C50.62 142 22 128.49 22 112.5C22 96.51 50.62 83 84.5 83Z" fill="#333333"/>
<path d="M136.49 129.97H140.49V143H136.49V129.97Z" fill="#333333"/>
<path d="M142 125H146V137H142V125Z" fill="#333333"/>
<path d="M128.49 133.97H132.49V147H128.49V133.97Z" fill="#333333"/>
<path d="M119.49 138.97H123.49V152H119.49V138.97Z" fill="#333333"/>
<path d="M108.49 140.97H112.49V154H108.49V140.97Z" fill="#333333"/>
<path d="M98.4902 143.97H102.49V157H98.4902V143.97Z" fill="#333333"/>
<path d="M86.4902 143.97H90.4902V157H86.4902V143.97Z" fill="#333333"/>
<path d="M29 130.97H33V144H29V130.97Z" fill="#333333"/>
<path d="M23.4902 126H27.4902V138H23.4902V126Z" fill="#333333"/>
<path d="M37 134.97H41V148H37V134.97Z" fill="#333333"/>
<path d="M46 139.97H50V153H46V139.97Z" fill="#333333"/>
<path d="M55 140.97H59V154H55V140.97Z" fill="#333333"/>
<path d="M65 142.97H69V156H65V142.97Z" fill="#333333"/>
<path d="M76 144.97H80V158H76V144.97Z" fill="#333333"/>
<path d="M134.47 109.28L137.54 106.72C136.9 105.96 121.51 88 84 88C46.49 88 32.02 106.01 31.42 106.77L34.58 109.23C34.58 109.23 38.06 104.88 45.82 100.63C53 96.69 65.46 92 84 92C102.54 92 115.3 96.7 122.71 100.65C130.73 104.92 134.43 109.24 134.46 109.29L134.47 109.28Z" fill="#333333"/>
<path d="M2.03 91C2.58 73.83 31.23 60 66.5 60C101.77 60 130.42 73.83 130.97 91H131V105H130.97C130.42 122.17 101.77 136 66.5 136C31.23 136 2.58 122.17 2.03 105H2V91H2.03Z" fill="#F7F7F7"/>
<path d="M66.5 138C102.96 138 132.03 123.71 132.96 105.4C132.99 105.27 133 105.14 133 105V91C133 90.86 132.99 90.73 132.96 90.6C132.03 72.29 102.96 58 66.5 58C30.04 58 0.969986 72.29 0.0399933 90.6C0.00999451 90.73 0 90.86 0 91V105C0 105.14 0.00999451 105.27 0.0399933 105.4C0.969986 123.71 30.04 138 66.5 138ZM129 104.68C128.99 104.76 128.98 104.85 128.98 104.93C128.47 120.96 100.44 133.99 66.5 133.99C32.56 133.99 4.54001 120.95 4.02 104.93C4.02 104.84 4.00999 104.76 4 104.68V91.32C4.00999 91.24 4.02 91.15 4.02 91.07C4.53 75.04 32.56 62.01 66.5 62.01C100.44 62.01 128.46 75.05 128.98 91.07C128.98 91.16 128.99 91.24 129 91.32V104.68Z" fill="#333333"/>
<path d="M66.5 123C30.8776 123 2 108.897 2 91.5C2 74.103 30.8776 60 66.5 60C102.122 60 131 74.103 131 91.5C131 108.897 102.122 123 66.5 123Z" fill="#F7F7F7"/>
<path d="M66.5 125C103.79 125 133 110.29 133 91.5C133 72.71 103.79 58 66.5 58C29.21 58 0 72.71 0 91.5C0 110.29 29.21 125 66.5 125ZM66.5 62C100.38 62 129 75.51 129 91.5C129 107.49 100.38 121 66.5 121C32.62 121 4 107.49 4 91.5C4 75.51 32.62 62 66.5 62Z" fill="#333333"/>
<path d="M118.49 108.97H122.49V122H118.49V108.97Z" fill="#333333"/>
<path d="M124 104H128V116H124V104Z" fill="#333333"/>
<path d="M110.49 112.97H114.49V126H110.49V112.97Z" fill="#333333"/>
<path d="M101.49 117.97H105.49V131H101.49V117.97Z" fill="#333333"/>
<path d="M90.4902 119.97H94.4902V133H90.4902V119.97Z" fill="#333333"/>
<path d="M80.4902 122.97H84.4902V136H80.4902V122.97Z" fill="#333333"/>
<path d="M68.4902 122.97H72.4902V136H68.4902V122.97Z" fill="#333333"/>
<path d="M11 109.97H15V123H11V109.97Z" fill="#333333"/>
<path d="M5.49023 105H9.49023V117H5.49023V105Z" fill="#333333"/>
<path d="M19 113.97H23V127H19V113.97Z" fill="#333333"/>
<path d="M28 118.97H32V132H28V118.97Z" fill="#333333"/>
<path d="M37 119.97H41V133H37V119.97Z" fill="#333333"/>
<path d="M47 121.97H51V135H47V121.97Z" fill="#333333"/>
<path d="M58 123.97H62V137H58V123.97Z" fill="#333333"/>
<path d="M116.47 88.28L119.54 85.72C118.9 84.96 103.51 67 66 67C28.49 67 14.02 85.01 13.42 85.77L16.58 88.23C16.58 88.23 20.06 83.88 27.82 79.63C35 75.69 47.46 71 66 71C84.54 71 97.3 75.7 104.71 79.65C112.73 83.92 116.43 88.24 116.46 88.29L116.47 88.28Z" fill="#333333"/>
<path d="M20.03 70C20.58 52.83 49.23 39 84.5 39C119.77 39 148.42 52.83 148.97 70H149V84H148.97C148.42 101.17 119.77 115 84.5 115C49.23 115 20.58 101.17 20.03 84H20V70H20.03Z" fill="#F7F7F7"/>
<path d="M84.5 117C120.96 117 150.03 102.71 150.96 84.4C150.99 84.27 151 84.14 151 84V70C151 69.86 150.99 69.73 150.96 69.6C150.03 51.29 120.96 37 84.5 37C48.04 37 18.97 51.29 18.04 69.6C18.01 69.73 18 69.86 18 70V84C18 84.14 18.01 84.27 18.04 84.4C18.97 102.71 48.04 117 84.5 117ZM147 83.68C146.99 83.76 146.98 83.85 146.98 83.93C146.47 99.96 118.44 112.99 84.5 112.99C50.56 112.99 22.54 99.95 22.02 83.93C22.02 83.84 22.01 83.76 22 83.68V70.32C22.01 70.24 22.02 70.15 22.02 70.07C22.53 54.04 50.56 41.01 84.5 41.01C118.44 41.01 146.46 54.04 146.98 70.06C146.98 70.15 146.99 70.23 147 70.31V83.67V83.68Z" fill="#333333"/>
<path d="M84.5 102C48.8776 102 20 87.897 20 70.5C20 53.103 48.8776 39 84.5 39C120.122 39 149 53.103 149 70.5C149 87.897 120.122 102 84.5 102Z" fill="#F7F7F7"/>
<path d="M84.5 104C121.79 104 151 89.29 151 70.5C151 51.71 121.79 37 84.5 37C47.21 37 18 51.71 18 70.5C18 89.29 47.21 104 84.5 104ZM84.5 41C118.38 41 147 54.51 147 70.5C147 86.49 118.38 100 84.5 100C50.62 100 22 86.49 22 70.5C22 54.51 50.62 41 84.5 41Z" fill="#333333"/>
<path d="M136.49 87.97H140.49V101H136.49V87.97Z" fill="#333333"/>
<path d="M142 83H146V95H142V83Z" fill="#333333"/>
<path d="M128.49 91.97H132.49V105H128.49V91.97Z" fill="#333333"/>
<path d="M119.49 96.97H123.49V110H119.49V96.97Z" fill="#333333"/>
<path d="M108.49 98.97H112.49V112H108.49V98.97Z" fill="#333333"/>
<path d="M98.4902 101.97H102.49V115H98.4902V101.97Z" fill="#333333"/>
<path d="M86.4902 101.97H90.4902V115H86.4902V101.97Z" fill="#333333"/>
<path d="M29 88.97H33V102H29V88.97Z" fill="#333333"/>
<path d="M23.4902 84H27.4902V96H23.4902V84Z" fill="#333333"/>
<path d="M37 92.97H41V106H37V92.97Z" fill="#333333"/>
<path d="M46 97.97H50V111H46V97.97Z" fill="#333333"/>
<path d="M55 98.97H59V112H55V98.97Z" fill="#333333"/>
<path d="M65 100.97H69V114H65V100.97Z" fill="#333333"/>
<path d="M76 102.97H80V116H76V102.97Z" fill="#333333"/>
<path d="M134.47 67.28L137.54 64.72C136.9 63.96 121.51 46 84 46C46.49 46 32.02 64.01 31.42 64.77L34.58 67.23C34.58 67.23 38.06 62.88 45.82 58.63C53 54.69 65.46 50 84 50C102.54 50 115.3 54.7 122.71 58.65C130.73 62.92 134.43 67.24 134.46 67.29L134.47 67.28Z" fill="#333333"/>
<path d="M2.03 48C2.58 30.83 31.23 17 66.5 17C101.77 17 130.42 30.83 130.97 48H131V62H130.97C130.42 79.17 101.77 93 66.5 93C31.23 93 2.58 79.17 2.03 62H2V48H2.03Z" fill="#F7F7F7"/>
<path d="M66.5 95C102.96 95 132.03 80.71 132.96 62.4C132.99 62.27 133 62.14 133 62V48C133 47.86 132.99 47.73 132.96 47.6C132.03 29.29 102.96 15 66.5 15C30.04 15 0.969986 29.29 0.0399933 47.6C0.00999451 47.73 0 47.86 0 48V62C0 62.14 0.00999451 62.27 0.0399933 62.4C0.969986 80.71 30.04 95 66.5 95ZM129 61.68C128.99 61.76 128.98 61.85 128.98 61.93C128.47 77.96 100.44 90.99 66.5 90.99C32.56 90.99 4.54001 77.95 4.02 61.93C4.02 61.84 4.00999 61.76 4 61.68V48.32C4.00999 48.24 4.02 48.15 4.02 48.07C4.53 32.04 32.56 19.01 66.5 19.01C100.44 19.01 128.46 32.05 128.98 48.07C128.98 48.16 128.99 48.24 129 48.32V61.68Z" fill="#333333"/>
<path d="M66.5 80C30.8776 80 2 65.897 2 48.5C2 31.103 30.8776 17 66.5 17C102.122 17 131 31.103 131 48.5C131 65.897 102.122 80 66.5 80Z" fill="#F7F7F7"/>
<path d="M66.5 82C103.79 82 133 67.29 133 48.5C133 29.71 103.79 15 66.5 15C29.21 15 0 29.71 0 48.5C0 67.29 29.21 82 66.5 82ZM66.5 19C100.38 19 129 32.51 129 48.5C129 64.49 100.38 78 66.5 78C32.62 78 4 64.49 4 48.5C4 32.51 32.62 19 66.5 19Z" fill="#333333"/>
<path d="M118.49 65.97H122.49V79H118.49V65.97Z" fill="#333333"/>
<path d="M124 61H128V73H124V61Z" fill="#333333"/>
<path d="M110.49 69.97H114.49V83H110.49V69.97Z" fill="#333333"/>
<path d="M101.49 74.97H105.49V88H101.49V74.97Z" fill="#333333"/>
<path d="M90.4902 76.97H94.4902V90H90.4902V76.97Z" fill="#333333"/>
<path d="M80.4902 79.97H84.4902V93H80.4902V79.97Z" fill="#333333"/>
<path d="M68.4902 79.97H72.4902V93H68.4902V79.97Z" fill="#333333"/>
<path d="M11 66.97H15V80H11V66.97Z" fill="#333333"/>
<path d="M5.49023 62H9.49023V74H5.49023V62Z" fill="#333333"/>
<path d="M19 70.97H23V84H19V70.97Z" fill="#333333"/>
<path d="M28 75.97H32V89H28V75.97Z" fill="#333333"/>
<path d="M37 76.97H41V90H37V76.97Z" fill="#333333"/>
<path d="M47 78.97H51V92H47V78.97Z" fill="#333333"/>
<path d="M58 80.97H62V94H58V80.97Z" fill="#333333"/>
<path d="M116.47 45.28L119.54 42.72C118.9 41.96 103.51 24 66 24C28.49 24 14.02 42.01 13.42 42.77L16.58 45.23C16.58 45.23 20.06 40.88 27.82 36.63C35 32.69 47.46 28 66 28C84.54 28 97.3 32.7 104.71 36.65C112.73 40.92 116.43 45.24 116.46 45.29L116.47 45.28Z" fill="#333333"/>
<path d="M66.0002 55C87.9302 55 90.7002 46.46 90.9402 45.49C90.9602 45.43 90.9702 45.36 90.9802 45.29C91.1202 44.32 94.3403 21.34 83.8703 9.22C79.7303 4.43 74.0602 2 67.0002 2C59.9402 2 54.4303 4.4 50.0103 9.12C38.3203 21.62 39.8102 46.09 39.8802 47.13C39.9002 47.41 39.9702 47.67 40.1002 47.92C40.4802 48.64 44.4102 55 66.0002 55Z" fill="#333333"/>
<path d="M67.0005 3.99999C39.0005 3.99999 41.8805 46.99 41.8805 46.99C41.8805 46.99 45.0005 53 66.0005 53C87.0005 53 89.0005 45 89.0005 45C89.0005 45 95.0005 3.99999 67.0005 3.99999ZM67.0005 -9.76585e-06C74.6605 -9.76585e-06 80.8405 2.65999 85.3805 7.90999C96.4505 20.72 93.1105 44.57 92.9605 45.58C92.9405 45.71 92.9205 45.84 92.8805 45.97C92.4205 47.81 88.9605 57 66.0005 57C44.2605 57 39.3205 50.75 38.3305 48.84C38.0805 48.35 37.9205 47.81 37.8905 47.26C37.8205 46.19 36.2805 20.88 48.5605 7.74999C53.3705 2.59999 59.5805 -0.0100098 67.0105 -0.0100098L67.0005 -9.76585e-06Z" fill="#F7F7F7"/>
<path d="M70 37C64.4772 37 60 32.5228 60 27C60 21.4772 64.4772 17 70 17C75.5228 17 80 21.4772 80 27C80 32.5228 75.5228 37 70 37Z" fill="#F7F7F7"/>
<path d="M70.5 31C68.567 31 67 29.433 67 27.5C67 25.567 68.567 24 70.5 24C72.433 24 74 25.567 74 27.5C74 29.433 72.433 31 70.5 31Z" fill="#333333"/>
<path d="M93.9996 56.0001C94.3096 56.0001 94.6096 55.9301 94.8896 55.7901L100.89 52.7901L99.0996 49.2101L94.1396 51.6901L86.1096 46.3301L83.8896 49.6601L92.8896 55.6601C93.2196 55.8801 93.6096 56.0001 93.9996 56.0001Z" fill="#333333"/>
<path d="M93.0329 47.6729L96.9785 48.3303L95.9792 54.3276L92.0336 53.6702L93.0329 47.6729Z" fill="#333333"/>
<path d="M70.4297 64.2L70.9697 60.2401L65.4697 59.5L61.8397 50.55L58.1297 52.05L62.1897 62.0801C62.4597 62.7501 63.0697 63.2101 63.7797 63.3101L70.4297 64.21V64.2Z" fill="#333333"/>
<path d="M66.8054 55.5409L69.6973 58.3044L65.4967 62.7001L62.6048 59.9366L66.8054 55.5409Z" fill="#333333"/>
</g>
<defs>
<clipPath id="clip0_500_3324">
<rect width="151" height="180" fill="white" transform="matrix(-1 0 0 1 151 0)"/>
</clipPath>
</defs>
</svg>
