<svg width="281" height="263" viewBox="0 0 281 263" fill="none" xmlns="http://www.w3.org/2000/svg">
<g clip-path="url(#clip0_1114_2173)">
<path d="M29.4502 102.42V179.41H135.89V103.09L29.4502 102.42Z" fill="#F7F7F7"/>
<path d="M135.89 181.41H29.4502C28.3502 181.41 27.4502 180.51 27.4502 179.41V102.42C27.4502 101.89 27.6602 101.38 28.0402 101C28.4202 100.62 28.9502 100.41 29.4602 100.42L135.9 101.09C137 101.09 137.89 101.99 137.89 103.09V179.41C137.89 180.51 136.99 181.41 135.89 181.41ZM31.4502 177.41H133.89V105.08L31.4502 104.44V177.41Z" fill="#333333"/>
<path d="M29.4502 102.42L52.2102 81H112.46L135.89 103.09L29.4502 102.42Z" fill="#333333"/>
<path d="M29.45 102.42L2 81.67L25.43 68.95L52.21 81L29.45 102.42Z" fill="#F7F7F7"/>
<path d="M29.4495 104.42C29.0295 104.42 28.5995 104.29 28.2395 104.02L0.789539 83.26C0.249539 82.85 -0.0504615 82.19 -0.000461454 81.51C0.0495385 80.83 0.439538 80.23 1.03954 79.9L24.4695 67.18C25.0195 66.88 25.6795 66.86 26.2395 67.11L53.0195 79.16C53.6295 79.43 54.0595 79.99 54.1695 80.65C54.2795 81.31 54.0495 81.98 53.5695 82.44L30.8095 103.86C30.4295 104.22 29.9295 104.4 29.4395 104.4L29.4495 104.42ZM5.67954 81.94L29.2995 99.8L48.6495 81.59L25.5095 71.18L5.67954 81.95V81.94Z" fill="#333333"/>
<path d="M135.89 103.09L112.46 81L136.56 68.95L162 82.33L135.89 103.09Z" fill="#F7F7F7"/>
<path d="M135.89 105.09C135.39 105.09 134.9 104.91 134.52 104.55L111.09 82.46C110.61 82.01 110.39 81.36 110.48 80.71C110.57 80.06 110.98 79.5 111.56 79.21L135.66 67.16C136.24 66.87 136.91 66.88 137.49 67.18L162.93 80.57C163.53 80.88 163.93 81.48 163.99 82.15C164.05 82.82 163.77 83.48 163.24 83.9L137.13 104.65C136.76 104.94 136.33 105.08 135.89 105.08V105.09ZM115.91 81.51L136 100.45L158.35 82.68L136.53 71.2L115.91 81.51Z" fill="#333333"/>
<path d="M82.6796 166.38C95.9786 166.38 106.76 155.957 106.76 143.1C106.76 130.243 95.9786 119.82 82.6796 119.82C69.3806 119.82 58.5996 130.243 58.5996 143.1C58.5996 155.957 69.3806 166.38 82.6796 166.38Z" fill="#F7F7F7"/>
<path d="M82.6796 168.38C68.2996 168.38 56.5996 157.04 56.5996 143.1C56.5996 129.16 68.2996 117.82 82.6796 117.82C97.0596 117.82 108.76 129.16 108.76 143.1C108.76 157.04 97.0596 168.38 82.6796 168.38ZM82.6796 121.83C70.5096 121.83 60.5996 131.37 60.5996 143.11C60.5996 154.85 70.4996 164.39 82.6796 164.39C94.8596 164.39 104.76 154.85 104.76 143.11C104.76 131.37 94.8596 121.83 82.6796 121.83Z" fill="#333333"/>
<path d="M82.9997 158.59C91.8749 158.59 99.0697 151.633 99.0697 143.05C99.0697 134.468 91.8749 127.51 82.9997 127.51C74.1245 127.51 66.9297 134.468 66.9297 143.05C66.9297 151.633 74.1245 158.59 82.9997 158.59Z" fill="#333333"/>
<path d="M91.3396 144.1C91.3396 144.1 91.2696 141.76 89.9396 139.5C88.2496 136.6 85.2696 135.06 81.0996 134.92L81.2396 130.92C94.9896 131.39 95.3396 143.9 95.3396 144.03L91.3396 144.1Z" fill="#F7F7F7"/>
<path d="M29.4502 102.42L18.7402 124.51H149.28L135.89 103.09L29.4502 102.42Z" fill="#F7F7F7"/>
<path d="M149.28 126.51H18.7401C18.0501 126.51 17.4101 126.16 17.0401 125.57C16.6701 124.99 16.6301 124.26 16.9401 123.64L27.6501 101.55C27.9801 100.86 28.6801 100.42 29.4501 100.42H29.4601L135.9 101.09C136.58 101.09 137.22 101.45 137.58 102.03L150.97 123.45C151.35 124.07 151.38 124.84 151.02 125.48C150.67 126.12 150 126.51 149.27 126.51H149.28ZM21.9301 122.51H145.67L134.78 105.08L30.7001 104.43L21.9301 122.51Z" fill="#333333"/>
<path d="M52.21 81H112.46L108.44 77.65H55.56L52.21 81Z" fill="#F7F7F7"/>
<path d="M112.46 83H52.21C51.4 83 50.67 82.51 50.36 81.77C50.05 81.02 50.22 80.16 50.79 79.59L54.14 76.24C54.52 75.86 55.02 75.65 55.55 75.65H108.44C108.91 75.65 109.36 75.81 109.72 76.11L113.74 79.46C114.39 80 114.63 80.89 114.34 81.68C114.05 82.47 113.3 83 112.46 83Z" fill="#333333"/>
<path d="M106.48 2H60.1904C48.0204 2 38.1504 11.87 38.1504 24.04V36.86C38.1504 49.03 48.0204 58.9 60.1904 58.9H71.0604C72.8104 58.9 74.4704 59.7 75.5704 61.07L79.5904 66.1C81.8204 68.89 86.0904 68.8 88.2004 65.92L91.6104 61.27C92.7004 59.79 94.4304 58.91 96.2704 58.91H106.49C118.66 58.91 128.53 49.04 128.53 36.87V24.05C128.53 11.88 118.66 2.01 106.49 2.01L106.48 2Z" fill="#F7F7F7"/>
<path d="M83.8204 70.13C81.5504 70.13 79.4504 69.12 78.0304 67.34L74.0104 62.31C73.2904 61.41 72.2204 60.89 71.0604 60.89H60.1904C46.9304 60.89 36.1504 50.1 36.1504 36.85V24.03C36.1504 10.79 46.9404 0 60.1904 0H106.48C119.74 0 130.52 10.79 130.52 24.04V36.86C130.52 50.12 119.73 60.9 106.48 60.9H96.2604C95.0604 60.9 93.9304 61.48 93.2204 62.44L89.8104 67.09C88.4304 68.97 86.3104 70.07 83.9804 70.12C83.9304 70.12 83.8704 70.12 83.8204 70.12V70.13ZM60.1904 4C49.1404 4 40.1504 12.99 40.1504 24.04V36.86C40.1504 47.91 49.1404 56.9 60.1904 56.9H71.0604C73.4404 56.9 75.6504 57.96 77.1304 59.82L81.1504 64.85C81.8204 65.69 82.7704 66.15 83.9004 66.13C84.9704 66.11 85.9504 65.6 86.5904 64.73L90.0004 60.08C91.4604 58.09 93.8004 56.9 96.2704 56.9H106.49C117.54 56.9 126.53 47.91 126.53 36.86V24.04C126.53 12.99 117.54 4 106.49 4H60.1904Z" fill="#333333"/>
<path d="M93.2401 39.77C92.4901 40.87 91.4401 41.75 90.0801 42.41C88.7201 43.06 87.1601 43.44 85.4201 43.55V46.25C85.4201 46.58 85.3001 46.87 85.0701 47.1C84.8401 47.33 84.5401 47.45 84.1801 47.45C83.8501 47.45 83.5601 47.34 83.3301 47.12C83.1001 46.9 82.9801 46.61 82.9801 46.25V43.55C80.2601 43.37 77.6801 42.77 75.2401 41.74C74.9301 41.61 74.6701 41.39 74.4501 41.09C74.2301 40.79 74.1201 40.46 74.1201 40.13C74.1201 39.67 74.2701 39.28 74.5801 38.95C74.8901 38.63 75.2701 38.47 75.7401 38.47C76.0201 38.47 76.2701 38.52 76.4701 38.62C78.5201 39.54 80.6901 40.06 82.9801 40.16V31.38C81.2101 30.92 79.7601 30.42 78.6301 29.88C77.2401 29.26 76.1901 28.44 75.4701 27.4C74.7501 26.36 74.3901 25.16 74.3901 23.8C74.3901 22.44 74.7201 21.22 75.3901 20.06C76.0801 18.88 77.0901 17.93 78.3901 17.21C79.7001 16.49 81.2301 16.05 82.9701 15.9V13.24C82.9701 12.91 83.0901 12.62 83.3201 12.37C83.5501 12.13 83.8301 12 84.1701 12C84.5101 12 84.7901 12.12 85.0401 12.37C85.2801 12.61 85.4101 12.9 85.4101 13.24V15.86C87.9301 15.99 90.1501 16.41 92.0701 17.13C92.8101 17.41 93.1901 17.94 93.1901 18.71C93.1901 19.12 93.0401 19.5 92.7301 19.85C92.4201 20.2 92.0501 20.37 91.6101 20.37C91.4301 20.37 91.2201 20.32 90.9901 20.22C89.2901 19.6 87.4301 19.26 85.4001 19.18V28.27C87.1501 28.68 88.6701 29.16 89.9801 29.7C91.3101 30.27 92.3701 31.07 93.1401 32.11C93.9101 33.15 94.3001 34.47 94.3001 36.06C94.3001 37.42 93.9401 38.67 93.2201 39.8L93.2401 39.77ZM79.1801 26.06C79.9801 26.68 81.2501 27.22 82.9901 27.68V19.28C81.4001 19.51 80.1701 20 79.2901 20.74C78.4201 21.49 77.9801 22.41 77.9801 23.51C77.9801 24.61 78.3801 25.44 79.1701 26.05L79.1801 26.06ZM90.7801 35.81C90.7801 34.89 90.3601 34.14 89.5301 33.58C88.6901 33.02 87.3301 32.48 85.4301 31.96V40.17C89.0001 39.91 90.7801 38.46 90.7801 35.82V35.81Z" fill="#333333"/>
</g>
<path d="M172.579 244.26C172.579 244.26 170.999 250.58 154.399 250.58C137.799 250.58 135.329 245.83 135.329 245.83C135.329 245.83 133.059 211.85 155.189 211.85C177.319 211.85 172.579 244.26 172.579 244.26Z" fill="#333333"/>
<path d="M154.399 237.14C158.762 237.14 162.299 233.603 162.299 229.24C162.299 224.877 158.762 221.34 154.399 221.34C150.036 221.34 146.499 224.877 146.499 229.24C146.499 233.603 150.036 237.14 154.399 237.14Z" fill="#F7F7F7"/>
<path d="M156.37 231.62C157.899 231.62 159.14 230.379 159.14 228.85C159.14 227.32 157.899 226.08 156.37 226.08C154.84 226.08 153.6 227.32 153.6 228.85C153.6 230.379 154.84 231.62 156.37 231.62Z" fill="#333333"/>
<path d="M149.969 262.6L146.019 257.36C145.809 257.09 145.699 256.75 145.699 256.41V248.22H148.859V255.89L152.489 260.71L149.969 262.61V262.6Z" fill="#333333"/>
<path d="M144.469 261.58L142.199 259.38L146.149 255.3C146.479 254.96 146.929 254.78 147.399 254.82L155.299 255.4L155.069 258.55L147.899 258.02L144.459 261.57L144.469 261.58Z" fill="#333333"/>
<path d="M168.15 259.44L164.2 254.2C163.99 253.93 163.88 253.59 163.88 253.25V247.43H167.04V252.72L170.67 257.54L168.15 259.44Z" fill="#333333"/>
<path d="M162.65 258.42L160.38 256.22L164.33 252.14C164.66 251.8 165.11 251.63 165.58 251.66L173.48 252.24L173.25 255.39L166.08 254.86L162.64 258.41L162.65 258.42Z" fill="#333333"/>
<path d="M160.38 213.939C174.83 213.599 186.27 199.129 186.01 181.369C185.75 163.609 173.89 149.229 159.43 149.019L147.64 149.059C133.19 149.409 121.75 163.879 122.01 181.639C122.27 199.399 134.13 213.779 148.59 213.989L160.38 213.949V213.939Z" fill="#F7F7F7" stroke="#333333" stroke-width="4" stroke-linejoin="round"/>
<path d="M158.802 213.937C174.861 212.981 187.015 197.684 185.948 179.772C184.88 161.86 170.996 148.116 154.937 149.073C138.877 150.029 126.724 165.326 127.791 183.238C128.858 201.15 142.742 214.894 158.802 213.937Z" fill="#F7F7F7" stroke="#333333" stroke-width="4" stroke-linejoin="round"/>
<path d="M158.243 207.409C170.521 206.677 179.784 194.513 178.934 180.24C178.083 165.966 167.441 154.989 155.163 155.72C142.886 156.452 133.622 168.616 134.473 182.889C135.323 197.162 145.965 208.14 158.243 207.409Z" fill="#F7F7F7" stroke="#333333" stroke-width="4" stroke-linejoin="round"/>
<path d="M144.83 211.269L137.79 211.279" stroke="#333333" stroke-width="4" stroke-linejoin="round"/>
<path d="M167.04 168.379H148.07V195.249H167.04V168.379Z" fill="#F7F7F7" stroke="#333333" stroke-width="4" stroke-linejoin="round"/>
<path d="M159.93 173.129H153.61V185.779H159.93V173.129Z" fill="#333333"/>
<path d="M263.843 210.805C263.843 210.805 262.263 217.125 245.663 217.125C229.063 217.125 226.593 212.375 226.593 212.375C226.593 212.375 224.323 178.395 246.453 178.395C268.583 178.395 263.843 210.805 263.843 210.805Z" fill="#333333"/>
<path d="M245.673 203.695C250.036 203.695 253.573 200.158 253.573 195.795C253.573 191.431 250.036 187.895 245.673 187.895C241.31 187.895 237.773 191.431 237.773 195.795C237.773 200.158 241.31 203.695 245.673 203.695Z" fill="#F7F7F7"/>
<path d="M243.693 197.374C245.223 197.374 246.463 196.134 246.463 194.604C246.463 193.075 245.223 191.834 243.693 191.834C242.163 191.834 240.923 193.075 240.923 194.604C240.923 196.134 242.163 197.374 243.693 197.374Z" fill="#333333"/>
<path d="M250.883 229.145L254.833 223.905C255.043 223.635 255.153 223.295 255.153 222.955V214.765H251.993V222.435L248.363 227.255L250.883 229.155V229.145Z" fill="#333333"/>
<path d="M256.393 228.135L258.663 225.935L254.713 221.855C254.383 221.515 253.933 221.335 253.463 221.375L245.563 221.955L245.793 225.105L252.963 224.575L256.403 228.125L256.393 228.135Z" fill="#333333"/>
<path d="M232.704 225.984L236.654 220.744C236.864 220.474 236.974 220.134 236.974 219.794V213.974H233.814V219.264L230.184 224.084L232.704 225.984Z" fill="#333333"/>
<path d="M238.213 224.975L240.483 222.775L236.533 218.695C236.203 218.355 235.753 218.185 235.283 218.215L227.383 218.795L227.613 221.945L234.783 221.415L238.223 224.965L238.213 224.975Z" fill="#333333"/>
<path d="M240.513 183.614C226.063 183.274 214.623 168.804 214.883 151.044C215.143 133.284 227.003 118.904 241.463 118.694L253.253 118.734C267.703 119.084 279.143 133.554 278.883 151.314C278.623 169.074 266.763 183.454 252.303 183.664L240.513 183.624V183.614Z" fill="#F7F7F7" stroke="#333333" stroke-width="4" stroke-linejoin="round"/>
<path d="M273.089 152.898C274.157 134.986 262.003 119.69 245.943 118.733C229.884 117.776 216 131.521 214.933 149.433C213.865 167.344 226.019 182.641 242.078 183.598C258.138 184.555 272.022 170.81 273.089 152.898Z" fill="#F7F7F7" stroke="#333333" stroke-width="4" stroke-linejoin="round"/>
<path d="M266.401 152.554C267.251 138.28 257.987 126.116 245.71 125.385C233.432 124.653 222.79 135.631 221.939 149.904C221.089 164.178 230.352 176.342 242.63 177.073C254.908 177.805 265.55 166.827 266.401 152.554Z" fill="#F7F7F7" stroke="#333333" stroke-width="4" stroke-linejoin="round"/>
<path d="M256.054 180.944L263.104 180.954" stroke="#333333" stroke-width="4" stroke-linejoin="round"/>
<path d="M233.843 164.934H252.813V138.064H233.843V164.934Z" fill="#F7F7F7" stroke="#333333" stroke-width="4" stroke-linejoin="round"/>
<path d="M240.963 155.444H247.283V142.794H240.963V155.444Z" fill="#333333"/>
<defs>
<clipPath id="clip0_1114_2173">
<rect width="164" height="181.41" fill="white"/>
</clipPath>
</defs>
</svg>
