<svg width="48" height="65" viewBox="0 0 48 65" fill="none" xmlns="http://www.w3.org/2000/svg">
<g clip-path="url(#clip0_536_3155)">
<path d="M47.2099 41C47.2099 41 45.2099 49 24.2099 49C3.20989 49 0.0798908 42.99 0.0798908 42.99C0.0798908 42.99 -2.79011 0 25.2099 0C53.2099 0 47.2099 41 47.2099 41Z" fill="#333333"/>
<path d="M24.21 32C29.7328 32 34.21 27.5228 34.21 22C34.21 16.4772 29.7328 12 24.21 12C18.6871 12 14.21 16.4772 14.21 22C14.21 27.5228 18.6871 32 24.21 32Z" fill="#F7F7F7"/>
<path d="M20.71 23C22.643 23 24.21 21.433 24.21 19.5C24.21 17.567 22.643 16 20.71 16C18.777 16 17.21 17.567 17.21 19.5C17.21 21.433 18.777 23 20.71 23Z" fill="#333333"/>
<path d="M30.8001 64.2L35.8001 57.57C36.0601 57.22 36.2001 56.8 36.2001 56.37V46H32.2001V55.7L27.6001 61.8L30.7901 64.21L30.8001 64.2Z" fill="#333333"/>
<path d="M37.7701 62.92L40.6401 60.14L35.6401 54.98C35.2301 54.55 34.6501 54.33 34.0601 54.38L24.0601 55.12L24.3501 59.11L33.4201 58.44L37.7701 62.93V62.92Z" fill="#333333"/>
<path d="M7.8001 60.2L12.8001 53.57C13.0601 53.22 13.2001 52.8 13.2001 52.37V45H9.2001V51.7L4.6001 57.8L7.7901 60.21L7.8001 60.2Z" fill="#333333"/>
<path d="M14.7701 58.92L17.6401 56.14L12.6401 50.98C12.2301 50.55 11.6601 50.33 11.0601 50.38L1.06006 51.12L1.35006 55.11L10.4201 54.44L14.7701 58.93V58.92Z" fill="#333333"/>
</g>
<defs>
<clipPath id="clip0_536_3155">
<rect width="47.75" height="64.2" fill="white"/>
</clipPath>
</defs>
</svg>
