<svg width="549" height="327" viewBox="0 0 549 327" fill="none" xmlns="http://www.w3.org/2000/svg">
<g clip-path="url(#clip0_528_664)">
<path d="M520.11 131.649C520.11 131.649 518.302 138.872 499.279 138.872C480.255 138.872 477.431 133.452 477.431 133.452C477.431 133.452 474.82 94.624 500.177 94.624C525.534 94.624 520.099 131.649 520.099 131.649H520.11Z" fill="#333333"/>
<path d="M499.279 123.518C504.278 123.518 508.33 119.477 508.33 114.492C508.33 109.507 504.278 105.465 499.279 105.465C494.28 105.465 490.228 109.507 490.228 114.492C490.228 119.477 494.28 123.518 499.279 123.518Z" fill="#F7F7F7"/>
<path d="M497.01 116.295C498.759 116.295 500.177 114.881 500.177 113.137C500.177 111.392 498.759 109.979 497.01 109.979C495.261 109.979 493.844 111.392 493.844 113.137C493.844 114.881 495.261 116.295 497.01 116.295Z" fill="#333333"/>
<path d="M505.258 152.6L509.783 146.614C510.019 146.296 510.149 145.919 510.149 145.53V136.162H506.522V144.917L502.363 150.42L505.258 152.6Z" fill="#333333"/>
<path d="M511.567 151.445L514.167 148.935L509.641 144.281C509.263 143.892 508.743 143.692 508.212 143.739L499.161 144.41L499.432 148.016L507.644 147.415L511.579 151.469L511.567 151.445Z" fill="#333333"/>
<path d="M484.426 148.994L488.952 143.008C489.188 142.69 489.318 142.313 489.318 141.924V135.266H485.691V141.311L481.531 146.814L484.426 148.994V148.994Z" fill="#333333"/>
<path d="M490.736 147.828L493.335 145.318L488.81 140.663C488.432 140.274 487.924 140.074 487.38 140.121L478.329 140.793L478.601 144.399L486.813 143.798L490.748 147.851L490.736 147.828Z" fill="#333333"/>
<path d="M188.215 140.663C211.138 123.836 304.022 114.22 354.405 139.779C404.799 165.35 466.679 156.536 502.032 158.292C537.397 160.059 557.72 181.211 545.349 210.305C532.978 239.399 486.116 231.469 456.068 241.167C426.021 250.865 409.218 267.61 360.596 279.075C311.974 290.541 266.897 279.075 235.951 264.087C205.005 249.098 191.748 238.516 146.67 236.76C101.593 235.004 73.2938 213.84 84.7906 184.746C96.2874 155.652 124.575 187.386 188.215 140.663V140.663Z" fill="#333333"/>
<path d="M386.378 80.4834C323.731 80.4834 272.946 131.13 272.946 193.608V193.667C272.946 197.473 274.719 201.09 277.708 203.435C307.366 226.72 345.188 233.673 386.378 233.673C427.569 233.673 465.379 226.72 495.049 203.435C498.05 201.079 499.811 197.461 499.811 193.667V193.608C499.811 131.13 449.026 80.4834 386.378 80.4834V80.4834Z" fill="#F7F7F7" stroke="#333333" stroke-width="4" stroke-linejoin="round"/>
<path d="M369.222 148.853L369.045 148.877C367.024 147.357 346.961 147.651 332.025 144.104C307.212 138.212 295.172 128.679 295.172 128.679C295.172 128.679 257.586 128.785 255.222 137.034C255.081 137.529 255.092 138.083 255.222 138.66V148.818C255.081 149.313 255.092 149.866 255.222 150.444V152.306C255.222 152.306 255.577 152.4 256.215 152.565C262.596 162.016 296.342 176.91 342.66 167.672C362.298 163.76 369.352 161.933 369.21 160.884V148.841L369.222 148.853Z" fill="#F7F7F7" stroke="#333333" stroke-width="4" stroke-linejoin="round"/>
<path d="M295.172 126.334C295.172 126.334 257.586 126.44 255.222 134.689C252.859 142.937 289.488 164.148 342.66 153.543C395.831 142.937 356.839 147.651 332.025 141.759C307.212 135.867 295.172 126.334 295.172 126.334V126.334Z" fill="#F7F7F7" stroke="#333333" stroke-width="4" stroke-linejoin="round"/>
<path d="M347.386 166.729C347.386 166.729 346.204 177.111 346.204 199.5C346.204 223.067 347.386 230.138 347.386 230.138C347.386 230.138 325.409 232.483 286.18 209.504C286.18 209.504 287.87 177.464 290.457 168.449C290.457 168.449 313.12 175.202 347.386 166.729Z" fill="#333333"/>
<path d="M366.539 91.0531C365.512 94.9889 369.115 98.8422 375.141 100.115C379.301 100.999 384.913 101.694 392.274 101.694C399.636 101.694 404.563 101.058 408.474 100.244C414.394 99.0072 417.986 95.2482 417.123 91.3831L406.572 43.918C405.827 40.5596 401.243 38.0732 395.843 38.0732H389.663C384.358 38.0732 379.832 40.4771 378.97 43.753L366.539 91.0649V91.0531Z" fill="#F7F7F7" stroke="#333333" stroke-width="4" stroke-linejoin="round"/>
<path d="M386.378 47.4888C386.378 47.4888 379.289 40.4185 392.286 27.4563C405.284 14.4942 420.644 25.0996 439.55 12.1374C458.455 -0.824733 487.995 -7.895 510.445 14.4942C532.895 36.8834 512.808 59.2726 489.176 61.6293C465.545 63.9861 447.821 42.7753 431.279 39.2401C414.736 35.705 404.102 39.2401 399.376 43.9536C394.649 48.6672 393.468 51.0239 386.378 47.4888Z" fill="#333333"/>
<path d="M16.5421 234.851C16.5421 234.851 3.5447 239.564 9.45263 245.456C15.3606 251.348 43.7186 254.883 47.2634 251.348L51.4225 242.333C51.4225 242.333 30.7212 231.316 16.5421 234.851V234.851Z" fill="#F7F7F7" stroke="#333333" stroke-width="4" stroke-linejoin="round"/>
<path d="M132.338 183.002L15.975 234.851C15.975 234.851 79.1662 240.742 95.7084 272.559C112.251 304.375 216.23 311.445 216.23 311.445L311.938 241.921C311.938 241.921 212.874 233.672 203.918 211.872C194.962 190.072 154.788 183.002 132.338 183.002V183.002Z" fill="#F7F7F7" stroke="#333333" stroke-width="4" stroke-linejoin="round"/>
<path d="M216.23 311.445C216.23 311.445 224.501 306.732 211.504 300.84C198.506 294.948 178.419 296.126 178.419 296.126L280.036 232.494C280.036 232.494 311.938 225.423 317.846 237.207C323.754 248.991 216.23 311.445 216.23 311.445Z" fill="#F7F7F7" stroke="#333333" stroke-width="4" stroke-linejoin="round"/>
<path d="M67.3503 232.494C67.3503 232.494 69.7135 231.316 74.4399 226.602C79.1662 221.889 82.711 224.245 90.9821 219.532C99.2531 214.818 106.343 212.462 111.069 207.748C115.795 203.035 137.064 192.429 139.427 192.429" fill="#F7F7F7"/>
<path d="M67.3503 232.494C67.3503 232.494 69.7135 231.316 74.4399 226.602C79.1662 221.889 82.711 224.245 90.9821 219.532C99.2531 214.818 106.343 212.462 111.069 207.748C115.795 203.035 137.064 192.429 139.427 192.429" stroke="#333333" stroke-width="4" stroke-linejoin="round"/>
<path d="M87.4373 245.456C87.4373 245.456 98.0715 233.672 107.524 232.494C116.977 231.315 133.519 218.353 137.064 214.818C140.609 211.283 157.151 201.856 164.24 199.499" fill="#F7F7F7"/>
<path d="M87.4373 245.456C87.4373 245.456 98.0715 233.672 107.524 232.494C116.977 231.315 133.519 218.353 137.064 214.818C140.609 211.283 157.151 201.856 164.24 199.499" stroke="#333333" stroke-width="4" stroke-linejoin="round"/>
<path d="M105.161 258.418C105.161 258.418 120.522 245.456 126.43 243.099C132.337 240.742 132.337 238.386 140.609 233.672C148.88 228.959 155.969 224.245 164.24 219.531C172.511 214.818 187.872 206.569 187.872 206.569" fill="#F7F7F7"/>
<path d="M105.161 258.418C105.161 258.418 120.522 245.456 126.43 243.099C132.337 240.742 132.337 238.386 140.609 233.672C148.88 228.959 155.969 224.245 164.24 219.531C172.511 214.818 187.872 206.569 187.872 206.569" stroke="#333333" stroke-width="4" stroke-linejoin="round"/>
<path d="M122.885 272.558C122.885 272.558 134.701 260.775 141.79 258.418C148.88 256.061 158.332 253.704 164.24 247.813C170.148 241.921 191.417 227.78 197.325 225.423" fill="#F7F7F7"/>
<path d="M122.885 272.558C122.885 272.558 134.701 260.775 141.79 258.418C148.88 256.061 158.332 253.704 164.24 247.813C170.148 241.921 191.417 227.78 197.325 225.423" stroke="#333333" stroke-width="4" stroke-linejoin="round"/>
<path d="M145.335 283.164C145.335 283.164 155.969 278.451 160.696 273.737C165.422 269.024 174.875 267.845 181.964 260.775C189.054 253.705 200.869 248.991 205.596 244.278C210.322 239.564 216.23 234.851 216.23 234.851" fill="#F7F7F7"/>
<path d="M145.335 283.164C145.335 283.164 155.969 278.451 160.696 273.737C165.422 269.024 174.875 267.845 181.964 260.775C189.054 253.705 200.869 248.991 205.596 244.278C210.322 239.564 216.23 234.851 216.23 234.851" stroke="#333333" stroke-width="4" stroke-linejoin="round"/>
<path d="M166.604 293.769C166.604 293.769 180.783 281.986 185.509 279.629C190.235 277.272 206.777 269.023 212.685 263.132C218.593 257.24 228.046 254.883 231.591 251.348C235.135 247.813 244.588 243.099 244.588 243.099" fill="#F7F7F7"/>
<path d="M166.604 293.769C166.604 293.769 180.783 281.986 185.509 279.629C190.235 277.272 206.777 269.023 212.685 263.132C218.593 257.24 228.046 254.883 231.591 251.348C235.135 247.813 244.588 243.099 244.588 243.099" stroke="#333333" stroke-width="4" stroke-linejoin="round"/>
<path d="M99.2531 294.948C99.2531 294.948 96.89 304.375 72.0767 304.375C47.2634 304.375 43.5768 297.293 43.5768 297.293C43.5768 297.293 40.1739 246.635 73.2583 246.635C106.343 246.635 99.2531 294.948 99.2531 294.948Z" fill="#333333"/>
<path d="M72.0767 284.343C78.6024 284.343 83.8926 279.067 83.8926 272.559C83.8926 266.051 78.6024 260.775 72.0767 260.775C65.551 260.775 60.2609 266.051 60.2609 272.559C60.2609 279.067 65.551 284.343 72.0767 284.343Z" fill="#F7F7F7"/>
<path d="M75.0307 276.094C77.3147 276.094 79.1662 274.248 79.1662 271.97C79.1662 269.692 77.3147 267.846 75.0307 267.846C72.7467 267.846 70.8951 269.692 70.8951 271.97C70.8951 274.248 72.7467 276.094 75.0307 276.094Z" fill="#333333"/>
<path d="M65.4598 322.287L59.5519 314.474C59.2446 314.062 59.0792 313.567 59.0792 313.06V300.84H63.8056V312.271L69.2409 319.459L65.4716 322.299L65.4598 322.287Z" fill="#333333"/>
<path d="M57.236 320.778L53.8448 317.502L59.7528 311.422C60.2372 310.915 60.9225 310.656 61.6197 310.715L73.4355 311.587L73.0929 316.289L62.3759 315.499L57.236 320.79V320.778Z" fill="#333333"/>
<path d="M92.6363 317.573L86.7284 309.76C86.4212 309.348 86.2557 308.853 86.2557 308.346V299.662H90.9821V307.557L96.4174 314.745L92.6481 317.585L92.6363 317.573Z" fill="#333333"/>
<path d="M84.4124 316.065L81.0212 312.789L86.9292 306.708C87.4136 306.202 88.0871 305.942 88.7961 306.001L100.612 306.873L100.269 311.575L89.5523 310.786L84.4124 316.077V316.065Z" fill="#333333"/>
<path d="M309.575 299.662C309.575 299.662 307.212 309.089 282.399 309.089C257.586 309.089 253.899 302.007 253.899 302.007C253.899 302.007 250.496 251.348 283.581 251.348C316.665 251.348 309.575 299.662 309.575 299.662Z" fill="#333333"/>
<path d="M282.399 289.056C288.925 289.056 294.215 283.781 294.215 277.273C294.215 270.765 288.925 265.489 282.399 265.489C275.873 265.489 270.583 270.765 270.583 277.273C270.583 283.781 275.873 289.056 282.399 289.056Z" fill="#F7F7F7"/>
<path d="M279.445 279.629C281.729 279.629 283.581 277.783 283.581 275.505C283.581 273.227 281.729 271.38 279.445 271.38C277.161 271.38 275.309 273.227 275.309 275.505C275.309 277.783 277.161 279.629 279.445 279.629Z" fill="#333333"/>
<path d="M290.197 327L296.105 319.188C296.413 318.775 296.578 318.28 296.578 317.774V305.554H291.852V316.984L286.416 324.172L290.186 327.012L290.197 327Z" fill="#333333"/>
<path d="M298.421 325.492L301.812 322.216L295.904 316.135C295.42 315.628 294.735 315.369 294.038 315.428L282.222 316.3L282.564 321.002L293.281 320.212L298.421 325.503V325.492Z" fill="#333333"/>
<path d="M263.021 322.286L268.929 314.474C269.236 314.061 269.402 313.566 269.402 313.06V304.375H264.675V312.27L259.24 319.458L263.009 322.298L263.021 322.286Z" fill="#333333"/>
<path d="M271.245 320.778L274.636 317.502L268.728 311.422C268.244 310.915 267.57 310.656 266.861 310.715L255.045 311.587L255.388 316.289L266.105 315.499L271.245 320.79V320.778Z" fill="#333333"/>
<path d="M51.9898 283.164L18.9054 232.494L0 273.737L31.9028 261.954L49.6266 285.521L51.9898 283.164Z" fill="#333333"/>
<path d="M392.286 121.727C392.286 121.727 418.281 122.905 426.552 114.656L431.279 124.083C431.279 124.083 417.1 134.689 392.286 131.154V121.727Z" fill="#F7F7F7" stroke="#333333" stroke-width="4" stroke-linejoin="round"/>
<path d="M420.644 145.294L424.189 153.543C424.189 153.543 441.913 152.364 457.274 142.937L452.547 135.867C452.547 135.867 439.55 142.937 420.644 145.294V145.294Z" fill="#F7F7F7" stroke="#333333" stroke-width="4" stroke-linejoin="round"/>
<path d="M447.821 165.326L451.366 173.575C451.366 173.575 479.724 168.862 485.632 162.38L482.678 153.79C482.678 153.79 478.542 158.268 447.821 165.338V165.326Z" fill="#F7F7F7" stroke="#333333" stroke-width="4" stroke-linejoin="round"/>
<path d="M479.724 185.359L482.087 194.786C482.087 194.786 499.811 188.894 505.719 183.002V174.753C505.719 174.753 493.903 181.824 479.724 185.359Z" fill="#F7F7F7" stroke="#333333" stroke-width="4" stroke-linejoin="round"/>
<path d="M498.629 175.932L497.447 168.862C497.447 168.862 505.718 168.862 506.9 173.575L498.629 175.932Z" fill="#F7F7F7" stroke="#333333" stroke-width="4" stroke-linejoin="round"/>
</g>
<defs>
<clipPath id="clip0_528_664">
<rect width="549" height="327" fill="white"/>
</clipPath>
</defs>
</svg>
