<svg width="200" height="200" viewBox="0 0 200 200" fill="none" xmlns="http://www.w3.org/2000/svg">
<path d="M154.06 117.933C153.655 105.342 132.602 95.2 106.668 95.2C80.7334 95.2 59.6802 105.342 59.2759 117.933V128.2C59.6802 140.791 80.7334 150.933 106.668 150.933C132.602 150.933 153.655 140.791 154.06 128.2V117.933Z" fill="#F7F7F7" stroke="#333333" stroke-width="4" stroke-linejoin="round"/>
<path d="M106.646 141.4C132.832 141.4 154.06 131.058 154.06 118.3C154.06 105.542 132.832 95.2 106.646 95.2C80.4597 95.2 59.2318 105.542 59.2318 118.3C59.2318 131.058 80.4597 141.4 106.646 141.4Z" fill="#F7F7F7" stroke="#333333" stroke-width="4" stroke-linejoin="round"/>
<path d="M66.9576 131.111V140.667" stroke="#333333" stroke-width="4" stroke-linejoin="round"/>
<path d="M62.9072 127.467V136.267" stroke="#333333" stroke-width="4" stroke-linejoin="round"/>
<path d="M72.8385 134.045V143.6" stroke="#333333" stroke-width="4" stroke-linejoin="round"/>
<path d="M79.4543 137.711V147.267" stroke="#333333" stroke-width="4" stroke-linejoin="round"/>
<path d="M87.5404 139.178V148.733" stroke="#333333" stroke-width="4" stroke-linejoin="round"/>
<path d="M94.8915 141.378V150.933" stroke="#333333" stroke-width="4" stroke-linejoin="round"/>
<path d="M103.713 141.378V150.933" stroke="#333333" stroke-width="4" stroke-linejoin="round"/>
<path d="M145.974 131.845V141.4" stroke="#333333" stroke-width="4" stroke-linejoin="round"/>
<path d="M150.024 128.2V137" stroke="#333333" stroke-width="4" stroke-linejoin="round"/>
<path d="M140.093 134.778V144.333" stroke="#333333" stroke-width="4" stroke-linejoin="round"/>
<path d="M133.477 138.445V148" stroke="#333333" stroke-width="4" stroke-linejoin="round"/>
<path d="M126.861 139.178V148.733" stroke="#333333" stroke-width="4" stroke-linejoin="round"/>
<path d="M119.51 140.645V150.2" stroke="#333333" stroke-width="4" stroke-linejoin="round"/>
<path d="M111.424 142.111V151.667" stroke="#333333" stroke-width="4" stroke-linejoin="round"/>
<path d="M68.7881 115C68.7881 115 79.8146 101.8 107.013 101.8C134.212 101.8 144.503 115 144.503 115" stroke="#333333" stroke-width="4" stroke-linejoin="round"/>
<path d="M140.828 102.533C140.424 89.942 119.37 79.8 93.436 79.8C67.5017 79.8 46.4485 89.942 46.0442 102.533V112.8C46.4485 125.391 67.5017 135.533 93.436 135.533C119.37 135.533 140.424 125.391 140.828 112.8V102.533Z" fill="#F7F7F7" stroke="#333333" stroke-width="4" stroke-linejoin="round"/>
<path d="M93.4139 126C119.6 126 140.828 115.658 140.828 102.9C140.828 90.1423 119.6 79.8 93.4139 79.8C67.2279 79.8 46 90.1423 46 102.9C46 115.658 67.2279 126 93.4139 126Z" fill="#F7F7F7" stroke="#333333" stroke-width="4" stroke-linejoin="round"/>
<path d="M53.726 115.711V125.267" stroke="#333333" stroke-width="4" stroke-linejoin="round"/>
<path d="M49.6755 112.067V120.867" stroke="#333333" stroke-width="4" stroke-linejoin="round"/>
<path d="M59.6067 118.645V128.2" stroke="#333333" stroke-width="4" stroke-linejoin="round"/>
<path d="M66.2225 122.311V131.867" stroke="#333333" stroke-width="4" stroke-linejoin="round"/>
<path d="M74.3087 123.778V133.333" stroke="#333333" stroke-width="4" stroke-linejoin="round"/>
<path d="M81.6597 125.978V135.533" stroke="#333333" stroke-width="4" stroke-linejoin="round"/>
<path d="M90.4808 125.978V135.533" stroke="#333333" stroke-width="4" stroke-linejoin="round"/>
<path d="M132.742 116.445V126" stroke="#333333" stroke-width="4" stroke-linejoin="round"/>
<path d="M136.792 112.8V121.6" stroke="#333333" stroke-width="4" stroke-linejoin="round"/>
<path d="M126.861 119.378V128.933" stroke="#333333" stroke-width="4" stroke-linejoin="round"/>
<path d="M120.245 123.045V132.6" stroke="#333333" stroke-width="4" stroke-linejoin="round"/>
<path d="M113.629 123.778V133.333" stroke="#333333" stroke-width="4" stroke-linejoin="round"/>
<path d="M106.278 125.245V134.8" stroke="#333333" stroke-width="4" stroke-linejoin="round"/>
<path d="M98.192 126.711V136.267" stroke="#333333" stroke-width="4" stroke-linejoin="round"/>
<path d="M55.5563 99.6C55.5563 99.6 66.5828 86.4 93.7814 86.4C120.98 86.4 131.272 99.6 131.272 99.6" stroke="#333333" stroke-width="4" stroke-linejoin="round"/>
<path d="M154.06 87.1334C153.655 74.542 132.602 64.4 106.668 64.4C80.7334 64.4 59.6802 74.542 59.2759 87.1334V97.4C59.6802 109.991 80.7334 120.133 106.668 120.133C132.602 120.133 153.655 109.991 154.06 97.4V87.1334Z" fill="#F7F7F7" stroke="#333333" stroke-width="4" stroke-linejoin="round"/>
<path d="M106.646 110.6C132.832 110.6 154.06 100.258 154.06 87.5C154.06 74.7422 132.832 64.4 106.646 64.4C80.4597 64.4 59.2318 74.7422 59.2318 87.5C59.2318 100.258 80.4597 110.6 106.646 110.6Z" fill="#F7F7F7" stroke="#333333" stroke-width="4" stroke-linejoin="round"/>
<path d="M66.9576 100.311V109.867" stroke="#333333" stroke-width="4" stroke-linejoin="round"/>
<path d="M62.9072 96.6666V105.467" stroke="#333333" stroke-width="4" stroke-linejoin="round"/>
<path d="M72.8385 103.245V112.8" stroke="#333333" stroke-width="4" stroke-linejoin="round"/>
<path d="M79.4543 106.911V116.467" stroke="#333333" stroke-width="4" stroke-linejoin="round"/>
<path d="M87.5404 108.378V117.933" stroke="#333333" stroke-width="4" stroke-linejoin="round"/>
<path d="M94.8915 110.578V120.133" stroke="#333333" stroke-width="4" stroke-linejoin="round"/>
<path d="M103.713 110.578V120.133" stroke="#333333" stroke-width="4" stroke-linejoin="round"/>
<path d="M145.974 101.045V110.6" stroke="#333333" stroke-width="4" stroke-linejoin="round"/>
<path d="M150.024 97.4V106.2" stroke="#333333" stroke-width="4" stroke-linejoin="round"/>
<path d="M140.093 103.978V113.533" stroke="#333333" stroke-width="4" stroke-linejoin="round"/>
<path d="M133.477 107.645V117.2" stroke="#333333" stroke-width="4" stroke-linejoin="round"/>
<path d="M126.861 108.378V117.933" stroke="#333333" stroke-width="4" stroke-linejoin="round"/>
<path d="M119.51 109.845V119.4" stroke="#333333" stroke-width="4" stroke-linejoin="round"/>
<path d="M111.424 111.311V120.867" stroke="#333333" stroke-width="4" stroke-linejoin="round"/>
<path d="M68.7881 84.2C68.7881 84.2 79.8146 71 107.013 71C134.212 71 144.503 84.2 144.503 84.2" stroke="#333333" stroke-width="4" stroke-linejoin="round"/>
<path d="M140.828 71.7333C140.424 59.142 119.37 49 93.436 49C67.5017 49 46.4485 59.142 46.0442 71.7333V82C46.4485 94.5913 67.5017 104.733 93.436 104.733C119.37 104.733 140.424 94.5913 140.828 82V71.7333Z" fill="#F7F7F7" stroke="#333333" stroke-width="4" stroke-linejoin="round"/>
<path d="M93.4139 95.2C119.6 95.2 140.828 84.8578 140.828 72.1C140.828 59.3422 119.6 49 93.4139 49C67.2279 49 46 59.3422 46 72.1C46 84.8578 67.2279 95.2 93.4139 95.2Z" fill="#F7F7F7" stroke="#333333" stroke-width="4" stroke-linejoin="round"/>
<path d="M53.726 84.9114V94.4667" stroke="#333333" stroke-width="4" stroke-linejoin="round"/>
<path d="M49.6755 81.2666V90.0666" stroke="#333333" stroke-width="4" stroke-linejoin="round"/>
<path d="M59.6067 87.8447V97.4001" stroke="#333333" stroke-width="4" stroke-linejoin="round"/>
<path d="M66.2225 91.5114V101.067" stroke="#333333" stroke-width="4" stroke-linejoin="round"/>
<path d="M74.3087 92.978V102.533" stroke="#333333" stroke-width="4" stroke-linejoin="round"/>
<path d="M81.6597 95.178V104.733" stroke="#333333" stroke-width="4" stroke-linejoin="round"/>
<path d="M90.4808 95.178V104.733" stroke="#333333" stroke-width="4" stroke-linejoin="round"/>
<path d="M132.742 85.6447V95.2" stroke="#333333" stroke-width="4" stroke-linejoin="round"/>
<path d="M136.792 82V90.8" stroke="#333333" stroke-width="4" stroke-linejoin="round"/>
<path d="M126.861 88.578V98.1333" stroke="#333333" stroke-width="4" stroke-linejoin="round"/>
<path d="M120.245 92.2446V101.8" stroke="#333333" stroke-width="4" stroke-linejoin="round"/>
<path d="M113.629 92.978V102.533" stroke="#333333" stroke-width="4" stroke-linejoin="round"/>
<path d="M106.278 94.4447V104" stroke="#333333" stroke-width="4" stroke-linejoin="round"/>
<path d="M98.192 95.9114V105.467" stroke="#333333" stroke-width="4" stroke-linejoin="round"/>
<path d="M55.5563 68.8C55.5563 68.8 66.5828 55.6 93.7814 55.6C120.98 55.6 131.272 68.8 131.272 68.8" stroke="#333333" stroke-width="4" stroke-linejoin="round"/>
</svg>
