<svg width="200" height="200" viewBox="0 0 200 200" fill="none" xmlns="http://www.w3.org/2000/svg">
<path d="M62.6246 49.7059V170.387" stroke="#333333" stroke-width="4"/>
<path d="M134 30L134 160" stroke="#333333" stroke-width="4"/>
<path d="M165 72.0793L47.0311 72.0793" stroke="#333333" stroke-width="4"/>
<path d="M95.8458 72.0793L62.6247 102.589" stroke="#333333" stroke-width="4"/>
<path d="M110.083 72.0793L62.6246 119.538" stroke="#333333" stroke-width="4"/>
<path d="M126.355 72.7573L72.7944 126.318" stroke="#333333" stroke-width="4"/>
<path d="M133.813 81.5712L87.7101 127.674" stroke="#333333" stroke-width="4"/>
<path d="M133.813 96.4867L103.982 126.318" stroke="#333333" stroke-width="4"/>
<path d="M133.813 112.758L120.253 126.318" stroke="#333333" stroke-width="4"/>
<path d="M80.2522 72.7573L62.6247 90.3849" stroke="#333333" stroke-width="4"/>
<path d="M146.614 126.801L34 126.801" stroke="#333333" stroke-width="4"/>
<g clip-path="url(#clip0_363_1247)">
<path d="M115.971 132.929V106.116L137.421 122.204L131.292 127.567L145.082 145.187L135.123 150.549L124.398 130.631L115.971 132.929Z" fill="#F7F7F7" stroke="#333333" stroke-width="4" stroke-linejoin="round"/>
</g>
<defs>
<clipPath id="clip0_363_1247">
<rect width="32.1754" height="47.4971" fill="white" transform="translate(114.439 104.584)"/>
</clipPath>
</defs>
</svg>
