<svg width="200" height="198" viewBox="0 0 200 198" fill="none" xmlns="http://www.w3.org/2000/svg">
<path d="M69.6407 133.158C69.6407 133.158 68.4195 138.029 55.5889 138.029C42.7582 138.029 40.8491 134.368 40.8491 134.368C40.8491 134.368 39.0945 108.181 56.1995 108.181C73.3044 108.181 69.6407 133.158 69.6407 133.158Z" fill="#333333"/>
<path d="M55.5889 127.671C58.9612 127.671 61.695 124.945 61.695 121.583C61.695 118.22 58.9612 115.494 55.5889 115.494C52.2165 115.494 49.4827 118.22 49.4827 121.583C49.4827 124.945 52.2165 127.671 55.5889 127.671Z" fill="#F7F7F7"/>
<path d="M57.1115 123.417C58.294 123.417 59.2526 122.461 59.2526 121.282C59.2526 120.103 58.294 119.147 57.1115 119.147C55.9291 119.147 54.9705 120.103 54.9705 121.282C54.9705 122.461 55.9291 123.417 57.1115 123.417Z" fill="#333333"/>
<path d="M52.1648 147.292L49.1117 143.254C48.9494 143.046 48.8644 142.784 48.8644 142.522V136.21H51.3068V142.121L54.1126 145.836L52.1648 147.3V147.292Z" fill="#333333"/>
<path d="M47.9137 146.506L46.1591 144.81L49.2122 141.666C49.4673 141.404 49.8151 141.265 50.1784 141.296L56.2845 141.743L56.1067 144.171L50.5648 143.762L47.9059 146.498L47.9137 146.506Z" fill="#333333"/>
<path d="M66.2167 144.857L63.1636 140.819C63.0013 140.61 62.9163 140.348 62.9163 140.086V135.601H65.3587V139.678L68.1645 143.393L66.2167 144.857Z" fill="#333333"/>
<path d="M61.9656 144.071L60.211 142.375L63.2641 139.231C63.5191 138.969 63.867 138.838 64.2302 138.861L70.3364 139.308L70.1586 141.736L64.6167 141.327L61.9578 144.063L61.9656 144.071Z" fill="#333333"/>
<path d="M123.398 105.745C123.398 105.745 122.177 110.616 109.346 110.616C96.5155 110.616 94.6064 106.955 94.6064 106.955C94.6064 106.955 92.8518 80.7681 109.957 80.7681C127.062 80.7681 123.398 105.745 123.398 105.745Z" fill="#333333"/>
<path d="M109.346 100.266C112.719 100.266 115.452 97.5401 115.452 94.1776C115.452 90.8152 112.719 88.0894 109.346 88.0894C105.974 88.0894 103.24 90.8152 103.24 94.1776C103.24 97.5401 105.974 100.266 109.346 100.266Z" fill="#F7F7F7"/>
<path d="M107.824 95.3955C109.006 95.3955 109.965 94.4397 109.965 93.2607C109.965 92.0817 109.006 91.126 107.824 91.126C106.641 91.126 105.682 92.0817 105.682 93.2607C105.682 94.4397 106.641 95.3955 107.824 95.3955Z" fill="#333333"/>
<path d="M113.381 119.88L116.434 115.841C116.596 115.633 116.681 115.371 116.681 115.109V108.797H114.239V114.708L111.433 118.423L113.381 119.887V119.88Z" fill="#333333"/>
<path d="M117.632 119.101L119.387 117.406L116.333 114.261C116.078 113.999 115.731 113.861 115.367 113.891L109.261 114.338L109.439 116.766L114.981 116.358L117.64 119.093L117.632 119.101Z" fill="#333333"/>
<path d="M99.329 117.444L102.382 113.406C102.544 113.198 102.629 112.936 102.629 112.674V108.188H100.187V112.265L97.3812 115.98L99.329 117.444Z" fill="#333333"/>
<path d="M103.58 116.666L105.335 114.97L102.282 111.826C102.027 111.564 101.679 111.433 101.315 111.456L95.2093 111.903L95.3871 114.331L100.929 113.922L103.588 116.658L103.58 116.666Z" fill="#333333"/>
<path d="M60.211 109.791C71.3798 109.529 80.2222 98.3778 80.0212 84.6907C79.8202 71.0036 70.6533 59.9214 59.4767 59.7595L50.3638 59.7903C39.195 60.0601 30.3526 71.2117 30.5536 84.8988C30.7546 98.5858 39.9215 109.668 51.0981 109.83L60.211 109.799V109.791Z" fill="#F7F7F7" stroke="#333333" stroke-width="4" stroke-linejoin="round"/>
<path d="M58.991 109.79C71.4039 109.052 80.7979 97.264 79.9729 83.4598C79.148 69.6556 68.4165 59.063 56.0036 59.8004C43.5906 60.5379 34.1967 72.3263 35.0217 86.1305C35.8466 99.9347 46.578 110.527 58.991 109.79Z" fill="#F7F7F7" stroke="#333333" stroke-width="4" stroke-linejoin="round"/>
<path d="M58.5592 104.758C68.0489 104.194 75.209 94.8199 74.5516 83.8199C73.8942 72.8199 65.6684 64.3597 56.1786 64.9235C46.6889 65.4873 39.5288 74.8616 40.1862 85.8616C40.8436 96.8617 49.0694 105.322 58.5592 104.758Z" fill="#F7F7F7" stroke="#333333" stroke-width="4" stroke-linejoin="round"/>
<path d="M48.1919 107.734L42.7504 107.741" stroke="#333333" stroke-width="4" stroke-linejoin="round"/>
<path d="M65.3587 74.6797H50.6962V95.3876H65.3587V74.6797Z" fill="#F7F7F7" stroke="#333333" stroke-width="4" stroke-linejoin="round"/>
<path d="M59.8631 78.3403H54.9782V88.0893H59.8631V78.3403Z" fill="#333333"/>
<path d="M104.469 83.5885C93.3002 83.3265 84.4579 72.1749 84.6588 58.4878C84.8598 44.8007 94.0267 33.7185 105.203 33.5566L114.316 33.5875C125.485 33.8572 134.327 45.0088 134.126 58.6959C133.925 72.383 124.758 83.4652 113.582 83.627L104.469 83.5962V83.5885Z" fill="#F7F7F7" stroke="#333333" stroke-width="4" stroke-linejoin="round"/>
<path d="M129.654 59.9166C130.479 46.1124 121.085 34.3241 108.672 33.5866C96.2592 32.8491 85.5278 43.4418 84.7028 57.246C83.8779 71.0502 93.2718 82.8386 105.685 83.576C118.098 84.3135 128.829 73.7208 129.654 59.9166Z" fill="#F7F7F7" stroke="#333333" stroke-width="4" stroke-linejoin="round"/>
<path d="M124.484 59.6513C125.141 48.6512 117.981 39.2769 108.491 38.7131C99.0017 38.1493 90.7759 46.6095 90.1185 57.6096C89.4611 68.6096 96.6212 77.9839 106.111 78.5477C115.601 79.1115 123.827 70.6513 124.484 59.6513Z" fill="#F7F7F7" stroke="#333333" stroke-width="4" stroke-linejoin="round"/>
<path d="M116.48 81.5308L121.93 81.5385" stroke="#333333" stroke-width="4" stroke-linejoin="round"/>
<path d="M99.3136 69.1924H113.976V48.4845H99.3136V69.1924Z" fill="#F7F7F7" stroke="#333333" stroke-width="4" stroke-linejoin="round"/>
<path d="M104.817 61.8789H109.702V52.1299H104.817V61.8789Z" fill="#333333"/>
<path d="M155.298 153.866C155.298 153.866 154.077 158.736 141.246 158.736C128.416 158.736 126.507 155.076 126.507 155.076C126.507 155.076 124.752 128.888 141.857 128.888C158.962 128.888 155.298 153.866 155.298 153.866Z" fill="#333333"/>
<path d="M141.254 148.386C144.627 148.386 147.36 145.66 147.36 142.298C147.36 138.936 144.627 136.21 141.254 136.21C137.882 136.21 135.148 138.936 135.148 142.298C135.148 145.66 137.882 148.386 141.254 148.386Z" fill="#F7F7F7"/>
<path d="M139.724 143.516C140.906 143.516 141.865 142.56 141.865 141.381C141.865 140.202 140.906 139.246 139.724 139.246C138.541 139.246 137.583 140.202 137.583 141.381C137.583 142.56 138.541 143.516 139.724 143.516Z" fill="#333333"/>
<path d="M145.281 168L148.334 163.962C148.497 163.754 148.582 163.492 148.582 163.23V156.918H146.139V162.829L143.333 166.543L145.281 168.008V168Z" fill="#333333"/>
<path d="M149.54 167.222L151.295 165.526L148.242 162.382C147.986 162.12 147.639 161.981 147.275 162.012L141.169 162.459L141.347 164.886L146.889 164.478L149.548 167.214L149.54 167.222Z" fill="#333333"/>
<path d="M131.229 165.565L134.282 161.526C134.445 161.318 134.53 161.056 134.53 160.794V156.309H132.087V160.386L129.281 164.1L131.229 165.565Z" fill="#333333"/>
<path d="M135.488 164.786L137.243 163.091L134.19 159.947C133.935 159.684 133.587 159.553 133.223 159.577L127.117 160.024L127.295 162.451L132.837 162.043L135.496 164.779L135.488 164.786Z" fill="#333333"/>
<path d="M137.266 132.911C126.097 132.649 117.255 121.498 117.456 107.811C117.657 94.1235 126.824 83.0412 138 82.8794L147.113 82.9102C158.282 83.18 167.124 94.3315 166.923 108.019C166.722 121.706 157.555 132.788 146.379 132.95L137.266 132.919V132.911Z" fill="#F7F7F7" stroke="#333333" stroke-width="4" stroke-linejoin="round"/>
<path d="M162.445 109.239C163.27 95.4352 153.876 83.6468 141.463 82.9094C129.05 82.1719 118.319 92.7646 117.494 106.569C116.669 120.373 126.063 132.161 138.476 132.899C150.889 133.636 161.62 123.044 162.445 109.239Z" fill="#F7F7F7" stroke="#333333" stroke-width="4" stroke-linejoin="round"/>
<path d="M157.275 108.974C157.932 97.974 150.772 88.5997 141.282 88.0359C131.793 87.4721 123.567 95.9323 122.909 106.932C122.252 117.932 129.412 127.307 138.902 127.87C148.392 128.434 156.617 119.974 157.275 108.974Z" fill="#F7F7F7" stroke="#333333" stroke-width="4" stroke-linejoin="round"/>
<path d="M149.277 130.854L154.726 130.861" stroke="#333333" stroke-width="4" stroke-linejoin="round"/>
<path d="M132.11 118.515H146.773V97.8073H132.11V118.515Z" fill="#F7F7F7" stroke="#333333" stroke-width="4" stroke-linejoin="round"/>
<path d="M137.614 111.202H142.499V101.453H137.614V111.202Z" fill="#333333"/>
</svg>
