<svg width="320" height="59" viewBox="0 0 320 59" fill="none" xmlns="http://www.w3.org/2000/svg">
<path d="M1.47106 37.455C1.47106 37.455 3.21574 44.7632 21.5349 44.7632C39.854 44.7632 42.5758 39.282 42.5758 39.282C42.5758 39.282 45.088 0 20.6625 0C-3.76297 0 1.47106 37.455 1.47106 37.455Z" fill="#333333"/>
<path d="M12.5 29.3627C16.6421 29.3627 20 25.137 20 19.9245C20 14.7119 16.6421 10.4863 12.5 10.4863C8.35786 10.4863 5 14.7119 5 19.9245C5 25.137 8.35786 29.3627 12.5 29.3627Z" fill="#F7F7F7"/>
<path d="M10.5 23.0714C11.8807 23.0714 13 21.6628 13 19.9253C13 18.1878 11.8807 16.7793 10.5 16.7793C9.11929 16.7793 8 18.1878 8 19.9253C8 21.6628 9.11929 23.0714 10.5 23.0714Z" fill="#333333"/>
<path d="M27.6046 58.7262L31.6744 52.6139C31.8857 52.2947 32 51.9066 32 51.5076V41.9473H28.7442V50.8899L25 56.5137L27.6046 58.7262Z" fill="#333333"/>
<path d="M33.3961 57.6776L36 54.9417L31.4792 49.8915C31.2949 49.6832 31.0706 49.5216 30.822 49.4182C30.5735 49.3148 30.3071 49.2722 30.0416 49.2934L21 50.019L21.2713 53.9414L29.4629 53.2844L33.3961 57.6776Z" fill="#333333"/>
<path d="M5.60462 51.3858L9.6744 45.4394C9.88574 45.1289 10 44.7512 10 44.3631V37.7529H6.74418V43.7622L3 49.2334L5.60462 51.3858Z" fill="#333333"/>
<path d="M12.3961 50.3369L15 47.943L10.4792 43.5241C10.2949 43.3418 10.0706 43.2004 9.82204 43.11C9.57354 43.0195 9.30706 42.9822 9.04161 43.0007L0 43.6357L0.271293 47.0678L8.46293 46.4928L12.3961 50.3369Z" fill="#333333"/>
<path d="M320 54L33 54" stroke="#333333" stroke-width="4"/>
</svg>
