<svg width="112" height="41" viewBox="0 0 112 41" fill="none" xmlns="http://www.w3.org/2000/svg">
<g clip-path="url(#clip0_436_420)">
<path d="M18.8035 9.10583H8.75903V19.1503H18.8035V9.10583Z" fill="#333333"/>
<path d="M0 0V40.7248H40.7248V0H0ZM36.6511 36.6511H4.07374V4.07374H36.6511V36.6511Z" fill="#333333"/>
<path d="M46.6207 3.02319H51.3045V15.06H54.6737V3.02319H59.3362V0.0985107H46.6207V3.02319Z" fill="#333333"/>
<path d="M64.5282 8.82999H70.4414V15.06H73.8106V0.0985107H70.4414V5.92659H64.5282V0.0985107H61.1803V15.06H64.5282V8.82999Z" fill="#333333"/>
<path d="M79.9989 15.06H87.4378V12.1779H79.9989V8.82999H86.6749V6.01092H79.9989V2.98063H87.3101V0.0985107H79.9989H79.2147H76.651V15.06H79.2147H79.9989Z" fill="#333333"/>
<path d="M56.5178 32.8619C56.108 32.5088 55.6525 32.2227 55.1512 32.0036C54.6492 31.7845 54.148 31.5906 53.6467 31.4212C53.1447 31.2517 52.686 31.0823 52.2691 30.9129C51.8522 30.7434 51.5165 30.5417 51.2627 30.3092C51.0081 30.0759 50.8813 29.7764 50.8813 29.4084C50.8813 28.9985 51.0507 28.6849 51.3896 28.465C51.7285 28.2459 52.1879 28.1363 52.7672 28.1363C53.3465 28.1363 53.8446 28.2498 54.304 28.4752C54.7627 28.7014 55.2182 29.0474 55.6706 29.514L57.8537 27.3309C57.2886 26.7091 56.5746 26.2149 55.7132 25.8477C54.851 25.4804 53.8903 25.2968 52.831 25.2968C51.7718 25.2968 50.9025 25.4702 50.0971 25.8161C49.2916 26.1621 48.6667 26.6673 48.2214 27.3317C47.7761 27.9961 47.5539 28.7936 47.5539 29.7268C47.5539 30.4755 47.6807 31.1044 47.9353 31.6127C48.1899 32.121 48.5248 32.5379 48.9417 32.8634C49.3586 33.1889 49.8173 33.464 50.3193 33.6902C50.8206 33.9164 51.3187 34.111 51.8136 34.2726C52.3077 34.4349 52.7672 34.6083 53.1912 34.7919C53.6152 34.9756 53.9502 35.1947 54.1976 35.4492C54.4443 35.7038 54.5688 36.0285 54.5688 36.4241C54.5688 36.8765 54.3742 37.2327 53.9864 37.4944C53.5979 37.756 53.0572 37.8869 52.3653 37.8869C51.5882 37.8869 50.9065 37.7355 50.3201 37.4313C49.7338 37.1279 49.2002 36.7 48.7203 36.1491L46.5585 38.3109C47.2788 39.1305 48.0811 39.7381 48.9638 40.1338C49.8465 40.5294 50.9096 40.7272 52.1533 40.7272C53.962 40.7272 55.3743 40.3213 56.3917 39.5088C57.4092 38.6962 57.9175 37.5771 57.9175 36.1499C57.9175 35.3586 57.7867 34.7021 57.525 34.1788C57.2634 33.6563 56.9276 33.2181 56.5186 32.865L56.5178 32.8619Z" fill="#333333"/>
<path d="M70.6636 27.7439C70.2183 27.0306 69.6107 26.4829 68.8407 26.1014C68.0707 25.72 67.2125 25.5293 66.2659 25.5293H59.9926V40.4916H63.3413V35.0449H66.2659C67.2125 35.0449 68.0707 34.8542 68.8407 34.4727C69.6107 34.0913 70.2183 33.5436 70.6636 32.8303C71.1089 32.1171 71.3312 31.273 71.3312 30.2981C71.3312 29.3232 71.1089 28.4579 70.6636 27.7446V27.7439ZM67.6861 31.463C67.4883 31.7884 67.2235 32.032 66.8917 32.1943C66.5599 32.3567 66.1887 32.4378 65.7789 32.4378H63.342V28.1355H65.7789C66.1887 28.1355 66.5591 28.2167 66.8917 28.3791C67.2235 28.5414 67.4883 28.7857 67.6861 29.1104C67.8839 29.4359 67.9825 29.8308 67.9825 30.2973C67.9825 30.7639 67.8832 31.1383 67.6861 31.463Z" fill="#333333"/>
<path d="M76.9472 25.5293L71.0348 40.4916H74.4891L75.4829 37.8002H81.3385L82.3095 40.4916H85.8489L79.9783 25.5293H76.948H76.9472ZM76.4846 35.0875L78.4454 29.778L80.3605 35.0875H76.4854H76.4846Z" fill="#333333"/>
<path d="M95.7027 37.3234C95.1377 37.5567 94.4733 37.6733 93.7104 37.6733C93.0602 37.6733 92.4668 37.5638 91.93 37.3447C91.3926 37.1256 90.9268 36.808 90.5312 36.3911C90.1355 35.9741 89.8321 35.48 89.6201 34.9078C89.4081 34.3357 89.3025 33.6965 89.3025 32.9896C89.3025 32.2826 89.4081 31.6829 89.6201 31.1036C89.8321 30.5243 90.1355 30.0302 90.5312 29.6204C90.9268 29.2106 91.3926 28.8961 91.93 28.677C92.4668 28.4579 93.0602 28.3484 93.7104 28.3484C94.4449 28.3484 95.0912 28.4682 95.6499 28.7085C96.2079 28.9489 96.6776 29.2807 97.0591 29.7047L99.3052 27.4373C98.6124 26.7737 97.8038 26.2504 96.8786 25.869C95.9534 25.4875 94.8973 25.2968 93.7104 25.2968C92.5235 25.2968 91.5415 25.4914 90.595 25.8792C89.6485 26.2677 88.8178 26.8084 88.1046 27.5003C87.3913 28.1931 86.8365 29.0088 86.4409 29.9482C86.0452 30.8877 85.8474 31.902 85.8474 32.9896C85.8474 34.0772 86.0452 35.0915 86.4409 36.0309C86.8365 36.9703 87.3905 37.7931 88.1046 38.5001C88.8178 39.207 89.6516 39.7539 90.6052 40.1425C91.5589 40.531 92.5936 40.7257 93.7096 40.7257C94.9391 40.7257 96.0196 40.5381 96.9519 40.1638C97.8842 39.7894 98.7039 39.2629 99.41 38.5852L97.1426 36.3178C96.747 36.756 96.2662 37.0909 95.7012 37.3242L95.7027 37.3234Z" fill="#333333"/>
<path d="M104.561 37.6094V34.2607H111.237V31.4425H104.561V28.4114H111.872V25.5293H104.561H103.777H101.213V40.4916H103.777H104.561H112V37.6094H104.561Z" fill="#333333"/>
</g>
<defs>
<clipPath id="clip0_436_420">
<rect width="112" height="40.7248" fill="white"/>
</clipPath>
</defs>
</svg>
