<svg width="338" height="270" viewBox="0 0 338 270" fill="none" xmlns="http://www.w3.org/2000/svg">
<g clip-path="url(#clip0_1514_7422)">
<path d="M248.79 83.54C248.79 83.54 248.15 101.54 235.93 101.54C235.93 101.54 248.79 103.47 248.79 122.75C248.79 122.75 248.15 102.18 262.93 102.18C262.93 102.18 248.79 101.54 248.79 83.54Z" fill="white" stroke="#333333" stroke-width="4" stroke-linejoin="round"/>
<path d="M119.79 41.54C119.79 41.54 119.15 59.54 106.93 59.54C106.93 59.54 119.79 61.47 119.79 80.75C119.79 80.75 119.15 60.18 133.93 60.18C133.93 60.18 119.79 59.54 119.79 41.54Z" fill="white" stroke="#333333" stroke-width="4" stroke-linejoin="round"/>
<path d="M146.92 135.06C146.92 135.06 116.62 152.53 111.49 161.76L117.55 167.99L147.36 147.99L146.91 135.05L146.92 135.06Z" fill="white" stroke="#333333" stroke-width="4" stroke-linejoin="round"/>
<path d="M276.369 159C276.369 159 267.369 179 254.369 185L248.369 170L272.539 153L276.369 159Z" fill="white" stroke="#333333" stroke-width="4" stroke-linejoin="round"/>
<path d="M162.869 181.59C162.869 181.59 158.369 207.28 158.369 209.73C158.369 212.18 149.369 220.33 160.369 221.97L163.369 239.92L147.369 255.42C147.369 255.42 144.369 257.87 148.369 258.68C152.369 259.49 153.369 257.05 153.369 257.05C153.369 257.05 151.369 263.58 154.369 261.94C157.369 260.31 158.369 258.68 158.369 258.68C158.369 258.68 156.369 264.39 159.369 264.39C162.369 264.39 163.369 261.13 163.369 261.13C163.369 261.13 161.369 266.02 164.369 266.02C167.369 266.02 167.369 261.94 167.369 261.94C167.369 261.94 168.369 269.28 170.369 267.65C172.369 266.02 172.369 262.76 172.369 262.76C172.369 262.76 173.369 252.97 175.369 248.08C177.369 243.19 179.369 244 178.369 238.29C177.369 232.58 180.369 222.79 176.369 217.08L188.369 182.01L162.869 181.6V181.59Z" fill="white" stroke="#333333" stroke-width="4" stroke-linejoin="round"/>
<path d="M172.449 199.65L171.369 202.35" stroke="#333333" stroke-width="4" stroke-linejoin="round"/>
<path d="M173.449 193.94L172.369 196.64" stroke="#333333" stroke-width="4" stroke-linejoin="round"/>
<path d="M177.449 204.55L176.369 207.24" stroke="#333333" stroke-width="4" stroke-linejoin="round"/>
<path d="M166.449 194.76L165.369 197.45" stroke="#333333" stroke-width="4" stroke-linejoin="round"/>
<path d="M180.328 196.36L179.488 199.11" stroke="#333333" stroke-width="4" stroke-linejoin="round"/>
<path d="M180.328 189.84L179.488 192.59" stroke="#333333" stroke-width="4" stroke-linejoin="round"/>
<path d="M174.449 185.79L173.369 188.48" stroke="#333333" stroke-width="4" stroke-linejoin="round"/>
<path d="M166.449 183.34L165.369 186.03" stroke="#333333" stroke-width="4" stroke-linejoin="round"/>
<path d="M168.449 189.05L167.369 191.74" stroke="#333333" stroke-width="4" stroke-linejoin="round"/>
<path d="M163.449 200.47L162.369 203.16" stroke="#333333" stroke-width="4" stroke-linejoin="round"/>
<path d="M181.449 183.34L180.369 186.03" stroke="#333333" stroke-width="4" stroke-linejoin="round"/>
<path d="M172.229 224.98L173.589 227.59" stroke="#333333" stroke-width="4" stroke-linejoin="round"/>
<path d="M173.35 219.24L174.47 221.92" stroke="#333333" stroke-width="4" stroke-linejoin="round"/>
<path d="M174.119 231.55L175.699 234.08" stroke="#333333" stroke-width="4" stroke-linejoin="round"/>
<path d="M166.439 220.03L167.379 222.76" stroke="#333333" stroke-width="4" stroke-linejoin="round"/>
<path d="M167.219 237.31L168.599 239.74" stroke="#333333" stroke-width="4" stroke-linejoin="round"/>
<path d="M175.219 238.12L176.599 240.55" stroke="#333333" stroke-width="4" stroke-linejoin="round"/>
<path d="M166.51 230.62L167.31 233.38" stroke="#333333" stroke-width="4" stroke-linejoin="round"/>
<path d="M175.449 211.07L174.369 213.77" stroke="#333333" stroke-width="4" stroke-linejoin="round"/>
<path d="M169.449 206.18L168.369 208.87" stroke="#333333" stroke-width="4" stroke-linejoin="round"/>
<path d="M168.099 213.46L167.719 216.28" stroke="#333333" stroke-width="4" stroke-linejoin="round"/>
<path d="M163.35 225.76L164.47 228.44" stroke="#333333" stroke-width="4" stroke-linejoin="round"/>
<path d="M162.449 208.63L161.369 211.32" stroke="#333333" stroke-width="4" stroke-linejoin="round"/>
<path d="M224.789 181.59C224.789 181.59 229.289 207.28 229.289 209.73C229.289 212.18 238.289 220.33 227.289 221.97L224.289 239.92L240.289 255.42C240.289 255.42 243.289 257.87 239.289 258.68C235.289 259.49 234.289 257.05 234.289 257.05C234.289 257.05 236.289 263.58 233.289 261.94C230.289 260.31 229.289 258.68 229.289 258.68C229.289 258.68 231.289 264.39 228.289 264.39C225.289 264.39 224.289 261.13 224.289 261.13C224.289 261.13 226.289 266.02 223.289 266.02C220.289 266.02 220.289 261.94 220.289 261.94C220.289 261.94 219.289 269.28 217.289 267.65C215.289 266.02 215.289 262.76 215.289 262.76C215.289 262.76 214.289 252.97 212.289 248.08C210.289 243.19 208.289 244 209.289 238.29C210.289 232.58 207.289 222.79 211.289 217.08L199.289 182.01L224.789 181.6V181.59Z" fill="white" stroke="#333333" stroke-width="4" stroke-linejoin="round"/>
<path d="M215.209 199.65L216.279 202.35" stroke="#333333" stroke-width="4" stroke-linejoin="round"/>
<path d="M214.209 193.94L215.279 196.64" stroke="#333333" stroke-width="4" stroke-linejoin="round"/>
<path d="M210.209 204.55L211.279 207.24" stroke="#333333" stroke-width="4" stroke-linejoin="round"/>
<path d="M221.209 194.76L222.279 197.45" stroke="#333333" stroke-width="4" stroke-linejoin="round"/>
<path d="M207.328 196.36L208.168 199.11" stroke="#333333" stroke-width="4" stroke-linejoin="round"/>
<path d="M207.328 189.84L208.168 192.59" stroke="#333333" stroke-width="4" stroke-linejoin="round"/>
<path d="M213.209 185.79L214.279 188.48" stroke="#333333" stroke-width="4" stroke-linejoin="round"/>
<path d="M221.209 183.34L222.279 186.03" stroke="#333333" stroke-width="4" stroke-linejoin="round"/>
<path d="M219.209 189.05L220.279 191.74" stroke="#333333" stroke-width="4" stroke-linejoin="round"/>
<path d="M224.209 200.47L225.279 203.16" stroke="#333333" stroke-width="4" stroke-linejoin="round"/>
<path d="M206.209 183.34L207.279 186.03" stroke="#333333" stroke-width="4" stroke-linejoin="round"/>
<path d="M215.429 224.98L214.059 227.59" stroke="#333333" stroke-width="4" stroke-linejoin="round"/>
<path d="M214.299 219.24L213.189 221.92" stroke="#333333" stroke-width="4" stroke-linejoin="round"/>
<path d="M213.529 231.55L211.959 234.08" stroke="#333333" stroke-width="4" stroke-linejoin="round"/>
<path d="M221.219 220.03L220.279 222.76" stroke="#333333" stroke-width="4" stroke-linejoin="round"/>
<path d="M220.439 237.31L219.059 239.74" stroke="#333333" stroke-width="4" stroke-linejoin="round"/>
<path d="M212.439 238.12L211.059 240.55" stroke="#333333" stroke-width="4" stroke-linejoin="round"/>
<path d="M221.14 230.62L220.35 233.38" stroke="#333333" stroke-width="4" stroke-linejoin="round"/>
<path d="M212.209 211.07L213.279 213.77" stroke="#333333" stroke-width="4" stroke-linejoin="round"/>
<path d="M218.209 206.18L219.279 208.87" stroke="#333333" stroke-width="4" stroke-linejoin="round"/>
<path d="M219.559 213.46L219.929 216.28" stroke="#333333" stroke-width="4" stroke-linejoin="round"/>
<path d="M224.309 225.76L223.189 228.44" stroke="#333333" stroke-width="4" stroke-linejoin="round"/>
<path d="M225.209 208.63L226.279 211.32" stroke="#333333" stroke-width="4" stroke-linejoin="round"/>
<path d="M166.859 40C166.859 40 161.369 52.59 161.369 56.6C161.369 60.61 166.869 58.89 169.609 56.6C172.349 54.31 174.509 40.72 174.509 40.72L166.859 40Z" fill="white" stroke="#333333" stroke-width="4" stroke-linejoin="round"/>
<path d="M163.369 57L154.369 75L159.369 78L167.369 58L163.369 57Z" fill="#333333"/>
<path d="M229.019 40C229.019 40 234.509 52.59 234.509 56.6C234.509 60.61 229.009 58.89 226.269 56.6C223.529 54.31 221.369 40.72 221.369 40.72L229.019 40Z" fill="white" stroke="#333333" stroke-width="4" stroke-linejoin="round"/>
<path d="M232.51 57L241.51 75L236.51 78L228.51 58L232.51 57Z" fill="#333333"/>
<path d="M198.369 13C183.369 13 174.369 25 172.369 48C170.369 71 170.369 91 170.369 108C170.369 125 149.369 126 137.369 147C125.369 168 116.339 204.47 193.369 209C261.369 213 272.289 183.18 256.369 154C244.369 132 222.369 132 222.369 111V47C222.369 37 223.369 13 198.369 13Z" fill="white" stroke="#333333" stroke-width="4" stroke-linejoin="round"/>
<path d="M168.869 29.4C168.869 29.4 167.869 2 196.869 2C230.869 2 228.869 29.4 228.869 29.4C228.869 29.4 198.869 43 168.869 29.4Z" fill="white" stroke="#333333" stroke-width="4" stroke-linejoin="round"/>
<path d="M166.919 38.34C174.669 40.93 199.299 47.44 230.179 38.24C231.759 37.77 232.869 36.18 232.869 34.35C232.869 31.83 230.829 29.93 228.619 30.41C219.289 32.41 195.649 36.16 168.629 30.37C166.419 29.9 164.369 31.78 164.369 34.3V34.49C164.369 36.27 165.409 37.83 166.929 38.34H166.919Z" fill="white" stroke="#333333" stroke-width="4" stroke-linejoin="round"/>
<path d="M189.85 72.87C189.85 72.87 176.33 95.51 164.51 99.13C152.69 102.75 177.18 117.24 189.85 110C202.52 102.76 203.37 74.68 203.37 74.68C203.37 74.68 199.15 69.25 189.85 72.87Z" fill="white" stroke="#333333" stroke-width="4" stroke-linejoin="round"/>
<path d="M188.719 60.02C188.719 60.02 172.079 85.46 157.509 89.53C142.949 93.6 173.109 109.88 188.719 101.74C204.319 93.6 205.359 62.05 205.359 62.05C205.359 62.05 200.159 55.94 188.719 60.01V60.02Z" fill="white" stroke="#333333" stroke-width="4" stroke-linejoin="round"/>
<path d="M183.93 54.3C185.863 54.3 187.43 53.0822 187.43 51.58C187.43 50.0778 185.863 48.86 183.93 48.86C181.997 48.86 180.43 50.0778 180.43 51.58C180.43 53.0822 181.997 54.3 183.93 54.3Z" fill="#333333"/>
<path d="M207.93 54.3C209.863 54.3 211.43 53.0822 211.43 51.58C211.43 50.0778 209.863 48.86 207.93 48.86C205.997 48.86 204.43 50.0778 204.43 51.58C204.43 53.0822 205.997 54.3 207.93 54.3Z" fill="#333333"/>
<path d="M222.37 12C222.37 12 218.37 15 222.37 19C224.37 21 226.37 19 226.37 19L222.37 12Z" fill="#333333"/>
<path d="M175.59 11C175.59 11 179.59 14 175.59 18C173.59 20 171.59 18 171.59 18L175.59 11Z" fill="#333333"/>
<path d="M167.369 117.5C167.369 117.5 154.369 137 184.369 144C214.369 151 236.039 120 223.199 117.5" stroke="#333333" stroke-width="4" stroke-linejoin="round"/>
<path d="M182.369 144C182.369 144 179.269 151.44 174.539 153.63C173.359 154.17 173.099 155.73 174.069 156.6C175.409 157.8 176.789 159.39 177.619 161.34C178.139 162.56 179.739 162.79 180.619 161.8C181.709 160.57 183.189 159.28 185.009 158.54C186.199 158.06 186.539 156.49 185.609 155.61C183.419 153.55 181.299 149.94 182.379 144H182.369Z" fill="#333333"/>
<path d="M179.51 64.93C172.5 64.93 165.62 55.01 170.58 49.06C175.54 43.11 187.44 52.04 196.37 51.04C205.3 50.05 216.21 46.08 221.17 52.03C226.13 57.98 224.15 64.92 213.24 65.92C202.33 66.91 203.32 61.95 194.4 61.95C185.48 61.95 185.47 64.93 179.52 64.93H179.51Z" fill="white" stroke="#333333" stroke-width="4" stroke-linejoin="round"/>
<path d="M215.279 49.01L205.289 64.42" stroke="#333333" stroke-width="4" stroke-linejoin="round"/>
<path d="M205.29 49.6L198.85 62.73" stroke="#333333" stroke-width="4" stroke-linejoin="round"/>
<path d="M120.619 167.84C120.619 167.84 279.349 110.88 303.249 104.34C327.149 97.8 347.689 111.02 325.999 129.51C304.309 148 125.759 193.87 125.759 193.87L120.609 167.85L120.619 167.84Z" fill="white" stroke="#333333" stroke-width="4" stroke-linejoin="round"/>
<path d="M81.9998 182.96C81.9998 182.96 55.8998 178.95 35.5898 192.5C15.2698 206.05 2.00977 220.25 2.00977 220.25C2.00977 220.25 35.8398 222.79 54.1098 217C72.3798 211.21 83.5698 201.26 83.5698 201.26C83.5698 201.26 90.4998 187.11 82.0098 182.96H81.9998Z" fill="white" stroke="#333333" stroke-width="4" stroke-linejoin="round"/>
<path d="M123.859 165.28C127.539 166.68 136.249 172.07 132.509 191.28C132.179 192.99 130.919 194.38 129.239 194.87L81.9993 208.56C78.5293 209.57 75.2993 206.39 76.2393 202.9C77.6593 197.59 77.9593 190.6 73.0493 184.5C70.9293 181.87 72.1993 177.95 75.4693 177.09L121.089 165.14C122.009 164.9 122.979 164.94 123.859 165.27V165.28Z" fill="white" stroke="#333333" stroke-width="4" stroke-linejoin="round"/>
<path d="M250.07 147.05L257.02 135.72L258.49 143.46L264.75 133.55L266.21 139.88L272.51 135.6C272.51 135.6 278.15 136.26 280.95 133.42C283.74 130.58 285.09 123.52 282.3 126.36C279.51 129.2 285.89 134.78 291.5 131.22C297.11 127.66 297.07 123.43 299.2 125.52C301.33 127.61 301.35 130.43 303.44 126.89C305.52 123.35 305.51 121.24 305.51 121.24C305.51 121.24 299.32 138.9 294.39 138.94C289.46 138.98 299.25 130.45 307 130.38C314.75 130.32 317.5 122.54 317.5 122.54" fill="white"/>
<path d="M250.07 147.05L257.02 135.72L258.49 143.46L264.75 133.55L266.21 139.88L272.51 135.6C272.51 135.6 278.15 136.26 280.95 133.42C283.74 130.58 285.09 123.52 282.3 126.36C279.51 129.2 285.89 134.78 291.5 131.22C297.11 127.66 297.07 123.43 299.2 125.52C301.33 127.61 301.35 130.43 303.44 126.89C305.52 123.35 305.51 121.24 305.51 121.24C305.51 121.24 299.32 138.9 294.39 138.94C289.46 138.98 299.25 130.45 307 130.38C314.75 130.32 317.5 122.54 317.5 122.54" stroke="#333333" stroke-width="4" stroke-linejoin="round"/>
<path d="M2 220.25C30.9 222.12 64.54 201.42 64.54 201.42" stroke="#333333" stroke-width="4" stroke-linejoin="round"/>
<path d="M35.73 210.11L2 220.25C17.41 209.56 59.55 194.41 59.55 194.41" stroke="#333333" stroke-width="4" stroke-linejoin="round"/>
<path d="M58.28 211.33C58.28 211.33 31.59 221.41 2 220.25" stroke="#333333" stroke-width="4" stroke-linejoin="round"/>
<path d="M48.9604 191.68C48.9604 191.68 25.0604 201.41 2.15039 220.19" stroke="#333333" stroke-width="4" stroke-linejoin="round"/>
<path d="M259.129 165.43L253.369 157.87L271.109 148L273.369 158.63L259.129 165.43Z" fill="white" stroke="#333333" stroke-width="4" stroke-linejoin="round"/>
<path d="M257.369 168L246.369 156L252.369 151L265.369 163L257.369 168Z" fill="white" stroke="#333333" stroke-width="4" stroke-linejoin="round"/>
<path d="M280.369 159L273.369 139L265.369 142L271.369 161L280.369 159Z" fill="white" stroke="#333333" stroke-width="4" stroke-linejoin="round"/>
<path d="M133.281 156.9L137.111 165.6L117.551 171.03L117.851 160.17L133.281 156.9Z" fill="white" stroke="#333333" stroke-width="4" stroke-linejoin="round"/>
<path d="M135.6 154.81L143.48 169.05L136.48 172.51L126.65 157.8L135.6 154.81Z" fill="white" stroke="#333333" stroke-width="4" stroke-linejoin="round"/>
<path d="M111.131 158.17L113.251 179.26L121.731 178.21L120.351 158.34L111.131 158.17Z" fill="white" stroke="#333333" stroke-width="4" stroke-linejoin="round"/>
</g>
<defs>
<clipPath id="clip0_1514_7422">
<rect width="337.17" height="269.88" fill="white"/>
</clipPath>
</defs>
</svg>
