<svg width="192" height="270" viewBox="0 0 192 270" fill="none" xmlns="http://www.w3.org/2000/svg">
<g clip-path="url(#clip0_1172_3525)">
<path d="M75.5 181.59C75.5 181.59 71 207.28 71 209.73C71 212.18 62 220.33 73 221.97L76 239.92L60 255.42C60 255.42 57 257.87 61 258.68C65 259.49 66 257.05 66 257.05C66 257.05 64 263.58 67 261.94C70 260.31 71 258.68 71 258.68C71 258.68 69 264.39 72 264.39C75 264.39 76 261.13 76 261.13C76 261.13 74 266.02 77 266.02C80 266.02 80 261.94 80 261.94C80 261.94 81 269.28 83 267.65C85 266.02 85 262.76 85 262.76C85 262.76 86 252.97 88 248.08C90 243.19 92 244 91 238.29C90 232.58 93 222.79 89 217.08L101 182.01L75.5 181.6V181.59Z" fill="#F7F7F7" stroke="#333333" stroke-width="4" stroke-linejoin="round"/>
<path d="M85.08 199.65L84.01 202.35" stroke="#333333" stroke-width="4" stroke-linejoin="round"/>
<path d="M86.08 193.94L85.01 196.64" stroke="#333333" stroke-width="4" stroke-linejoin="round"/>
<path d="M90.08 204.55L89.01 207.24" stroke="#333333" stroke-width="4" stroke-linejoin="round"/>
<path d="M79.08 194.76L78.01 197.45" stroke="#333333" stroke-width="4" stroke-linejoin="round"/>
<path d="M92.96 196.36L92.12 199.11" stroke="#333333" stroke-width="4" stroke-linejoin="round"/>
<path d="M92.96 189.84L92.12 192.59" stroke="#333333" stroke-width="4" stroke-linejoin="round"/>
<path d="M87.08 185.79L86.01 188.48" stroke="#333333" stroke-width="4" stroke-linejoin="round"/>
<path d="M79.08 183.34L78.01 186.03" stroke="#333333" stroke-width="4" stroke-linejoin="round"/>
<path d="M81.08 189.05L80.01 191.74" stroke="#333333" stroke-width="4" stroke-linejoin="round"/>
<path d="M76.08 200.47L75.01 203.16" stroke="#333333" stroke-width="4" stroke-linejoin="round"/>
<path d="M94.08 183.34L93.01 186.03" stroke="#333333" stroke-width="4" stroke-linejoin="round"/>
<path d="M84.8601 224.98L86.2201 227.59" stroke="#333333" stroke-width="4" stroke-linejoin="round"/>
<path d="M85.9801 219.24L87.1001 221.92" stroke="#333333" stroke-width="4" stroke-linejoin="round"/>
<path d="M86.76 231.55L88.33 234.08" stroke="#333333" stroke-width="4" stroke-linejoin="round"/>
<path d="M79.0701 220.03L80.0101 222.76" stroke="#333333" stroke-width="4" stroke-linejoin="round"/>
<path d="M79.8501 237.31L81.2301 239.74" stroke="#333333" stroke-width="4" stroke-linejoin="round"/>
<path d="M87.8501 238.12L89.2301 240.55" stroke="#333333" stroke-width="4" stroke-linejoin="round"/>
<path d="M79.15 230.62L79.94 233.38" stroke="#333333" stroke-width="4" stroke-linejoin="round"/>
<path d="M88.08 211.07L87.01 213.77" stroke="#333333" stroke-width="4" stroke-linejoin="round"/>
<path d="M82.08 206.18L81.01 208.87" stroke="#333333" stroke-width="4" stroke-linejoin="round"/>
<path d="M80.7301 213.46L80.3501 216.28" stroke="#333333" stroke-width="4" stroke-linejoin="round"/>
<path d="M75.9801 225.76L77.1001 228.44" stroke="#333333" stroke-width="4" stroke-linejoin="round"/>
<path d="M75.08 208.63L74.01 211.32" stroke="#333333" stroke-width="4" stroke-linejoin="round"/>
<path d="M137.42 181.59C137.42 181.59 141.92 207.28 141.92 209.73C141.92 212.18 150.92 220.33 139.92 221.97L136.92 239.92L152.92 255.42C152.92 255.42 155.92 257.87 151.92 258.68C147.92 259.49 146.92 257.05 146.92 257.05C146.92 257.05 148.92 263.58 145.92 261.94C142.92 260.31 141.92 258.68 141.92 258.68C141.92 258.68 143.92 264.39 140.92 264.39C137.92 264.39 136.92 261.13 136.92 261.13C136.92 261.13 138.92 266.02 135.92 266.02C132.92 266.02 132.92 261.94 132.92 261.94C132.92 261.94 131.92 269.28 129.92 267.65C127.92 266.02 127.92 262.76 127.92 262.76C127.92 262.76 126.92 252.97 124.92 248.08C122.92 243.19 120.92 244 121.92 238.29C122.92 232.58 119.92 222.79 123.92 217.08L111.92 182.01L137.42 181.6V181.59Z" fill="#F7F7F7" stroke="#333333" stroke-width="4" stroke-linejoin="round"/>
<path d="M127.84 199.65L128.91 202.35" stroke="#333333" stroke-width="4" stroke-linejoin="round"/>
<path d="M126.84 193.94L127.91 196.64" stroke="#333333" stroke-width="4" stroke-linejoin="round"/>
<path d="M122.84 204.55L123.91 207.24" stroke="#333333" stroke-width="4" stroke-linejoin="round"/>
<path d="M133.84 194.76L134.91 197.45" stroke="#333333" stroke-width="4" stroke-linejoin="round"/>
<path d="M119.96 196.36L120.8 199.11" stroke="#333333" stroke-width="4" stroke-linejoin="round"/>
<path d="M119.96 189.84L120.8 192.59" stroke="#333333" stroke-width="4" stroke-linejoin="round"/>
<path d="M125.84 185.79L126.91 188.48" stroke="#333333" stroke-width="4" stroke-linejoin="round"/>
<path d="M133.84 183.34L134.91 186.03" stroke="#333333" stroke-width="4" stroke-linejoin="round"/>
<path d="M131.84 189.05L132.91 191.74" stroke="#333333" stroke-width="4" stroke-linejoin="round"/>
<path d="M136.84 200.47L137.91 203.16" stroke="#333333" stroke-width="4" stroke-linejoin="round"/>
<path d="M118.84 183.34L119.91 186.03" stroke="#333333" stroke-width="4" stroke-linejoin="round"/>
<path d="M128.06 224.98L126.7 227.59" stroke="#333333" stroke-width="4" stroke-linejoin="round"/>
<path d="M126.94 219.24L125.82 221.92" stroke="#333333" stroke-width="4" stroke-linejoin="round"/>
<path d="M126.16 231.55L124.59 234.08" stroke="#333333" stroke-width="4" stroke-linejoin="round"/>
<path d="M133.85 220.03L132.91 222.76" stroke="#333333" stroke-width="4" stroke-linejoin="round"/>
<path d="M133.07 237.31L131.69 239.74" stroke="#333333" stroke-width="4" stroke-linejoin="round"/>
<path d="M125.07 238.12L123.69 240.55" stroke="#333333" stroke-width="4" stroke-linejoin="round"/>
<path d="M133.77 230.62L132.98 233.38" stroke="#333333" stroke-width="4" stroke-linejoin="round"/>
<path d="M124.84 211.07L125.91 213.77" stroke="#333333" stroke-width="4" stroke-linejoin="round"/>
<path d="M130.84 206.18L131.91 208.87" stroke="#333333" stroke-width="4" stroke-linejoin="round"/>
<path d="M132.19 213.46L132.57 216.28" stroke="#333333" stroke-width="4" stroke-linejoin="round"/>
<path d="M136.94 225.76L135.82 228.44" stroke="#333333" stroke-width="4" stroke-linejoin="round"/>
<path d="M137.84 208.63L138.91 211.32" stroke="#333333" stroke-width="4" stroke-linejoin="round"/>
<path d="M151.24 133.04L169.93 140.84L181.37 159.09L177.77 184.13L169.9 185.56L145.78 142.16L151.24 133.04Z" fill="#F7F7F7" stroke="#333333" stroke-width="4" stroke-linejoin="round"/>
<path d="M161 145L165 135L176 144L167 149L161 145Z" fill="#F7F7F7" stroke="#333333" stroke-width="4" stroke-linejoin="round"/>
<path d="M171.94 159.16L181.64 154.47L183.69 168.53L173.67 166.16L171.94 159.16Z" fill="#F7F7F7" stroke="#333333" stroke-width="4" stroke-linejoin="round"/>
<path d="M60.66 131.88L42.8 141.42L33.16 160.68L39.13 185.27L47.1 185.93L66.97 140.43L60.66 131.88Z" fill="#F7F7F7" stroke="#333333" stroke-width="4" stroke-linejoin="round"/>
<path d="M52.0901 144.71L47.1501 135.14L37.0601 145.15L46.5001 149.26L52.0901 144.71Z" fill="#F7F7F7" stroke="#333333" stroke-width="4" stroke-linejoin="round"/>
<path d="M42.55 159.85L32.45 156.11L31.75 170.3L41.49 166.98L42.55 159.85Z" fill="#F7F7F7" stroke="#333333" stroke-width="4" stroke-linejoin="round"/>
<path d="M79.49 40C79.49 40 74 52.59 74 56.6C74 60.61 79.5 58.89 82.24 56.6C84.98 54.31 87.14 40.72 87.14 40.72L79.49 40Z" fill="#F7F7F7" stroke="#333333" stroke-width="4" stroke-linejoin="round"/>
<path d="M76 57L67 75L72 78L80 58L76 57Z" fill="#333333"/>
<path d="M141.65 40C141.65 40 147.14 52.59 147.14 56.6C147.14 60.61 141.64 58.89 138.9 56.6C136.16 54.31 134 40.72 134 40.72L141.65 40Z" fill="#F7F7F7" stroke="#333333" stroke-width="4" stroke-linejoin="round"/>
<path d="M145.14 57L154.14 75L149.14 78L141.14 58L145.14 57Z" fill="#333333"/>
<path d="M111 13C96 13 87 25 85 48C83 71 83 91 83 108C83 125 62 126 50 147C38 168 28.97 204.47 106 209C174 213 184.92 183.18 169 154C157 132 135 132 135 111V47C135 37 136 13 111 13Z" fill="#F7F7F7" stroke="#333333" stroke-width="4" stroke-linejoin="round"/>
<path d="M81.5 29.4C81.5 29.4 80.5 2 109.5 2C143.5 2 141.5 29.4 141.5 29.4C141.5 29.4 111.5 43 81.5 29.4Z" fill="#F7F7F7" stroke="#333333" stroke-width="4" stroke-linejoin="round"/>
<path d="M79.56 38.34C87.31 40.93 111.94 47.44 142.82 38.24C144.4 37.77 145.51 36.18 145.51 34.35C145.51 31.83 143.47 29.93 141.26 30.41C131.93 32.41 108.29 36.16 81.27 30.37C79.06 29.9 77.01 31.78 77.01 34.3V34.49C77.01 36.27 78.05 37.83 79.57 38.34H79.56Z" fill="#F7F7F7" stroke="#333333" stroke-width="4" stroke-linejoin="round"/>
<path d="M100 68C100 68 84 93 70 97C56 101 85 117 100 109C115 101 116 70 116 70C116 70 111 64 100 68Z" fill="#F7F7F7" stroke="#333333" stroke-width="4" stroke-linejoin="round"/>
<path d="M101.36 60.02C101.36 60.02 84.72 85.46 70.15 89.53C55.59 93.6 85.75 109.88 101.36 101.74C116.96 93.6 118 62.05 118 62.05C118 62.05 112.8 55.94 101.36 60.01V60.02Z" fill="#F7F7F7" stroke="#333333" stroke-width="4" stroke-linejoin="round"/>
<path d="M96.5601 54.3C98.4931 54.3 100.06 53.0822 100.06 51.58C100.06 50.0778 98.4931 48.86 96.5601 48.86C94.6271 48.86 93.0601 50.0778 93.0601 51.58C93.0601 53.0822 94.6271 54.3 96.5601 54.3Z" fill="#333333"/>
<path d="M120.56 54.3C122.493 54.3 124.06 53.0822 124.06 51.58C124.06 50.0778 122.493 48.86 120.56 48.86C118.627 48.86 117.06 50.0778 117.06 51.58C117.06 53.0822 118.627 54.3 120.56 54.3Z" fill="#333333"/>
<path d="M135 12C135 12 131 15 135 19C137 21 139 19 139 19L135 12Z" fill="#333333"/>
<path d="M88.22 11C88.22 11 92.22 14 88.22 18C86.22 20 84.22 18 84.22 18L88.22 11Z" fill="#333333"/>
<path d="M80 117.5C80 117.5 67 137 97 144C127 151 148.67 120 135.83 117.5" stroke="#333333" stroke-width="4" stroke-linejoin="round"/>
<path d="M95 144C95 144 91.9 151.44 87.17 153.63C85.99 154.17 85.73 155.73 86.7 156.6C88.04 157.8 89.42 159.39 90.25 161.34C90.77 162.56 92.37 162.79 93.25 161.8C94.34 160.57 95.82 159.28 97.64 158.54C98.83 158.06 99.17 156.49 98.24 155.61C96.05 153.55 93.93 149.94 95.01 144H95Z" fill="#333333"/>
<path d="M2 95L32 200C32 200 95 185 110 205L97 103C97 103 20 68 2 95Z" fill="#F7F7F7" stroke="#333333" stroke-width="4" stroke-linejoin="round"/>
<path d="M97 103C97 103 142 73 190 97L168 199C168 199 117 191 110 205L97 103Z" fill="#F7F7F7" stroke="#333333" stroke-width="4" stroke-linejoin="round"/>
<path d="M92.14 64.93C85.13 64.93 78.25 55.01 83.21 49.06C88.17 43.11 100.07 52.04 109 51.04C117.93 50.05 128.84 46.08 133.8 52.03C138.76 57.98 136.78 64.92 125.87 65.92C114.96 66.92 115.95 61.95 107.03 61.95C98.11 61.95 98.1 64.93 92.15 64.93H92.14Z" fill="#F7F7F7" stroke="#333333" stroke-width="4" stroke-linejoin="round"/>
<path d="M127.91 49.01L117.93 64.42" stroke="#333333" stroke-width="4" stroke-linejoin="round"/>
<path d="M117.93 49.6L111.48 62.73" stroke="#333333" stroke-width="4" stroke-linejoin="round"/>
<path d="M2 125L19 122L24 130L8 137L2 125Z" fill="#F7F7F7" stroke="#333333" stroke-width="4" stroke-linejoin="round"/>
<path d="M27 141L26 152L13 157L9 146L27 141Z" fill="#F7F7F7" stroke="#333333" stroke-width="4" stroke-linejoin="round"/>
<path d="M21.11 131.26L24 141.83L12.5 145.03L9 135L21.11 131.26Z" fill="#F7F7F7" stroke="#333333" stroke-width="4" stroke-linejoin="round"/>
<path d="M170 125L167 131L187 135V127L170 125Z" fill="#F7F7F7" stroke="#333333" stroke-width="4" stroke-linejoin="round"/>
<path d="M164 144L165 152L185 156L187 148L164 144Z" fill="#F7F7F7" stroke="#333333" stroke-width="4" stroke-linejoin="round"/>
<path d="M187 135L184.99 147.65L168 144L171.38 131.88L187 135Z" fill="#F7F7F7" stroke="#333333" stroke-width="4" stroke-linejoin="round"/>
</g>
<defs>
<clipPath id="clip0_1172_3525">
<rect width="192" height="269.88" fill="white"/>
</clipPath>
</defs>
</svg>
