<svg width="156" height="270" viewBox="0 0 156 270" fill="none" xmlns="http://www.w3.org/2000/svg">
<g clip-path="url(#clip0_1118_7300)">
<path d="M45.7499 181.59C45.7499 181.59 41.2499 207.28 41.2499 209.73C41.2499 212.18 32.2499 220.33 43.2499 221.97L46.2499 239.92L30.2499 255.42C30.2499 255.42 27.2499 257.87 31.2499 258.68C35.2499 259.49 36.2499 257.05 36.2499 257.05C36.2499 257.05 34.2499 263.58 37.2499 261.94C40.2499 260.31 41.2499 258.68 41.2499 258.68C41.2499 258.68 39.2499 264.39 42.2499 264.39C45.2499 264.39 46.2499 261.13 46.2499 261.13C46.2499 261.13 44.2499 266.02 47.2499 266.02C50.2499 266.02 50.2499 261.94 50.2499 261.94C50.2499 261.94 51.2499 269.28 53.2499 267.65C55.2499 266.02 55.2499 262.76 55.2499 262.76C55.2499 262.76 56.2499 252.97 58.2499 248.08C60.2499 243.19 62.2499 244 61.2499 238.29C60.2499 232.58 63.2499 222.79 59.2499 217.08L71.2499 182.01L45.7499 181.6V181.59Z" fill="#F7F7F7" stroke="#333333" stroke-width="4" stroke-linejoin="round"/>
<path d="M55.3298 199.65L54.2598 202.35" stroke="#333333" stroke-width="4" stroke-linejoin="round"/>
<path d="M56.3298 193.94L55.2598 196.64" stroke="#333333" stroke-width="4" stroke-linejoin="round"/>
<path d="M60.3298 204.55L59.2598 207.24" stroke="#333333" stroke-width="4" stroke-linejoin="round"/>
<path d="M49.3298 194.76L48.2598 197.45" stroke="#333333" stroke-width="4" stroke-linejoin="round"/>
<path d="M63.2091 196.36L62.3691 199.11" stroke="#333333" stroke-width="4" stroke-linejoin="round"/>
<path d="M63.2091 189.84L62.3691 192.59" stroke="#333333" stroke-width="4" stroke-linejoin="round"/>
<path d="M57.3298 185.79L56.2598 188.48" stroke="#333333" stroke-width="4" stroke-linejoin="round"/>
<path d="M49.3298 183.34L48.2598 186.03" stroke="#333333" stroke-width="4" stroke-linejoin="round"/>
<path d="M51.3298 189.05L50.2598 191.74" stroke="#333333" stroke-width="4" stroke-linejoin="round"/>
<path d="M46.3298 200.47L45.2598 203.16" stroke="#333333" stroke-width="4" stroke-linejoin="round"/>
<path d="M64.3298 183.34L63.2598 186.03" stroke="#333333" stroke-width="4" stroke-linejoin="round"/>
<path d="M55.1094 224.98L56.4694 227.59" stroke="#333333" stroke-width="4" stroke-linejoin="round"/>
<path d="M56.2402 219.24L57.3502 221.92" stroke="#333333" stroke-width="4" stroke-linejoin="round"/>
<path d="M57.0098 231.55L58.5798 234.08" stroke="#333333" stroke-width="4" stroke-linejoin="round"/>
<path d="M49.3203 220.03L50.2603 222.76" stroke="#333333" stroke-width="4" stroke-linejoin="round"/>
<path d="M50.0996 237.31L51.4796 239.74" stroke="#333333" stroke-width="4" stroke-linejoin="round"/>
<path d="M58.0996 238.12L59.4796 240.55" stroke="#333333" stroke-width="4" stroke-linejoin="round"/>
<path d="M49.4004 230.62L50.1904 233.38" stroke="#333333" stroke-width="4" stroke-linejoin="round"/>
<path d="M58.3298 211.07L57.2598 213.77" stroke="#333333" stroke-width="4" stroke-linejoin="round"/>
<path d="M52.3298 206.18L51.2598 208.87" stroke="#333333" stroke-width="4" stroke-linejoin="round"/>
<path d="M50.9796 213.46L50.5996 216.28" stroke="#333333" stroke-width="4" stroke-linejoin="round"/>
<path d="M46.2305 225.76L47.3505 228.44" stroke="#333333" stroke-width="4" stroke-linejoin="round"/>
<path d="M45.3298 208.63L44.2598 211.32" stroke="#333333" stroke-width="4" stroke-linejoin="round"/>
<path d="M107.67 181.59C107.67 181.59 112.17 207.28 112.17 209.73C112.17 212.18 121.17 220.33 110.17 221.97L107.17 239.92L123.17 255.42C123.17 255.42 126.17 257.87 122.17 258.68C118.17 259.49 117.17 257.05 117.17 257.05C117.17 257.05 119.17 263.58 116.17 261.94C113.17 260.31 112.17 258.68 112.17 258.68C112.17 258.68 114.17 264.39 111.17 264.39C108.17 264.39 107.17 261.13 107.17 261.13C107.17 261.13 109.17 266.02 106.17 266.02C103.17 266.02 103.17 261.94 103.17 261.94C103.17 261.94 102.17 269.28 100.17 267.65C98.1699 266.02 98.1699 262.76 98.1699 262.76C98.1699 262.76 97.1699 252.97 95.1699 248.08C93.1699 243.19 91.1699 244 92.1699 238.29C93.1699 232.58 90.1699 222.79 94.1699 217.08L82.1699 182.01L107.67 181.6V181.59Z" fill="#F7F7F7" stroke="#333333" stroke-width="4" stroke-linejoin="round"/>
<path d="M98.0898 199.65L99.1698 202.35" stroke="#333333" stroke-width="4" stroke-linejoin="round"/>
<path d="M97.0898 193.94L98.1698 196.64" stroke="#333333" stroke-width="4" stroke-linejoin="round"/>
<path d="M93.0898 204.55L94.1698 207.24" stroke="#333333" stroke-width="4" stroke-linejoin="round"/>
<path d="M104.09 194.76L105.17 197.45" stroke="#333333" stroke-width="4" stroke-linejoin="round"/>
<path d="M90.209 196.36L91.049 199.11" stroke="#333333" stroke-width="4" stroke-linejoin="round"/>
<path d="M90.209 189.84L91.049 192.59" stroke="#333333" stroke-width="4" stroke-linejoin="round"/>
<path d="M96.0898 185.79L97.1698 188.48" stroke="#333333" stroke-width="4" stroke-linejoin="round"/>
<path d="M104.09 183.34L105.17 186.03" stroke="#333333" stroke-width="4" stroke-linejoin="round"/>
<path d="M102.09 189.05L103.17 191.74" stroke="#333333" stroke-width="4" stroke-linejoin="round"/>
<path d="M107.09 200.47L108.17 203.16" stroke="#333333" stroke-width="4" stroke-linejoin="round"/>
<path d="M89.0898 183.34L90.1698 186.03" stroke="#333333" stroke-width="4" stroke-linejoin="round"/>
<path d="M98.3092 224.98L96.9492 227.59" stroke="#333333" stroke-width="4" stroke-linejoin="round"/>
<path d="M97.1903 219.24L96.0703 221.92" stroke="#333333" stroke-width="4" stroke-linejoin="round"/>
<path d="M96.4198 231.55L94.8398 234.08" stroke="#333333" stroke-width="4" stroke-linejoin="round"/>
<path d="M104.1 220.03L103.16 222.76" stroke="#333333" stroke-width="4" stroke-linejoin="round"/>
<path d="M103.319 237.31L101.939 239.74" stroke="#333333" stroke-width="4" stroke-linejoin="round"/>
<path d="M95.3195 238.12L93.9395 240.55" stroke="#333333" stroke-width="4" stroke-linejoin="round"/>
<path d="M104.03 230.62L103.23 233.38" stroke="#333333" stroke-width="4" stroke-linejoin="round"/>
<path d="M95.0898 211.07L96.1698 213.77" stroke="#333333" stroke-width="4" stroke-linejoin="round"/>
<path d="M101.09 206.18L102.17 208.87" stroke="#333333" stroke-width="4" stroke-linejoin="round"/>
<path d="M102.439 213.46L102.819 216.28" stroke="#333333" stroke-width="4" stroke-linejoin="round"/>
<path d="M107.19 225.76L106.07 228.44" stroke="#333333" stroke-width="4" stroke-linejoin="round"/>
<path d="M108.09 208.63L109.17 211.32" stroke="#333333" stroke-width="4" stroke-linejoin="round"/>
<path d="M121.489 133.04L140.179 140.84L151.619 159.09L148.019 184.13L140.149 185.56L116.029 142.16L121.489 133.04Z" fill="#F7F7F7" stroke="#333333" stroke-width="4" stroke-linejoin="round"/>
<path d="M131.25 145L135.25 135L146.25 144L137.25 149L131.25 145Z" fill="#F7F7F7" stroke="#333333" stroke-width="4" stroke-linejoin="round"/>
<path d="M142.189 159.16L151.889 154.47L153.939 168.53L143.919 166.16L142.189 159.16Z" fill="#F7F7F7" stroke="#333333" stroke-width="4" stroke-linejoin="round"/>
<path d="M30.9102 131.88L13.0502 141.42L3.41016 160.68L9.38016 185.27L17.3502 185.93L37.2202 140.43L30.9102 131.88Z" fill="#F7F7F7" stroke="#333333" stroke-width="4" stroke-linejoin="round"/>
<path d="M22.3405 144.71L17.4005 135.14L7.31055 145.15L16.7505 149.26L22.3405 144.71Z" fill="#F7F7F7" stroke="#333333" stroke-width="4" stroke-linejoin="round"/>
<path d="M12.8 159.85L2.7 156.11L2 170.3L11.74 166.98L12.8 159.85Z" fill="#F7F7F7" stroke="#333333" stroke-width="4" stroke-linejoin="round"/>
<path d="M49.74 40C49.74 40 44.25 52.59 44.25 56.6C44.25 60.61 49.75 58.89 52.49 56.6C55.23 54.31 57.39 40.72 57.39 40.72L49.74 40Z" fill="#F7F7F7" stroke="#333333" stroke-width="4" stroke-linejoin="round"/>
<path d="M46.25 57L37.25 75L42.25 78L50.25 58L46.25 57Z" fill="#333333"/>
<path d="M111.9 40C111.9 40 117.39 52.59 117.39 56.6C117.39 60.61 111.89 58.89 109.15 56.6C106.41 54.31 104.25 40.72 104.25 40.72L111.9 40Z" fill="#F7F7F7" stroke="#333333" stroke-width="4" stroke-linejoin="round"/>
<path d="M115.391 57L124.391 75L119.391 78L111.391 58L115.391 57Z" fill="#333333"/>
<path d="M81.2503 13C66.2503 13 57.2503 25 55.2503 48C53.2503 71 53.2503 91 53.2503 108C53.2503 125 32.2503 126 20.2503 147C8.25033 168 -0.779667 204.47 76.2503 209C144.25 213 155.17 183.18 139.25 154C127.25 132 105.25 132 105.25 111V47C105.25 37 106.25 13 81.2503 13Z" fill="#F7F7F7" stroke="#333333" stroke-width="4" stroke-linejoin="round"/>
<path d="M51.7503 29.4C51.7503 29.4 50.7503 2 79.7503 2C113.75 2 111.75 29.4 111.75 29.4C111.75 29.4 81.7503 43 51.7503 29.4Z" fill="#F7F7F7" stroke="#333333" stroke-width="4" stroke-linejoin="round"/>
<path d="M49.8098 38.34C57.5598 40.93 82.1898 47.44 113.07 38.24C114.65 37.77 115.76 36.18 115.76 34.35C115.76 31.83 113.72 29.93 111.51 30.41C102.18 32.41 78.5398 36.16 51.5198 30.37C49.3098 29.9 47.2598 31.78 47.2598 34.3V34.49C47.2598 36.27 48.2998 37.83 49.8198 38.34H49.8098Z" fill="#F7F7F7" stroke="#333333" stroke-width="4" stroke-linejoin="round"/>
<path d="M72.7304 72.87C72.7304 72.87 59.2104 95.51 47.3904 99.13C35.5604 102.75 60.0604 117.24 72.7304 110C85.4004 102.76 86.2504 74.68 86.2504 74.68C86.2504 74.68 82.0304 69.25 72.7304 72.87Z" fill="#F7F7F7" stroke="#333333" stroke-width="4" stroke-linejoin="round"/>
<path d="M71.6096 60.02C71.6096 60.02 54.9696 85.46 40.3996 89.53C25.8396 93.6 55.9996 109.88 71.6096 101.74C87.2096 93.6 88.2496 62.05 88.2496 62.05C88.2496 62.05 83.0496 55.94 71.6096 60.01V60.02Z" fill="#F7F7F7" stroke="#333333" stroke-width="4" stroke-linejoin="round"/>
<path d="M66.8105 54.3C68.7435 54.3 70.3105 53.0822 70.3105 51.58C70.3105 50.0778 68.7435 48.86 66.8105 48.86C64.8775 48.86 63.3105 50.0778 63.3105 51.58C63.3105 53.0822 64.8775 54.3 66.8105 54.3Z" fill="#333333"/>
<path d="M90.8105 54.3C92.7435 54.3 94.3105 53.0822 94.3105 51.58C94.3105 50.0778 92.7435 48.86 90.8105 48.86C88.8776 48.86 87.3105 50.0778 87.3105 51.58C87.3105 53.0822 88.8776 54.3 90.8105 54.3Z" fill="#333333"/>
<path d="M105.25 12C105.25 12 101.25 15 105.25 19C107.25 21 109.25 19 109.25 19L105.25 12Z" fill="#333333"/>
<path d="M58.4707 11C58.4707 11 62.4707 14 58.4707 18C56.4707 20 54.4707 18 54.4707 18L58.4707 11Z" fill="#333333"/>
<path d="M50.2496 117.5C50.2496 117.5 37.2496 137 67.2496 144C97.2496 151 118.92 120 106.08 117.5" stroke="#333333" stroke-width="4" stroke-linejoin="round"/>
<path d="M65.2498 144C65.2498 144 62.1498 151.44 57.4198 153.63C56.2398 154.17 55.9798 155.73 56.9498 156.6C58.2898 157.8 59.6698 159.39 60.4998 161.34C61.0198 162.56 62.6198 162.79 63.4998 161.8C64.5898 160.57 66.0698 159.28 67.8898 158.54C69.0798 158.06 69.4198 156.49 68.4898 155.61C66.2998 153.55 64.1798 149.94 65.2598 144H65.2498Z" fill="#333333"/>
<path d="M62.3908 64.93C55.3808 64.93 48.5008 55.01 53.4608 49.06C58.4208 43.11 70.3208 52.04 79.2508 51.04C88.1808 50.05 99.0908 46.08 104.051 52.03C109.011 57.98 107.031 64.92 96.1208 65.92C85.2108 66.92 86.2008 61.95 77.2808 61.95C68.3608 61.95 68.3508 64.93 62.4008 64.93H62.3908Z" fill="#F7F7F7" stroke="#333333" stroke-width="4" stroke-linejoin="round"/>
<path d="M98.1597 49.01L88.1797 64.42" stroke="#333333" stroke-width="4" stroke-linejoin="round"/>
<path d="M88.1805 49.6L81.7305 62.73" stroke="#333333" stroke-width="4" stroke-linejoin="round"/>
<path d="M131.68 83.54C131.68 83.54 131.04 101.54 118.82 101.54C118.82 101.54 131.68 103.47 131.68 122.75C131.68 122.75 131.04 102.18 145.82 102.18C145.82 102.18 131.68 101.54 131.68 83.54Z" fill="#F7F7F7" stroke="#333333" stroke-width="4" stroke-linejoin="round"/>
<path d="M19.6803 21.54C19.6803 21.54 19.0403 39.54 6.82031 39.54C6.82031 39.54 19.6803 41.47 19.6803 60.75C19.6803 60.75 19.0403 40.18 33.8203 40.18C33.8203 40.18 19.6803 39.54 19.6803 21.54Z" fill="#F7F7F7" stroke="#333333" stroke-width="4" stroke-linejoin="round"/>
</g>
<defs>
<clipPath id="clip0_1118_7300">
<rect width="155.94" height="269.88" fill="white"/>
</clipPath>
</defs>
</svg>
