<svg width="233" height="291" viewBox="0 0 233 291" fill="none" xmlns="http://www.w3.org/2000/svg">
<g clip-path="url(#clip0_536_4172)">
<path d="M47.1872 203.275C47.1872 203.275 43.4725 229.091 43.5472 231.539C43.6219 233.988 34.8746 242.409 45.9195 243.713L49.4653 261.563L33.9454 277.544C33.9454 277.544 31.0214 280.084 35.0443 280.772C39.0671 281.459 39.9923 278.99 39.9923 278.99C39.9923 278.99 38.1923 285.578 41.1409 283.847C44.0895 282.116 45.0396 280.467 45.0396 280.467C45.0396 280.467 43.2147 286.235 46.2133 286.143C49.2119 286.052 50.112 282.763 50.112 282.763C50.112 282.763 48.262 287.712 51.2606 287.62C54.2592 287.529 54.1348 283.451 54.1348 283.451C54.1348 283.451 55.3582 290.757 57.3075 289.067C59.2569 287.376 59.1575 284.118 59.1575 284.118C59.1575 284.118 59.8586 274.302 61.7085 269.353C63.5585 264.405 65.5823 265.153 64.4087 259.476C63.235 253.799 65.9352 243.923 61.7629 238.337L72.6881 202.918L47.1875 203.285L47.1872 203.275Z" fill="#F7F7F7" stroke="#333333" stroke-width="4" stroke-linejoin="round"/>
<path d="M57.3133 221.035L56.3261 223.766" stroke="#333333" stroke-width="4" stroke-linejoin="round"/>
<path d="M58.1387 215.297L57.1515 218.028" stroke="#333333" stroke-width="4" stroke-linejoin="round"/>
<path d="M62.4604 225.78L61.4729 228.501" stroke="#333333" stroke-width="4" stroke-linejoin="round"/>
<path d="M51.167 216.33L50.1795 219.051" stroke="#333333" stroke-width="4" stroke-linejoin="round"/>
<path d="M65.0894 217.506L64.3336 220.28" stroke="#333333" stroke-width="4" stroke-linejoin="round"/>
<path d="M64.8905 210.989L64.1347 213.763" stroke="#333333" stroke-width="4" stroke-linejoin="round"/>
<path d="M58.8898 207.12L57.9023 209.842" stroke="#333333" stroke-width="4" stroke-linejoin="round"/>
<path d="M50.8189 204.915L49.8314 207.637" stroke="#333333" stroke-width="4" stroke-linejoin="round"/>
<path d="M52.992 210.562L52.0045 213.283" stroke="#333333" stroke-width="4" stroke-linejoin="round"/>
<path d="M48.3426 222.129L47.3551 224.85" stroke="#333333" stroke-width="4" stroke-linejoin="round"/>
<path d="M65.8119 204.458L64.8244 207.179" stroke="#333333" stroke-width="4" stroke-linejoin="round"/>
<path d="M57.8657 246.36L59.3047 248.927" stroke="#333333" stroke-width="4" stroke-linejoin="round"/>
<path d="M58.8202 240.588L60.0114 243.233" stroke="#333333" stroke-width="4" stroke-linejoin="round"/>
<path d="M59.9651 252.869L61.6115 255.35" stroke="#333333" stroke-width="4" stroke-linejoin="round"/>
<path d="M51.9275 241.589L52.9503 244.289" stroke="#333333" stroke-width="4" stroke-linejoin="round"/>
<path d="M53.234 258.837L54.6875 261.224" stroke="#333333" stroke-width="4" stroke-linejoin="round"/>
<path d="M61.255 259.402L62.7085 261.789" stroke="#333333" stroke-width="4" stroke-linejoin="round"/>
<path d="M52.3303 252.171L53.2041 254.906" stroke="#333333" stroke-width="4" stroke-linejoin="round"/>
<path d="M60.6601 232.358L59.6729 235.089" stroke="#333333" stroke-width="4" stroke-linejoin="round"/>
<path d="M54.5138 227.653L53.5264 230.375" stroke="#333333" stroke-width="4" stroke-linejoin="round"/>
<path d="M53.3864 234.971L53.0926 237.801" stroke="#333333" stroke-width="4" stroke-linejoin="round"/>
<path d="M49.0137 247.41L50.2149 250.055" stroke="#333333" stroke-width="4" stroke-linejoin="round"/>
<path d="M47.5917 230.315L46.6042 233.037" stroke="#333333" stroke-width="4" stroke-linejoin="round"/>
<path d="M109.078 201.387C109.078 201.387 114.36 226.928 114.434 229.377C114.509 231.826 123.753 239.698 112.808 241.672L110.357 259.706L126.822 274.711C126.822 274.711 129.895 277.068 125.922 277.999C121.949 278.931 120.875 276.523 120.875 276.523C120.875 276.523 123.073 282.989 120.024 281.441C116.976 279.893 115.927 278.304 115.927 278.304C115.927 278.304 118.1 283.951 115.101 284.042C112.103 284.134 111.004 280.906 111.004 280.906C111.004 280.906 113.152 285.732 110.153 285.824C107.155 285.915 107.03 281.837 107.03 281.837C107.03 281.837 106.254 289.204 104.206 287.636C102.157 286.068 102.058 282.809 102.058 282.809C102.058 282.809 100.76 273.054 98.6114 268.228C96.4632 263.401 94.4888 264.271 95.3143 258.534C96.1397 252.796 92.8426 243.102 96.6667 237.272L83.603 202.585L109.079 201.397L109.078 201.387Z" fill="#F7F7F7" stroke="#333333" stroke-width="4" stroke-linejoin="round"/>
<path d="M100.053 219.731L101.215 222.397" stroke="#333333" stroke-width="4" stroke-linejoin="round"/>
<path d="M98.8798 214.054L100.042 216.72" stroke="#333333" stroke-width="4" stroke-linejoin="round"/>
<path d="M95.2052 224.781L96.3667 227.437" stroke="#333333" stroke-width="4" stroke-linejoin="round"/>
<path d="M105.902 214.66L107.063 217.316" stroke="#333333" stroke-width="4" stroke-linejoin="round"/>
<path d="M92.0768 216.683L93.0002 219.406" stroke="#333333" stroke-width="4" stroke-linejoin="round"/>
<path d="M91.8781 210.166L92.8015 212.889" stroke="#333333" stroke-width="4" stroke-linejoin="round"/>
<path d="M97.6318 205.939L98.7934 208.594" stroke="#333333" stroke-width="4" stroke-linejoin="round"/>
<path d="M105.553 203.246L106.715 205.902" stroke="#333333" stroke-width="4" stroke-linejoin="round"/>
<path d="M103.728 209.014L104.89 211.67" stroke="#333333" stroke-width="4" stroke-linejoin="round"/>
<path d="M109.074 220.276L110.236 222.932" stroke="#333333" stroke-width="4" stroke-linejoin="round"/>
<path d="M90.5603 203.703L91.7218 206.359" stroke="#333333" stroke-width="4" stroke-linejoin="round"/>
<path d="M101.046 245.043L99.7659 247.693" stroke="#333333" stroke-width="4" stroke-linejoin="round"/>
<path d="M99.7511 239.339L98.7133 242.052" stroke="#333333" stroke-width="4" stroke-linejoin="round"/>
<path d="M99.3569 251.667L97.8547 254.244" stroke="#333333" stroke-width="4" stroke-linejoin="round"/>
<path d="M106.682 239.918L105.826 242.676" stroke="#333333" stroke-width="4" stroke-linejoin="round"/>
<path d="M106.429 257.214L105.124 259.685" stroke="#333333" stroke-width="4" stroke-linejoin="round"/>
<path d="M98.4576 258.268L97.1523 260.739" stroke="#333333" stroke-width="4" stroke-linejoin="round"/>
<path d="M106.935 250.506L106.219 253.289" stroke="#333333" stroke-width="4" stroke-linejoin="round"/>
<path d="M97.403 231.237L98.5648 233.903" stroke="#333333" stroke-width="4" stroke-linejoin="round"/>
<path d="M103.251 226.167L104.413 228.822" stroke="#333333" stroke-width="4" stroke-linejoin="round"/>
<path d="M104.823 233.402L105.288 236.209" stroke="#333333" stroke-width="4" stroke-linejoin="round"/>
<path d="M109.945 245.551L108.908 248.264" stroke="#333333" stroke-width="4" stroke-linejoin="round"/>
<path d="M110.323 228.402L111.484 231.058" stroke="#333333" stroke-width="4" stroke-linejoin="round"/>
<path d="M121.412 152.439L140.331 159.665L152.322 177.558L149.487 202.696L141.664 204.365L116.232 161.721L121.412 152.439Z" fill="#F7F7F7" stroke="#333333" stroke-width="4" stroke-linejoin="round"/>
<path d="M131.532 164.095L135.225 153.978L146.494 162.639L137.651 167.911L131.532 164.095Z" fill="#F7F7F7" stroke="#333333" stroke-width="4" stroke-linejoin="round"/>
<path d="M142.899 177.915L152.451 172.932L154.929 186.923L144.841 184.859L142.899 177.915Z" fill="#F7F7F7" stroke="#333333" stroke-width="4" stroke-linejoin="round"/>
<path d="M30.8384 154.041L13.2776 164.121L4.22927 183.666L10.9462 208.062L18.9326 208.479L37.4062 162.394L30.8384 154.041Z" fill="#F7F7F7" stroke="#333333" stroke-width="4" stroke-linejoin="round"/>
<path d="M22.6637 167.126L17.4342 157.711L7.65407 168.024L17.215 171.844L22.6637 167.126Z" fill="#F7F7F7" stroke="#333333" stroke-width="4" stroke-linejoin="round"/>
<path d="M13.5897 182.55L3.38034 179.12L3.1133 193.324L12.7475 189.709L13.5897 182.55Z" fill="#F7F7F7" stroke="#333333" stroke-width="4" stroke-linejoin="round"/>
<path d="M46.8583 61.6294C46.8583 61.6294 41.7547 74.3809 41.877 78.389C41.9992 82.3972 47.4442 80.5103 50.1131 78.1378C52.782 75.7653 54.5267 62.1158 54.5267 62.1158L46.8583 61.6294Z" fill="#F7F7F7" stroke="#333333" stroke-width="4" stroke-linejoin="round"/>
<path d="M43.8883 78.7279L35.4413 96.994L40.5304 99.8401L47.9169 79.6055L43.8883 78.7279Z" fill="#333333"/>
<path d="M108.989 59.7342C108.989 59.7342 114.861 72.151 114.983 76.1591C115.105 80.1673 109.555 78.6158 106.747 76.4104C103.938 74.205 101.365 60.6871 101.365 60.6871L108.989 59.7342Z" fill="#F7F7F7" stroke="#333333" stroke-width="4" stroke-linejoin="round"/>
<path d="M112.996 76.6199L122.541 94.3372L117.635 97.4882L109.029 77.7414L112.996 76.6199Z" fill="#333333"/>
<path d="M77.5305 33.6813C62.5375 34.1386 53.9076 46.4074 52.6097 69.4577C51.3119 92.508 51.9217 112.499 52.44 129.491C52.9583 146.483 31.9985 148.123 20.6444 169.479C9.29023 190.835 1.37635 227.563 78.5087 229.743C146.599 231.667 156.605 201.528 139.802 172.847C127.137 151.223 105.148 151.894 104.507 130.904L102.556 66.9337C102.251 56.9384 102.519 32.919 77.5305 33.6813Z" fill="#F7F7F7" stroke="#333333" stroke-width="4" stroke-linejoin="round"/>
<path d="M48.5443 50.9731C48.5443 50.9731 46.7093 23.6163 75.6959 22.7321C109.68 21.6955 108.516 49.1437 108.516 49.1437C108.516 49.1437 78.945 63.6521 48.5443 50.9731Z" fill="#F7F7F7" stroke="#333333" stroke-width="4" stroke-linejoin="round"/>
<path d="M46.8778 59.968C54.7031 62.3205 79.5201 68.0766 110.105 57.9394C111.67 57.4214 112.731 55.7983 112.675 53.9691C112.599 51.4503 110.502 49.6134 108.307 50.1606C99.0426 52.4441 75.5279 56.9131 48.344 51.9496C46.1207 51.5472 44.1289 53.4888 44.2058 56.0077L44.2116 56.1976C44.2658 57.9767 45.3529 59.5043 46.8878 59.9677L46.8778 59.968Z" fill="#F7F7F7" stroke="#333333" stroke-width="4" stroke-linejoin="round"/>
<path d="M68.2125 88.9911C68.2125 88.9911 52.9822 114.467 39.1106 118.892C25.2391 123.317 54.7134 138.426 69.4625 129.972C84.2117 121.518 84.266 90.5023 84.266 90.5023C84.266 90.5023 79.0854 84.6575 68.2125 88.9911Z" fill="#F7F7F7" stroke="#333333" stroke-width="4" stroke-linejoin="round"/>
<path d="M69.3287 80.9733C69.3287 80.9733 53.4721 106.909 39.0329 111.421C24.5938 115.933 55.2461 131.286 70.6007 122.674C85.9452 114.062 86.0228 82.495 86.0228 82.495C86.0228 82.495 80.639 76.5464 69.3284 80.9633L69.3287 80.9733Z" fill="#F7F7F7" stroke="#333333" stroke-width="4" stroke-linejoin="round"/>
<path d="M64.3565 75.4023C66.2886 75.3434 67.8177 74.0784 67.7719 72.5768C67.7261 71.0753 66.1227 69.9059 64.1906 69.9648C62.2585 70.0238 60.7294 71.2888 60.7752 72.7903C60.821 74.2918 62.4244 75.4612 64.3565 75.4023Z" fill="#333333"/>
<path d="M88.3454 74.6706C90.2775 74.6117 91.8066 73.3467 91.7608 71.8452C91.715 70.3436 90.1116 69.1742 88.1795 69.2331C86.2474 69.2921 84.7183 70.5571 84.7641 72.0586C84.8099 73.5601 86.4133 74.7295 88.3454 74.6706Z" fill="#333333"/>
<path d="M101.489 31.95C101.489 31.95 97.5822 35.0706 101.702 38.9468C103.762 40.8848 105.7 38.8248 105.7 38.8248L101.489 31.95Z" fill="#333333"/>
<path d="M54.7002 32.3767C54.7002 32.3767 58.7898 35.2534 54.9136 39.3734C52.9755 41.4335 50.9154 39.4954 50.9154 39.4954L54.7002 32.3767Z" fill="#333333"/>
<path d="M49.731 139.078C49.731 139.078 37.3316 158.965 67.5311 165.047C97.7306 171.129 118.445 139.483 105.535 137.376" stroke="#333333" stroke-width="4" stroke-linejoin="round"/>
<path d="M65.532 165.108C65.532 165.108 62.6603 172.639 57.9993 174.972C56.8363 175.548 56.624 177.115 57.62 177.955C58.996 179.114 60.4238 180.661 61.3129 182.585C61.8698 183.789 63.4761 183.97 64.3255 182.953C65.3775 181.691 66.8175 180.356 68.6141 179.561C69.7889 179.045 70.0809 177.465 69.1245 176.614C66.8727 174.622 64.6436 171.078 65.542 165.108L65.532 165.108Z" fill="#333333"/>
<path d="M187.75 2.72461C164.28 2.72461 145.25 17.9446 145.25 36.7246C145.25 41.3846 146.42 45.8246 148.54 49.8646L134.25 57.7246L151.25 74.7246L159.02 61.7746C166.58 67.3346 176.67 70.7246 187.75 70.7246C211.22 70.7246 230.25 55.5046 230.25 36.7246C230.25 17.9446 211.22 2.72461 187.75 2.72461Z" fill="#F7F7F7" stroke="#333333" stroke-width="4" stroke-linejoin="round"/>
<path d="M164.65 40.5246C167.08 40.5246 169.05 38.5547 169.05 36.1246C169.05 33.6946 167.08 31.7246 164.65 31.7246C162.22 31.7246 160.25 33.6946 160.25 36.1246C160.25 38.5547 162.22 40.5246 164.65 40.5246Z" fill="#333333"/>
<path d="M187.75 40.5246C190.18 40.5246 192.15 38.5547 192.15 36.1246C192.15 33.6946 190.18 31.7246 187.75 31.7246C185.32 31.7246 183.35 33.6946 183.35 36.1246C183.35 38.5547 185.32 40.5246 187.75 40.5246Z" fill="#333333"/>
<path d="M210.85 40.5246C213.28 40.5246 215.25 38.5547 215.25 36.1246C215.25 33.6946 213.28 31.7246 210.85 31.7246C208.42 31.7246 206.45 33.6946 206.45 36.1246C206.45 38.5547 208.42 40.5246 210.85 40.5246Z" fill="#333333"/>
</g>
<defs>
<clipPath id="clip0_536_4172">
<rect width="232.25" height="289.88" fill="white" transform="translate(0 0.724609)"/>
</clipPath>
</defs>
</svg>
