<svg width="201" height="212" viewBox="0 0 201 212" fill="none" xmlns="http://www.w3.org/2000/svg">
<path d="M30.1996 147.315H169.686" stroke="#333333" stroke-width="4" stroke-linejoin="round"/>
<path d="M0 181.609H174.78" stroke="#333333" stroke-width="4" stroke-linejoin="round"/>
<path d="M72.9044 132.073L7.95898 210.187" stroke="#333333" stroke-width="4" stroke-linejoin="round"/>
<path d="M155.041 132.073L145.49 210.187" stroke="#333333" stroke-width="4" stroke-linejoin="round"/>
<path d="M31.7214 181.609H148.986L153.176 147.315H60.1701L31.7214 181.609Z" fill="#333333" stroke="#333333" stroke-width="4" stroke-linejoin="round"/>
<path d="M84.4346 157.056L75 171.77C75 171.77 97.4146 173.89 106.974 172.264C116.533 170.638 126.706 169.164 131.658 170.351L126.114 155.303C126.114 155.303 113.755 154.95 104.664 157.342C95.5732 159.734 87.528 157.802 84.4346 157.056Z" fill="#F7F7F7" stroke="#333333" stroke-width="4" stroke-linejoin="round"/>
<path d="M77.4953 157.353L73 174.246C73 174.246 94.9923 169.432 103.601 164.98C112.209 160.528 121.429 156.019 126.523 155.644L116.647 143C116.647 143 104.766 146.423 96.8451 151.466C88.9243 156.508 80.6661 157.118 77.4953 157.353Z" fill="#F7F7F7" stroke="#333333" stroke-width="4" stroke-linejoin="round"/>
<path d="M80 164.881C80 164.881 97.7582 159.693 107.939 149.639C118.12 139.586 117.547 122.179 117.547 122.179L100.993 118C100.993 118 105.176 128.161 96.109 137.275C87.0421 146.388 80.0446 147.29 80.0446 147.29L80 164.881Z" fill="#F7F7F7" stroke="#333333" stroke-width="4" stroke-linejoin="round"/>
<path d="M102.193 70.5659C102.193 70.5659 102.193 78.3773 106.339 82.518L110.484 86.6523C110.484 86.6523 86.0654 93.0856 84.6837 113.325C84.6709 113.306 82.366 84.8106 102.193 70.5659Z" fill="#F7F7F7" stroke="#333333" stroke-width="4" stroke-linejoin="round"/>
<path d="M92.8147 96.5723C92.8147 96.5723 92.5027 104.574 97.571 105.952C97.571 105.952 90.1978 116.063 93.8844 123.411C93.8844 123.411 86.5112 122.496 84.6711 113.306C84.6711 113.306 84.3655 104.663 92.8147 96.5723Z" fill="#F7F7F7" stroke="#333333" stroke-width="4" stroke-linejoin="round"/>
<path d="M166.502 44.4327H177.326C177.326 44.4327 181.783 59.6745 187.514 58.4044C193.244 57.1342 182.42 43.7977 182.42 43.7977C182.42 43.7977 191.971 31.0962 186.24 27.9208C180.51 24.7454 177.963 39.9872 177.963 39.9872H166.502V44.4327Z" fill="#F7F7F7" stroke="#333333" stroke-width="4" stroke-linejoin="round"/>
<path d="M136.583 71.3344L128.936 110.48H134.03L141.626 68.9973L136.583 71.3344Z" fill="#F7F7F7" stroke="#333333" stroke-width="4" stroke-linejoin="round"/>
<path d="M106.651 76.8216L132.151 94.0131L132.992 89.739L111.986 76.6819L106.651 76.8216Z" fill="#333333"/>
<path d="M100.92 13.1235C100.92 13.1235 129.573 -0.422647 132.756 2.75272C135.94 5.9281 132.756 16.972 132.756 16.972L100.92 13.1235Z" fill="#F7F7F7" stroke="#333333" stroke-width="4" stroke-linejoin="round"/>
<path d="M170.323 44.4327C170.323 62.3228 136.334 76.8215 106.969 76.8215C77.6034 76.8215 53.8029 62.3228 53.8029 44.4327C53.8029 26.5427 77.6034 12.0439 106.969 12.0439C136.334 12.0439 170.323 26.5427 170.323 44.4327Z" fill="#F7F7F7" stroke="#333333" stroke-width="4" stroke-linejoin="round"/>
<path d="M80.2266 53.9588C87.7871 53.9588 93.9161 47.8457 93.9161 40.3047C93.9161 32.7638 87.7871 26.6506 80.2266 26.6506C72.6661 26.6506 66.5371 32.7638 66.5371 40.3047C66.5371 47.8457 72.6661 53.9588 80.2266 53.9588Z" fill="#F7F7F7" stroke="#333333" stroke-width="4" stroke-linejoin="round"/>
<path d="M80.5451 49.888C86.1961 49.888 90.7772 45.4695 90.7772 40.019C90.7772 34.5684 86.1961 30.1499 80.5451 30.1499C74.894 30.1499 70.313 34.5684 70.313 40.019C70.313 45.4695 74.894 49.888 80.5451 49.888Z" fill="#333333"/>
<path d="M85 40C85 40 84.9161 35.184 79 35" stroke="#F7F7F7" stroke-width="4" stroke-linejoin="round"/>
<path d="M93.9163 40.6223H117.424L120.041 46.338H143.549L144.854 40.6223H170.323" fill="#F7F7F7"/>
<path d="M93.9163 40.6223H117.424L120.041 46.338H143.549L144.854 40.6223H170.323" stroke="#333333" stroke-width="4" stroke-linejoin="round"/>
<path d="M66.5372 40.6223H54.1594" stroke="#333333" stroke-width="4" stroke-linejoin="round"/>
<path d="M196.625 36.1768C197.977 38.1394 198.7 40.4643 198.7 42.845C198.7 45.2258 197.977 47.5507 196.625 49.5133" stroke="#333333" stroke-width="4" stroke-linejoin="round"/>
<path d="M192.436 40.2983C192.95 41.335 193.217 42.4759 193.217 43.6325C193.217 44.789 192.95 45.93 192.436 46.9666" stroke="#333333" stroke-width="4" stroke-linejoin="round"/>
</svg>
