<svg width="420" height="253" viewBox="0 0 420 253" fill="none" xmlns="http://www.w3.org/2000/svg">
<g clip-path="url(#clip0_363_1655)">
<path d="M338.982 99.1136L340.279 115.227L324.765 117.978L324.361 108.771L331.353 107.996L331.967 98.3618L338.982 99.1136Z" fill="#F7F7F7" stroke="#333333" stroke-width="4" stroke-linejoin="round"/>
<path d="M324.361 108.771L325.138 118.071L314.215 119.854L313.485 115.746H310.486L311.154 107.221H315.039V100.245L316.561 96.6954L332.13 98.6951L331.353 107.996L324.361 108.771Z" fill="#F7F7F7" stroke="#333333" stroke-width="4" stroke-linejoin="round"/>
<path d="M299.377 92.0374L294.064 103.345L299.502 105.671L294.584 113.778L307.542 118.947L308.824 115.746H310.378L311.155 107.221H315.039V100.245L309.601 99.4701L309.197 95.0523L299.377 92.0374Z" fill="#F7F7F7" stroke="#333333" stroke-width="4" stroke-linejoin="round"/>
<path d="M290.482 89.3014L283.965 99.4701L277.75 96.3699L273.865 102.57L272.692 105.492L294.841 113.421L299.502 105.67L294.064 103.345L299.502 92.4946L290.482 89.3014Z" fill="#F7F7F7" stroke="#333333" stroke-width="4" stroke-linejoin="round"/>
<path d="M289.923 90.1695L283.965 99.4701L277.75 96.3699L273.865 102.57L269.204 99.4701L266.384 102.028L260.659 96.3699L268.427 89.3945L273.865 91.7196L276.973 87.8444L281.634 90.1695L284.104 88.1079L289.923 90.1695Z" fill="#F7F7F7" stroke="#333333" stroke-width="4" stroke-linejoin="round"/>
<path d="M264.799 78.412L259.882 83.1941L263.766 85.5192L255.796 91.3011L261.575 96.1839L268.427 89.3945L273.865 91.7196L277.75 85.5192L278.107 84.6744L264.799 78.412Z" fill="#F7F7F7" stroke="#333333" stroke-width="4" stroke-linejoin="round"/>
<path d="M255.796 74.1724L250.56 78.5437L246.675 75.4434L242.278 78.4119L255.998 90.9445L263.766 85.5191L259.105 82.4189L262.989 79.3187L255.796 74.1724Z" fill="#F7F7F7" stroke="#333333" stroke-width="4" stroke-linejoin="round"/>
<path d="M244.283 68.7548L235.978 72.4053L242.014 78.5437L246.675 75.4435L250.56 77.7686L254.444 73.8933L244.283 68.7548Z" fill="#F7F7F7" stroke="#333333" stroke-width="4" stroke-linejoin="round"/>
<path d="M348.444 119.621L310.378 125.822L266.097 107.996L231.915 74.6685L233.469 70.0182L268.427 103.345L311.155 120.397L346.113 114.196" fill="#F7F7F7"/>
<path d="M348.444 119.621L310.378 125.822L266.097 107.996L231.915 74.6685L233.469 70.0182L268.427 103.345L311.155 120.397L346.113 114.196" stroke="#333333" stroke-width="4" stroke-linejoin="round"/>
<path d="M313.485 115.746L315.816 128.922L304.163 127.372L308.824 115.746H313.485Z" fill="#F7F7F7" stroke="#333333" stroke-width="4" stroke-linejoin="round"/>
<path d="M273.865 102.57L269.204 114.196L260.659 107.221L269.204 99.4701L273.865 102.57Z" fill="#F7F7F7" stroke="#333333" stroke-width="4" stroke-linejoin="round"/>
<path d="M341.452 94.0448L314.262 91.7196L284.741 82.419L241.237 63.8177L242.014 67.693L283.188 87.0693L313.485 96.3699L342.229 99.4701" fill="#F7F7F7"/>
<path d="M341.452 94.0448L314.262 91.7196L284.741 82.419L241.237 63.8177L242.014 67.693L283.188 87.0693L313.485 96.3699L342.229 99.4701" stroke="#333333" stroke-width="4" stroke-linejoin="round"/>
<path d="M319.7 89.3945L315.039 100.245L309.601 99.4701V87.8444L319.7 89.3945Z" fill="#F7F7F7" stroke="#333333" stroke-width="4" stroke-linejoin="round"/>
<path d="M289.403 81.6439L282.411 90.1695L277.75 87.8443L280.857 77.7687L289.403 81.6439Z" fill="#F7F7F7" stroke="#333333" stroke-width="4" stroke-linejoin="round"/>
<path d="M327.469 152.538V167.76C328.414 169.835 328.866 172.1 328.789 174.379C328.789 178.587 323.965 178.587 323.965 178.587L321.549 194.236C321.549 194.236 336.03 199.661 339.044 199.056C342.058 198.452 343.876 200.258 345.08 200.862C346.284 201.467 346.89 201.459 346.89 202.668C346.89 203.877 346.284 204.474 343.876 203.869C342.889 203.577 341.878 203.374 340.854 203.265C340.854 203.265 345.686 204.474 345.08 205.675C344.474 206.877 340.256 205.675 340.256 205.675C340.256 205.675 344.474 206.877 343.27 208.086C342.066 209.295 339.044 207.481 339.044 207.481C339.044 207.481 342.066 209.287 340.854 210.488C339.642 211.69 337.234 209.287 337.234 209.287C337.234 209.287 339.65 211.093 338.446 212.294C337.241 213.496 335.431 211.093 334.219 210.488C333.008 209.884 325.775 209.287 323.965 207.481C322.155 205.675 314.915 203.869 313.089 203.869C311.263 203.869 308.265 202.668 308.871 199.056C309.476 195.445 310.075 195.445 310.075 192.437C310.075 189.43 309.469 188.268 309.469 184.609C309.469 179.184 313.089 173.177 313.089 173.177C313.089 173.177 311.535 157.072 310.215 151.887C315.902 152.954 321.717 153.173 327.469 152.538Z" fill="#F7F7F7" stroke="#333333" stroke-width="4" stroke-linejoin="round"/>
<path d="M315.52 175.58L314.309 177.983" stroke="#333333" stroke-width="4" stroke-linejoin="round"/>
<path d="M320.951 175.58L322.155 177.983" stroke="#333333" stroke-width="4" stroke-linejoin="round"/>
<path d="M320.951 184.005L322.155 186.415" stroke="#333333" stroke-width="4" stroke-linejoin="round"/>
<path d="M320.345 193.631L321.549 196.042" stroke="#333333" stroke-width="4" stroke-linejoin="round"/>
<path d="M318.535 188.818L319.739 191.228" stroke="#333333" stroke-width="4" stroke-linejoin="round"/>
<path d="M319.141 179.192L317.929 181.595" stroke="#333333" stroke-width="4" stroke-linejoin="round"/>
<path d="M317.331 184.005L316.119 186.415" stroke="#333333" stroke-width="4" stroke-linejoin="round"/>
<path d="M315.521 193.034L316.725 195.437" stroke="#333333" stroke-width="4" stroke-linejoin="round"/>
<path d="M313.71 181.594L312.499 184.005" stroke="#333333" stroke-width="4" stroke-linejoin="round"/>
<path d="M313.71 188.221L312.499 190.624" stroke="#333333" stroke-width="4" stroke-linejoin="round"/>
<path d="M311.9 193.631L310.688 196.042" stroke="#333333" stroke-width="4" stroke-linejoin="round"/>
<path d="M314.86 153.561L314.448 156.219" stroke="#333333" stroke-width="4" stroke-linejoin="round"/>
<path d="M321.16 153.445L323.04 155.375" stroke="#333333" stroke-width="4" stroke-linejoin="round"/>
<path d="M322.605 159.932L324.493 161.862" stroke="#333333" stroke-width="4" stroke-linejoin="round"/>
<path d="M324.975 169.287L326.863 171.217" stroke="#333333" stroke-width="4" stroke-linejoin="round"/>
<path d="M321.782 165.256L323.67 167.179" stroke="#333333" stroke-width="4" stroke-linejoin="round"/>
<path d="M319.412 155.902L319.001 158.56" stroke="#333333" stroke-width="4" stroke-linejoin="round"/>
<path d="M319.164 161.04L318.744 163.699" stroke="#333333" stroke-width="4" stroke-linejoin="round"/>
<path d="M320.197 170.79L322.085 172.712" stroke="#333333" stroke-width="4" stroke-linejoin="round"/>
<path d="M314.977 159.847L314.565 162.505" stroke="#333333" stroke-width="4" stroke-linejoin="round"/>
<path d="M317.004 166.148L316.585 168.806" stroke="#333333" stroke-width="4" stroke-linejoin="round"/>
<path d="M315.73 170.659L315.311 173.317" stroke="#333333" stroke-width="4" stroke-linejoin="round"/>
<path d="M362.419 24.8249C362.419 24.8249 358.535 35.9159 355.428 36.6909C352.32 37.466 347.659 36.6909 349.213 32.8157C350.767 28.9404 355.661 22.833 355.661 22.833C355.661 22.833 356.197 25.3597 362.419 24.8249Z" fill="#F7F7F7" stroke="#333333" stroke-width="4" stroke-linejoin="round"/>
<path d="M353.905 36.9313C353.905 36.9313 338.368 57.6174 336.037 57.6174L332.93 53.7421C332.93 53.7421 346.3 39.0161 348.941 35.1409C348.918 35.1409 350.036 37.9466 353.905 36.9313Z" fill="#333333"/>
<path d="M315.816 90.1695C323.584 78.5437 319.7 61.4926 318.146 39.7911C316.593 18.0897 332.13 18.0897 332.13 18.0897C333.684 14.9895 330.576 11.8893 330.576 11.8893C336.014 11.8893 337.568 17.3147 337.568 17.3147C339.122 14.2144 336.791 10.3392 336.791 10.3392C341.452 10.3392 343.006 16.5396 343.006 16.5396C344.56 12.6643 343.006 8.01404 343.006 8.01404C349.221 11.1142 347.667 16.5396 347.667 16.5396C360.874 16.5396 356.989 39.0161 356.989 39.0161C356.989 39.0161 355.436 95.5948 351.551 116.521C351.551 116.521 349.998 145.973 320.477 155.274C290.956 164.574 238.907 161.474 227.254 130.472C215.601 99.4701 218.709 85.5192 218.709 85.5192C218.709 85.5192 223.37 97.92 229.585 98.6951C235.8 99.4701 242.791 89.3944 276.196 87.8443C309.601 86.2942 315.816 90.1695 315.816 90.1695Z" fill="#F7F7F7" stroke="#333333" stroke-width="4" stroke-linejoin="round"/>
<path d="M303.386 98.6951C326.692 93.2697 319.7 61.4926 318.146 39.7911C316.593 18.0897 332.13 18.0897 332.13 18.0897C333.683 14.9895 330.576 11.8893 330.576 11.8893C336.014 11.8893 337.568 17.3147 337.568 17.3147C339.121 14.2144 336.791 10.3392 336.791 10.3392C341.452 10.3392 343.006 16.5396 343.006 16.5396C344.559 12.6643 343.006 8.01404 343.006 8.01404C349.221 11.1142 347.667 16.5396 347.667 16.5396C360.873 16.5396 356.989 39.0161 356.989 39.0161C356.989 39.0161 355.435 95.5948 351.551 116.521" stroke="#333333" stroke-width="4" stroke-linejoin="round"/>
<path d="M414.08 76.4123C414.08 76.4123 416.03 83.9691 402.824 87.8443C389.617 91.7196 374.08 86.2942 360.097 75.4435C346.113 64.5928 341.802 56.3695 341.802 56.3695L414.08 76.4123Z" fill="#F7F7F7" stroke="#333333" stroke-width="4" stroke-linejoin="round"/>
<path d="M352.328 45.2166C352.328 45.2166 387.287 63.0427 409.039 63.0427C430.791 63.0427 411.369 89.3945 385.733 82.419C360.097 75.4436 339.898 54.5172 339.898 54.5172C339.898 54.5172 332.907 41.3413 352.328 45.2166Z" fill="#F7F7F7" stroke="#333333" stroke-width="4" stroke-linejoin="round"/>
<path d="M360.873 21.3371C360.926 22.1493 360.683 22.9533 360.19 23.6012C359.696 24.249 358.984 24.6973 358.186 24.8636C354.659 25.5922 348.288 26.8245 343.006 27.3903C328.308 28.9404 320.345 28.0568 316.732 27.305C315.993 27.1534 315.327 26.757 314.842 26.1802C314.357 25.6034 314.081 24.8799 314.06 24.1273C313.881 18.2524 315.443 3.86747 334.46 1.81359C357.09 -0.627824 360.462 14.7027 360.873 21.3371Z" fill="#F7F7F7" stroke="#333333" stroke-width="4" stroke-linejoin="round"/>
<path d="M365.231 21.8255C365.173 21.361 365.016 20.9141 364.772 20.5142C364.528 20.1142 364.202 19.7702 363.816 19.5046C363.429 19.239 362.991 19.0578 362.529 18.9729C362.068 18.8881 361.593 18.9014 361.137 19.0121C353.653 20.8661 346.031 22.1128 338.345 22.74C330.214 23.0981 322.069 22.9402 313.959 22.2673C313.501 22.2331 313.042 22.2936 312.609 22.4448C312.176 22.5961 311.779 22.8349 311.443 23.1463C311.107 23.4577 310.838 23.8349 310.655 24.2545C310.472 24.674 310.377 25.1268 310.378 25.5845V26.2433C310.38 27.0387 310.668 27.8069 311.19 28.4084C311.712 29.0099 312.432 29.4049 313.221 29.5217C316.95 30.0875 324.68 30.7231 338.345 29.7155C352.227 28.6924 359.638 26.6153 363.072 25.383C363.778 25.123 364.376 24.6324 364.768 23.9909C365.16 23.3494 365.323 22.5945 365.231 21.8487V21.8255Z" fill="#F7F7F7" stroke="#333333" stroke-width="4" stroke-linejoin="round"/>
<path d="M330.576 11.1143C330.576 11.1143 331.353 15.7646 326.692 15.7646C322.03 15.7646 322.807 11.1143 326.692 9.56416C330.576 8.01405 330.576 11.1143 330.576 11.1143Z" fill="#333333"/>
<path d="M317.362 30.2503C317.362 30.2503 313.477 41.3413 310.37 42.1163C307.262 42.8914 302.601 42.1163 304.155 38.2411C305.709 34.3658 310.603 28.2584 310.603 28.2584C310.603 28.2584 311.139 30.7851 317.362 30.2503Z" fill="#F7F7F7" stroke="#333333" stroke-width="4" stroke-linejoin="round"/>
<path d="M308.847 42.3566C308.847 42.3566 293.31 63.0426 290.98 63.0426L287.872 59.1674C287.872 59.1674 301.242 44.4414 303.883 40.5662C303.86 40.5662 304.979 43.3719 308.847 42.3566Z" fill="#333333"/>
<path d="M294.693 159.699V179.3C294.693 179.3 296.394 182.401 296.394 187.826C296.394 193.251 290.179 193.251 290.179 193.251L287.072 213.403C287.072 213.403 305.717 220.378 309.601 219.603C313.485 218.828 315.816 221.153 317.369 221.928C318.923 222.703 319.7 222.703 319.7 224.253C319.7 225.803 318.923 226.579 315.816 225.803C314.547 225.428 313.247 225.169 311.931 225.028C311.931 225.028 318.146 226.579 317.369 228.129C316.593 229.679 311.155 228.129 311.155 228.129C311.155 228.129 316.593 229.679 315.039 231.229C313.485 232.779 309.601 230.454 309.601 230.454C309.601 230.454 313.485 232.779 311.931 234.329C310.378 235.879 307.27 232.779 307.27 232.779C307.27 232.779 310.378 235.104 308.824 236.654C307.27 238.204 304.94 235.104 303.386 234.329C301.832 233.554 292.51 232.779 290.179 230.454C287.849 228.129 278.527 225.803 276.196 225.803C273.865 225.803 269.981 224.253 270.758 219.603C271.535 214.953 272.312 214.953 272.312 211.078C272.312 207.202 271.535 205.714 271.535 201.002C271.535 194.026 276.196 186.276 276.196 186.276C276.196 186.276 274.238 165.543 272.498 158.862C279.814 160.237 287.294 160.519 294.693 159.699Z" fill="#F7F7F7" stroke="#333333" stroke-width="4" stroke-linejoin="round"/>
<path d="M279.303 189.376L277.75 192.476" stroke="#333333" stroke-width="4" stroke-linejoin="round"/>
<path d="M286.295 189.376L287.849 192.476" stroke="#333333" stroke-width="4" stroke-linejoin="round"/>
<path d="M286.295 200.227L287.849 203.327" stroke="#333333" stroke-width="4" stroke-linejoin="round"/>
<path d="M285.518 212.628L287.072 215.728" stroke="#333333" stroke-width="4" stroke-linejoin="round"/>
<path d="M283.188 206.427L284.741 209.527" stroke="#333333" stroke-width="4" stroke-linejoin="round"/>
<path d="M283.965 194.026L282.411 197.127" stroke="#333333" stroke-width="4" stroke-linejoin="round"/>
<path d="M281.634 200.227L280.08 203.327" stroke="#333333" stroke-width="4" stroke-linejoin="round"/>
<path d="M279.303 211.853L280.857 214.953" stroke="#333333" stroke-width="4" stroke-linejoin="round"/>
<path d="M276.973 197.127L275.419 200.227" stroke="#333333" stroke-width="4" stroke-linejoin="round"/>
<path d="M276.973 205.652L275.419 208.752" stroke="#333333" stroke-width="4" stroke-linejoin="round"/>
<path d="M274.642 212.628L273.089 215.728" stroke="#333333" stroke-width="4" stroke-linejoin="round"/>
<path d="M278.457 161.025L277.928 164.45" stroke="#333333" stroke-width="4" stroke-linejoin="round"/>
<path d="M286.567 160.87L288.999 163.35" stroke="#333333" stroke-width="4" stroke-linejoin="round"/>
<path d="M288.431 169.225L290.863 171.705" stroke="#333333" stroke-width="4" stroke-linejoin="round"/>
<path d="M291.485 181.277L293.916 183.757" stroke="#333333" stroke-width="4" stroke-linejoin="round"/>
<path d="M287.367 176.076L289.799 178.556" stroke="#333333" stroke-width="4" stroke-linejoin="round"/>
<path d="M284.322 164.032L283.786 167.458" stroke="#333333" stroke-width="4" stroke-linejoin="round"/>
<path d="M283.996 170.643L283.459 174.069" stroke="#333333" stroke-width="4" stroke-linejoin="round"/>
<path d="M285.332 183.199L287.756 185.679" stroke="#333333" stroke-width="4" stroke-linejoin="round"/>
<path d="M278.604 169.108L278.076 172.534" stroke="#333333" stroke-width="4" stroke-linejoin="round"/>
<path d="M281.215 177.231L280.678 180.657" stroke="#333333" stroke-width="4" stroke-linejoin="round"/>
<path d="M279.575 183.036L279.039 186.462" stroke="#333333" stroke-width="4" stroke-linejoin="round"/>
<path d="M312.079 112.971L316.701 128.465L302.096 134.371L299.781 125.442L306.462 123.233L305.056 113.684L312.079 112.971Z" fill="#F7F7F7" stroke="#333333" stroke-width="4" stroke-linejoin="round"/>
<path d="M299.781 125.442L302.485 134.378L292.16 138.385L290.599 134.518L287.67 135.138L286.544 126.659L290.343 125.861L288.89 119.032L289.643 115.25L305.289 113.979L306.462 123.233L299.781 125.442Z" fill="#F7F7F7" stroke="#333333" stroke-width="4" stroke-linejoin="round"/>
<path d="M271.869 114.25L269.018 126.411L274.821 127.558L271.698 136.518L285.448 138.889L286.039 135.487L287.561 135.161L286.544 126.659L290.342 125.861L288.89 119.032L283.413 119.404L282.092 115.165L271.869 114.25Z" fill="#F7F7F7" stroke="#333333" stroke-width="4" stroke-linejoin="round"/>
<path d="M262.586 113.421L258.336 124.714L251.609 122.97L249.099 129.837L248.563 132.945L271.877 136.107L274.821 127.558L269.018 126.411L272.079 114.669L262.586 113.421Z" fill="#F7F7F7" stroke="#333333" stroke-width="4" stroke-linejoin="round"/>
<path d="M262.228 114.382L258.336 124.713L251.608 122.97L249.099 129.837L243.894 127.775L241.665 130.86L234.891 126.512L241.035 118.079L246.839 119.226L249.076 114.793L254.118 116.095L256.099 113.568L262.228 114.382Z" fill="#F7F7F7" stroke="#333333" stroke-width="4" stroke-linejoin="round"/>
<path d="M235.201 108.089L231.387 113.785L235.675 115.25L229.08 122.559L235.753 126.14L241.035 118.079L246.839 119.226L249.348 112.351L249.526 111.46L235.201 108.089Z" fill="#F7F7F7" stroke="#333333" stroke-width="4" stroke-linejoin="round"/>
<path d="M225.514 105.81L221.303 111.166L216.852 108.941L213.17 112.755L229.204 122.171L235.675 115.25L230.47 113.189L233.624 109.352L225.514 105.81Z" fill="#F7F7F7" stroke="#333333" stroke-width="4" stroke-linejoin="round"/>
<path d="M213.123 102.896L205.766 108.189L212.944 112.933L216.852 108.941L221.14 110.406L224.131 105.81L213.123 102.896Z" fill="#F7F7F7" stroke="#333333" stroke-width="4" stroke-linejoin="round"/>
<path d="M325.604 131.069L289.659 145.02L242.628 136.758L202.255 111.235L202.806 106.368L243.941 131.728L289.286 139.548L322.194 126.24" fill="#F7F7F7"/>
<path d="M325.604 131.069L289.659 145.02L242.628 136.758L202.255 111.235L202.806 106.368L243.941 131.728L289.286 139.548L322.194 126.24" stroke="#333333" stroke-width="4" stroke-linejoin="round"/>
<path d="M290.599 134.518L295.617 146.927L283.902 147.826L286.039 135.487L290.599 134.518Z" fill="#F7F7F7" stroke="#333333" stroke-width="4" stroke-linejoin="round"/>
<path d="M249.099 129.837L246.963 142.175L237.151 137.122L243.894 127.775L249.099 129.837Z" fill="#F7F7F7" stroke="#333333" stroke-width="4" stroke-linejoin="round"/>
<path d="M313.439 107.492L286.357 110.856L255.547 107.872L209.114 98.6873L210.684 102.322L254.996 112.747L286.567 115.568L315.326 112.646" fill="#F7F7F7"/>
<path d="M313.439 107.492L286.357 110.856L255.547 107.872L209.114 98.6873L210.684 102.322L254.996 112.747L286.567 115.568L315.326 112.646" stroke="#333333" stroke-width="4" stroke-linejoin="round"/>
<path d="M291.189 107.453L288.89 119.032L283.413 119.404L280.989 108.027L291.189 107.453Z" fill="#F7F7F7" stroke="#333333" stroke-width="4" stroke-linejoin="round"/>
<path d="M259.944 106.151L254.879 115.94L249.837 114.63L250.777 104.128L259.944 106.151Z" fill="#F7F7F7" stroke="#333333" stroke-width="4" stroke-linejoin="round"/>
<path d="M337.179 42.8836C338.681 42.8836 339.898 41.9398 339.898 40.7755C339.898 39.6112 338.681 38.6674 337.179 38.6674C335.678 38.6674 334.46 39.6112 334.46 40.7755C334.46 41.9398 335.678 42.8836 337.179 42.8836Z" fill="#333333"/>
<path d="M351.163 41.6822C352.664 41.6822 353.882 40.7384 353.882 39.5741C353.882 38.4098 352.664 37.4659 351.163 37.4659C349.661 37.4659 348.444 38.4098 348.444 39.5741C348.444 40.7384 349.661 41.6822 351.163 41.6822Z" fill="#333333"/>
<path d="M320.197 76.947C320.197 76.947 329.799 111.096 346.89 110.321C363.981 109.546 354.659 89.3944 354.659 89.3944" stroke="#333333" stroke-width="4" stroke-linejoin="round"/>
<path d="M352.18 108.406C352.18 108.406 355.948 112.832 360.229 112.011C360.54 111.946 360.862 111.953 361.171 112.03C361.479 112.107 361.766 112.253 362.011 112.457C362.255 112.66 362.45 112.916 362.581 113.205C362.712 113.494 362.777 113.809 362.769 114.126C362.743 115.27 362.9 116.411 363.235 117.506C363.358 117.878 363.374 118.277 363.281 118.657C363.188 119.038 362.99 119.385 362.709 119.659C362.428 119.932 362.076 120.122 361.692 120.206C361.309 120.29 360.909 120.265 360.539 120.133C359.384 119.714 358.176 119.453 356.95 119.358C356.64 119.338 356.339 119.251 356.066 119.103C355.793 118.955 355.556 118.75 355.371 118.501C355.185 118.253 355.056 117.967 354.992 117.664C354.928 117.361 354.931 117.048 355 116.746C355.49 114.46 355.225 111.429 352.18 108.406Z" fill="#333333"/>
<path d="M251.966 153.569C251.966 153.569 224.869 180.85 172.82 186.276C120.77 191.701 95.134 166.125 50.8531 190.926C6.57226 215.728 46.9688 251.38 128.539 245.18C210.109 238.979 258.616 155.902 258.616 155.902L251.966 153.569Z" fill="#333333"/>
<path d="M51.6299 206.427C51.6299 206.427 84.2579 213.403 88.1422 224.253C92.0265 235.104 93.5802 238.204 76.4894 235.879C59.3985 233.554 36.0928 206.427 51.6299 206.427Z" fill="#F7F7F7" stroke="#333333" stroke-width="4" stroke-linejoin="round"/>
<path d="M87.9636 226.78C89.2299 222.765 83.7064 217.247 75.5339 214.379C67.3613 211.512 59.5928 212.403 58.0701 216.332L56.9282 219.572C55.6619 223.587 61.1854 229.105 69.3579 231.973C77.5304 234.841 85.299 233.942 86.8216 230.02L87.9558 226.78H87.9636Z" fill="#F7F7F7"/>
<path d="M78.5015 234.414C75.2976 234.364 72.124 233.785 69.1093 232.701C60.525 229.702 54.8695 223.905 56.1669 219.456C56.1634 219.415 56.1634 219.373 56.1669 219.332L57.3011 216.092C57.3144 216.049 57.3327 216.007 57.3555 215.968C59.1267 211.69 67.1749 210.674 75.7514 213.643C84.3279 216.611 89.9834 222.432 88.7016 226.881C88.6933 226.926 88.6803 226.97 88.6627 227.013L87.5285 230.252C87.5151 230.293 87.4968 230.332 87.4741 230.369C86.4176 233.019 82.9762 234.414 78.5015 234.414ZM57.6817 219.743C57.6861 219.768 57.6861 219.794 57.6817 219.82C56.5631 223.362 62.0398 228.594 69.6375 231.244C77.2351 233.895 84.7862 233.205 86.1224 229.741V229.671L87.1945 226.617C87.1909 226.594 87.1909 226.571 87.1945 226.547C88.3132 223.005 82.8363 217.766 75.2386 215.115C67.6409 212.465 60.0977 213.162 58.7537 216.666V216.735L57.6817 219.743Z" fill="#333333"/>
<path d="M88.0568 227.012C89.4678 222.988 83.9176 217.39 75.66 214.508C67.4024 211.626 59.5644 212.552 58.1534 216.576C56.7424 220.601 62.2928 226.199 70.5504 229.081C78.808 231.963 86.6459 231.037 88.0568 227.012Z" fill="#F7F7F7"/>
<path d="M79.5966 231.423C76.3816 231.368 73.1977 230.784 70.1735 229.694C66.4041 228.456 62.9555 226.403 60.0743 223.68C57.5185 221.099 56.5396 218.448 57.3242 216.208C58.1088 213.969 60.5327 212.504 64.145 212.077C68.0964 211.728 72.0764 212.257 75.7979 213.628C84.5919 216.728 90.2473 222.618 88.6703 227.113C87.6837 229.935 84.1956 231.423 79.5966 231.423ZM66.3901 213.488C65.6943 213.483 64.999 213.522 64.3082 213.604C61.3561 213.953 59.3362 215.085 58.7613 216.704C58.1864 218.324 59.0643 220.479 61.1541 222.595C63.8775 225.149 67.1321 227.073 70.6861 228.23C78.4003 230.927 85.9669 230.19 87.2177 226.633C88.4684 223.075 82.9992 217.805 75.2851 215.108C72.4295 214.084 69.4242 213.536 66.3901 213.488Z" fill="#333333"/>
<path d="M58.4658 221.234L57.4091 224.248L58.8683 224.757L59.9251 221.743L58.4658 221.234Z" fill="#333333"/>
<path d="M57.5916 219.638L56.6194 222.411L58.0786 222.92L59.0508 220.147L57.5916 219.638Z" fill="#333333"/>
<path d="M60.0014 222.8L58.9446 225.814L60.4038 226.324L61.4606 223.31L60.0014 222.8Z" fill="#333333"/>
<path d="M61.6771 224.694L60.6202 227.708L62.0795 228.217L63.1363 225.203L61.6771 224.694Z" fill="#333333"/>
<path d="M64.0692 226.041L63.0125 229.055L64.4717 229.564L65.5285 226.55L64.0692 226.041Z" fill="#333333"/>
<path d="M66.1379 227.544L65.0811 230.558L66.5403 231.068L67.5971 228.054L66.1379 227.544Z" fill="#333333"/>
<path d="M68.9279 228.518L67.8711 231.532L69.3303 232.042L70.3871 229.028L68.9279 228.518Z" fill="#333333"/>
<path d="M83.3097 230.168L82.2529 233.182L83.7122 233.691L84.7689 230.677L83.3097 230.168Z" fill="#333333"/>
<path d="M84.9927 229.466L84.0205 232.239L85.4797 232.748L86.4519 229.976L84.9927 229.466Z" fill="#333333"/>
<path d="M81.1308 230.44L80.074 233.455L81.5332 233.964L82.59 230.95L81.1308 230.44Z" fill="#333333"/>
<path d="M78.6365 230.868L77.5797 233.882L79.0389 234.391L80.0957 231.377L78.6365 230.868Z" fill="#333333"/>
<path d="M76.4727 230.374L75.4159 233.388L76.8751 233.897L77.932 230.883L76.4727 230.374Z" fill="#333333"/>
<path d="M73.9883 230.019L72.9315 233.033L74.3907 233.542L75.4475 230.528L73.9883 230.019Z" fill="#333333"/>
<path d="M71.2759 229.595L70.2191 232.609L71.6784 233.118L72.7351 230.104L71.2759 229.595Z" fill="#333333"/>
<path d="M84.5454 225.028C84.5454 224.982 82.7274 220.037 74.6559 217.216C71.6254 216.074 68.3612 215.688 65.1471 216.092C63.9794 216.241 62.8452 216.584 61.7913 217.107L61.0144 215.79C61.2319 215.658 66.3669 212.69 75.1843 215.79C84.0016 218.89 85.9438 224.315 86.0603 224.563L84.5454 225.028Z" fill="#333333"/>
<path d="M71.6496 223.68C72.9159 219.665 67.3924 214.147 59.2199 211.279C51.0474 208.411 43.2788 209.303 41.7562 213.232L40.6142 216.472C39.3479 220.487 44.8714 226.005 53.0439 228.873C61.2165 231.74 68.985 230.841 70.5077 226.92L71.6418 223.68H71.6496Z" fill="#F7F7F7"/>
<path d="M62.1876 231.314C58.9836 231.263 55.81 230.685 52.7953 229.601C44.211 226.602 38.5556 220.804 39.8529 216.356C39.8494 216.314 39.8494 216.273 39.8529 216.232L40.9871 212.992C41.0005 212.949 41.0188 212.907 41.0415 212.868C42.8128 208.59 50.861 207.574 59.4375 210.543C68.014 213.511 73.6694 219.332 72.3876 223.781C72.3794 223.826 72.3663 223.87 72.3487 223.912L71.2146 227.152C71.2012 227.193 71.1829 227.232 71.1601 227.268C70.1036 229.919 66.6623 231.314 62.1876 231.314ZM41.3678 216.642C41.3721 216.668 41.3721 216.694 41.3678 216.72C40.2491 220.262 45.7259 225.493 53.3235 228.144C60.9212 230.795 68.4722 230.105 69.8084 226.64V226.571L70.8806 223.517C70.8769 223.494 70.8769 223.47 70.8806 223.447C71.9992 219.905 66.5223 214.666 58.9246 212.015C51.327 209.365 43.7837 210.062 42.4397 213.565V213.635L41.3678 216.642Z" fill="#333333"/>
<path d="M71.7433 223.913C73.1542 219.889 67.604 214.291 59.3464 211.409C51.0888 208.527 43.2508 209.453 41.8398 213.477C40.4288 217.502 45.9792 223.1 54.2368 225.982C62.4944 228.864 70.3323 227.938 71.7433 223.913Z" fill="#F7F7F7"/>
<path d="M63.2827 228.322C60.0676 228.268 56.8838 227.684 53.8595 226.594C50.0901 225.356 46.6415 223.302 43.7604 220.58C41.2045 217.999 40.2256 215.348 41.0103 213.108C41.7949 210.868 44.2187 209.404 47.8311 208.977C51.7825 208.627 55.7624 209.157 59.4839 210.527C68.278 213.628 73.9333 219.518 72.3563 224.013C71.3697 226.834 67.8817 228.322 63.2827 228.322ZM50.0761 210.388C49.3804 210.382 48.685 210.421 47.9942 210.504C45.0421 210.853 43.0222 211.984 42.4473 213.604C41.8725 215.224 42.7504 217.379 44.8401 219.495C47.5635 222.049 50.8182 223.973 54.3722 225.129C62.0864 227.826 69.653 227.09 70.9037 223.533C72.1544 219.975 66.6853 214.705 58.9711 212.008C56.1155 210.983 53.1102 210.436 50.0761 210.388Z" fill="#333333"/>
<path d="M42.1521 218.127L41.0953 221.141L42.5546 221.65L43.6113 218.636L42.1521 218.127Z" fill="#333333"/>
<path d="M41.2778 216.539L40.3057 219.312L41.7649 219.821L42.7371 217.048L41.2778 216.539Z" fill="#333333"/>
<path d="M43.6878 219.701L42.631 222.715L44.0902 223.224L45.147 220.21L43.6878 219.701Z" fill="#333333"/>
<path d="M45.3635 221.587L44.3066 224.601L45.7659 225.111L46.8227 222.096L45.3635 221.587Z" fill="#333333"/>
<path d="M47.7478 222.934L46.691 225.948L48.1503 226.457L49.207 223.443L47.7478 222.934Z" fill="#333333"/>
<path d="M49.8242 224.437L48.7673 227.452L50.2266 227.961L51.2834 224.947L49.8242 224.437Z" fill="#333333"/>
<path d="M52.6141 225.412L51.5574 228.426L53.0166 228.935L54.0734 225.921L52.6141 225.412Z" fill="#333333"/>
<path d="M66.996 227.061L65.9392 230.075L67.3984 230.584L68.4552 227.57L66.996 227.061Z" fill="#333333"/>
<path d="M68.679 226.36L67.7068 229.132L69.166 229.642L70.1382 226.869L68.679 226.36Z" fill="#333333"/>
<path d="M64.8172 227.334L63.7604 230.348L65.2196 230.857L66.2765 227.843L64.8172 227.334Z" fill="#333333"/>
<path d="M62.3229 227.769L61.2661 230.783L62.7253 231.292L63.7821 228.278L62.3229 227.769Z" fill="#333333"/>
<path d="M60.1591 227.267L59.1023 230.281L60.5615 230.79L61.6184 227.776L60.1591 227.267Z" fill="#333333"/>
<path d="M57.6747 226.92L56.6179 229.934L58.0772 230.443L59.1339 227.429L57.6747 226.92Z" fill="#333333"/>
<path d="M54.9623 226.488L53.9055 229.502L55.3648 230.011L56.4215 226.997L54.9623 226.488Z" fill="#333333"/>
<path d="M68.2315 221.928C68.2315 221.882 66.4135 216.937 58.3419 214.116C55.3114 212.974 52.0472 212.588 48.8332 212.992C47.6655 213.141 46.5312 213.484 45.4773 214.007L44.7004 212.69C44.918 212.558 50.053 209.589 58.8703 212.69C67.6876 215.79 69.6298 221.215 69.7463 221.463L68.2315 221.928Z" fill="#333333"/>
<path d="M66.0175 216.914C62.91 214.062 55.5532 216.689 49.4781 222.858C43.4031 229.028 40.8938 236.406 43.807 239.452L46.262 241.855C49.3695 244.707 56.7186 242.08 62.7936 235.918C68.8686 229.756 71.3777 222.37 68.4645 219.324L66.0097 216.922L66.0175 216.914Z" fill="#F7F7F7"/>
<path d="M68.9073 228.71C67.4916 231.582 65.6096 234.201 63.3373 236.46C56.9671 242.932 49.2994 245.56 45.8113 242.498L45.7103 242.413L43.2632 240.01L43.1779 239.909C40.0705 236.484 42.5563 228.787 48.9343 222.324C55.3123 215.86 62.9722 213.224 66.4525 216.286L66.5612 216.371L69.0084 218.774L69.0937 218.875C71.0514 220.967 70.8106 224.672 68.9073 228.71ZM46.728 241.243L46.7824 241.289C49.517 243.808 56.6018 241.103 62.2418 235.375C67.8818 229.648 70.4765 222.541 67.9051 219.874L67.8585 219.82L65.5279 217.549L65.4736 217.503C62.7391 214.984 55.6541 217.697 50.0141 223.416C44.3741 229.136 41.7794 236.251 44.3508 238.917L44.3974 238.972L46.728 241.243Z" fill="#333333"/>
<path d="M60.5463 233.767C66.6802 227.544 69.1827 220.076 66.1358 217.087C63.0889 214.098 55.6464 216.719 49.5125 222.942C43.3786 229.165 40.876 236.633 43.9229 239.623C46.9698 242.612 54.4124 239.99 60.5463 233.767Z" fill="#F7F7F7"/>
<path d="M66.6544 226.455C65.2301 229.327 63.3401 231.946 61.0609 234.205C58.3336 237.086 55.0018 239.331 51.3037 240.777C47.87 241.987 45.0423 241.739 43.3487 240.072C41.6552 238.406 41.3599 235.6 42.5096 232.151C43.8957 228.434 46.0898 225.07 48.9343 222.3C55.4599 215.674 63.244 213.1 66.6466 216.433C68.7209 218.518 68.6121 222.3 66.6544 226.455ZM44.7547 230.725C44.4586 231.353 44.1993 231.997 43.9778 232.655C43.0378 235.468 43.201 237.778 44.4362 238.987C45.6714 240.196 47.9864 240.328 50.7986 239.336C54.2783 237.97 57.4116 235.853 59.9734 233.135C65.6988 227.323 68.2624 220.184 65.5745 217.541C62.8866 214.899 55.7628 217.58 50.0373 223.385C47.8844 225.526 46.0996 228.006 44.7547 230.725Z" fill="#333333"/>
<path d="M49.353 240.27L48.269 241.369L50.5511 243.608L51.6351 242.509L49.353 240.27Z" fill="#333333"/>
<path d="M47.5357 240.384L46.4518 241.484L48.551 243.543L49.635 242.443L47.5357 240.384Z" fill="#333333"/>
<path d="M51.4297 239.56L50.3457 240.66L52.6279 242.899L53.7118 241.799L51.4297 239.56Z" fill="#333333"/>
<path d="M53.8548 238.847L52.7709 239.947L55.0529 242.186L56.1369 241.086L53.8548 238.847Z" fill="#333333"/>
<path d="M56.1068 237.271L55.0228 238.37L57.3049 240.609L58.3888 239.51L56.1068 237.271Z" fill="#333333"/>
<path d="M58.3541 236.042L57.2701 237.141L59.5522 239.38L60.6362 238.281L58.3541 236.042Z" fill="#333333"/>
<path d="M60.4149 233.936L59.3309 235.036L61.6131 237.275L62.697 236.175L60.4149 233.936Z" fill="#333333"/>
<path d="M68.0446 221.661L66.9607 222.761L69.2428 225L70.3267 223.9L68.0446 221.661Z" fill="#333333"/>
<path d="M68.1193 219.841L67.0354 220.941L69.1346 223L70.2186 221.9L68.1193 219.841Z" fill="#333333"/>
<path d="M67.3618 223.749L66.2778 224.848L68.5599 227.087L69.6439 225.988L67.3618 223.749Z" fill="#333333"/>
<path d="M66.6983 226.178L65.6144 227.278L67.8965 229.517L68.9804 228.417L66.6983 226.178Z" fill="#333333"/>
<path d="M65.318 227.922L64.234 229.021L66.5161 231.26L67.6 230.161L65.318 227.922Z" fill="#333333"/>
<path d="M63.9405 230.013L62.8566 231.113L65.1386 233.352L66.2226 232.252L63.9405 230.013Z" fill="#333333"/>
<path d="M62.3975 232.279L61.3136 233.378L63.5957 235.617L64.6796 234.518L62.3975 232.279Z" fill="#333333"/>
<path d="M62.9877 219.262C62.9411 219.262 57.6895 218.774 51.6922 224.858C49.3622 227.103 47.6203 229.884 46.6193 232.957C46.2502 234.074 46.0766 235.246 46.1064 236.422L44.5527 236.569C44.5527 236.321 44.0167 230.423 50.5733 223.773C57.13 217.123 62.9022 217.704 63.143 217.735L62.9877 219.262Z" fill="#333333"/>
<path d="M84.1802 234.817C85.3144 230.764 79.6201 225.424 71.3543 222.827C63.0885 220.231 55.3589 221.37 53.9606 225.339L52.9273 228.609C51.7853 232.663 57.4797 238.003 65.7454 240.599C74.0112 243.196 81.7488 242.064 83.1394 238.088L84.1724 234.817H84.1802Z" fill="#F7F7F7"/>
<path d="M74.9357 242.746C71.7322 242.8 68.5423 242.321 65.4969 241.328C56.8194 238.607 50.9851 232.996 52.1348 228.508C52.1274 228.465 52.1274 228.42 52.1348 228.377L53.1681 225.106L53.2148 224.982C54.8539 220.649 62.8634 219.378 71.5331 222.099C80.2028 224.819 86.037 230.431 84.895 234.918C84.8988 234.962 84.8988 235.006 84.895 235.05L83.8617 238.321C83.8545 238.365 83.8386 238.407 83.8151 238.445C82.8362 241.103 79.4414 242.607 74.9357 242.746ZM53.6576 228.749C53.6613 228.772 53.6613 228.795 53.6576 228.818C52.6555 232.399 58.3187 237.453 65.9707 239.863C73.6227 242.273 81.1739 241.343 82.4013 237.832V237.763L83.3724 234.662C83.3724 234.662 83.3724 234.616 83.3724 234.593C84.3746 231.012 78.7112 225.958 71.0592 223.548C63.4071 221.138 55.8561 222.068 54.6287 225.579C54.6316 225.602 54.6316 225.625 54.6287 225.649L53.6576 228.749Z" fill="#333333"/>
<path d="M84.0872 234.888C85.3687 230.821 79.6421 225.402 71.2964 222.785C62.9508 220.167 55.1464 221.343 53.8649 225.41C52.5835 229.477 58.3102 234.896 66.6558 237.513C75.0015 240.13 82.8058 238.955 84.0872 234.888Z" fill="#F7F7F7"/>
<path d="M75.9612 239.754C72.7443 239.801 69.5419 239.317 66.4836 238.321C62.6687 237.21 59.1479 235.27 56.1747 232.639C53.5333 230.136 52.469 227.516 53.1837 225.253C53.8984 222.99 56.2912 221.448 59.8725 220.905C63.8202 220.447 67.8207 220.865 71.5874 222.13C80.4746 224.912 86.3478 230.655 84.8873 235.197C83.9939 237.98 80.5602 239.576 75.9612 239.754ZM62.1797 222.246C61.4854 222.264 60.7926 222.324 60.1054 222.424C57.1611 222.866 55.1724 224.067 54.6674 225.718C54.1625 227.369 55.087 229.477 57.2466 231.523C60.0478 233.992 63.3611 235.813 66.9496 236.856C74.7181 239.297 82.2847 238.328 83.4189 234.732C84.5531 231.136 78.921 226.036 71.1292 223.595C68.2439 222.641 65.2191 222.174 62.1797 222.215V222.246Z" fill="#333333"/>
<path d="M54.3324 230.056L53.3727 233.102L54.8475 233.564L55.8072 230.518L54.3324 230.056Z" fill="#333333"/>
<path d="M53.4083 228.487L52.5254 231.289L54.0002 231.752L54.8831 228.95L53.4083 228.487Z" fill="#333333"/>
<path d="M55.9106 231.576L54.9508 234.622L56.4256 235.085L57.3854 232.038L55.9106 231.576Z" fill="#333333"/>
<path d="M57.6531 233.406L56.6934 236.452L58.1682 236.914L59.1279 233.868L57.6531 233.406Z" fill="#333333"/>
<path d="M60.0869 234.684L59.1271 237.73L60.6019 238.192L61.5617 235.146L60.0869 234.684Z" fill="#333333"/>
<path d="M62.2026 236.118L61.2428 239.164L62.7176 239.627L63.6774 236.58L62.2026 236.118Z" fill="#333333"/>
<path d="M65.0173 237L64.0575 240.046L65.5323 240.509L66.4921 237.463L65.0173 237Z" fill="#333333"/>
<path d="M79.4422 238.189L78.4824 241.235L79.9572 241.697L80.917 238.651L79.4422 238.189Z" fill="#333333"/>
<path d="M81.1029 237.432L80.22 240.234L81.6948 240.697L82.5777 237.895L81.1029 237.432Z" fill="#333333"/>
<path d="M77.2767 238.535L76.3169 241.581L77.7917 242.043L78.7514 238.997L77.2767 238.535Z" fill="#333333"/>
<path d="M74.7936 239.045L73.8337 242.091L75.3085 242.554L76.2683 239.507L74.7936 239.045Z" fill="#333333"/>
<path d="M72.6126 238.615L71.6528 241.661L73.1276 242.124L74.0874 239.078L72.6126 238.615Z" fill="#333333"/>
<path d="M70.129 238.352L69.1692 241.398L70.644 241.861L71.6037 238.814L70.129 238.352Z" fill="#333333"/>
<path d="M67.4029 238.009L66.4431 241.055L67.9179 241.517L68.8777 238.471L67.4029 238.009Z" fill="#333333"/>
<path d="M80.7076 233.198C80.7076 233.151 78.7344 228.26 70.6085 225.703C67.5433 224.657 64.2682 224.375 61.0687 224.881C59.9036 225.061 58.7788 225.442 57.7439 226.005L56.9126 224.711C57.1223 224.579 62.1564 221.44 71.0747 224.238C79.993 227.036 82.0983 232.43 82.1838 232.655L80.7076 233.198Z" fill="#333333"/>
<path d="M41.5309 213.403C36.9319 212.372 30.3908 216.402 26.8561 222.478C23.3214 228.555 24.1061 234.383 28.5963 235.6L32.3019 236.507C36.9087 237.53 43.442 233.5 46.9844 227.423C50.5269 221.347 49.7345 215.519 45.2365 214.302L41.5309 213.403Z" fill="#F7F7F7"/>
<path d="M50.0764 220.603C49.8927 223.075 49.1175 225.467 47.8158 227.578C44.1024 233.949 37.2349 238.08 32.1309 237.026H31.9911L28.2777 236.112H28.1379C23.2437 234.701 22.3115 228.656 26.0249 222.285C29.7383 215.914 36.5979 211.783 41.7018 212.837H41.8494L45.555 213.751C45.6034 213.761 45.6505 213.777 45.695 213.798C48.6859 214.643 50.2007 217.278 50.0764 220.603ZM32.5116 235.918H32.5971C36.6523 236.825 42.8671 232.818 46.1532 227.183C49.4393 221.549 48.8645 215.867 44.9026 214.782H44.8248L41.3212 213.922H41.2434C37.1805 213.015 30.9734 217.022 27.6873 222.657C24.4012 228.291 24.9762 233.973 28.9381 235.058H29.0157L32.5116 235.918Z" fill="#333333"/>
<path d="M41.3339 229.83C46.0994 224.298 47.2404 217.48 43.8826 214.6C40.5247 211.721 33.9396 213.871 29.174 219.402C24.4085 224.934 23.2673 231.752 26.6252 234.631C29.983 237.511 36.5684 235.361 41.3339 229.83Z" fill="#F7F7F7"/>
<path d="M46.6425 219.735C46.4615 222.224 45.6805 224.633 44.3662 226.757C42.5982 229.798 40.113 232.363 37.126 234.228C34.0652 236.096 30.9656 236.778 28.402 236.151C27.1869 235.879 26.0894 235.23 25.2672 234.297C24.4451 233.364 23.9406 232.195 23.8262 230.958C23.461 228.385 24.238 225.292 26.017 222.246C29.8158 215.712 36.8308 211.589 41.9736 212.853C45.1587 213.643 46.7746 216.286 46.6425 219.735ZM25.5274 229.291C25.5039 229.809 25.5274 230.328 25.5974 230.841C25.9159 233.066 27.1511 234.6 29.0311 235.058C30.9111 235.515 33.4049 234.903 35.9063 233.376C38.7089 231.616 41.0415 229.204 42.7038 226.346C46.0365 220.618 45.4151 214.93 41.3443 213.945C37.2736 212.961 31.0121 216.937 27.6793 222.657C26.4358 224.663 25.6975 226.939 25.5274 229.291Z" fill="#333333"/>
<path d="M38.1671 235.244L37.5378 236.321L34.0808 235.476L34.7101 234.391L38.1671 235.244Z" fill="#333333"/>
<path d="M36.0229 235.802L35.3937 236.879L32.2163 236.096L32.8456 235.019L36.0229 235.802Z" fill="#333333"/>
<path d="M40.0237 234.128L39.3944 235.205L35.9452 234.36L36.5744 233.275L40.0237 234.128Z" fill="#333333"/>
<path d="M42.2533 232.903L41.6241 233.98L38.1748 233.135L38.8041 232.05L42.2533 232.903Z" fill="#333333"/>
<path d="M43.8847 231.144L43.2554 232.221L39.8062 231.368L40.4354 230.291L43.8847 231.144Z" fill="#333333"/>
<path d="M45.687 229.617L45.0577 230.694L41.6007 229.841L42.23 228.764L45.687 229.617Z" fill="#333333"/>
<path d="M46.8911 227.547L46.2618 228.632L42.8048 227.78L43.4341 226.695L46.8911 227.547Z" fill="#333333"/>
<path d="M49.214 216.805L48.5847 217.883L45.1277 217.03L45.7647 215.953L49.214 216.805Z" fill="#333333"/>
<path d="M48.1729 215.464L47.5437 216.542L44.3663 215.759L44.9956 214.682L48.1729 215.464Z" fill="#333333"/>
<path d="M49.4703 218.441L48.841 219.518L45.384 218.673L46.0133 217.588L49.4703 218.441Z" fill="#333333"/>
<path d="M49.8898 220.316L49.2605 221.394L45.8113 220.549L46.4405 219.464L49.8898 220.316Z" fill="#333333"/>
<path d="M49.2528 221.928L48.6236 223.013L45.1743 222.161L45.8036 221.083L49.2528 221.928Z" fill="#333333"/>
<path d="M48.7789 223.781L48.1497 224.866L44.7004 224.013L45.3297 222.928L48.7789 223.781Z" fill="#333333"/>
<path d="M48.204 225.804L47.5747 226.889L44.1255 226.036L44.7547 224.959L48.204 225.804Z" fill="#333333"/>
<path d="M39.4255 215.891C35.4838 216.998 32.1359 219.606 30.1032 223.153C28.2698 226.299 28.2387 228.749 28.5495 230.26C28.7013 231.177 29.0686 232.046 29.6214 232.794L28.0677 233.36C27.9201 233.197 24.6418 229.291 28.4562 222.742C29.5794 220.788 31.0833 219.077 32.8791 217.712C34.6749 216.346 36.7262 215.353 38.9126 214.79L39.4255 215.891Z" fill="#333333"/>
<path d="M32.0766 235.825C33.2807 231.795 27.664 226.369 19.4449 223.649C11.2257 220.928 3.46478 221.944 2.01206 225.889L0.932311 229.144C-0.264049 233.174 5.34487 238.6 13.5718 241.32C21.7987 244.04 29.5439 243.025 30.9966 239.08L32.0766 235.825Z" fill="#F7F7F7"/>
<path d="M22.7465 243.63C19.5435 243.638 16.3613 243.114 13.3309 242.08C4.69223 239.227 -1.05647 233.554 0.163196 229.051C0.159663 229.01 0.159663 228.968 0.163196 228.927L1.24294 225.672C1.2563 225.629 1.2746 225.587 1.29738 225.548C2.99869 221.239 11.0237 220.122 19.6546 222.944C28.2855 225.765 34.0342 231.469 32.8145 235.964C32.8216 236.008 32.8216 236.053 32.8145 236.096L31.7346 239.351C31.7212 239.395 31.7031 239.436 31.6803 239.475C30.6549 242.08 27.2212 243.545 22.7465 243.63ZM1.68581 229.307C1.68944 229.33 1.68944 229.353 1.68581 229.377C0.62928 232.934 6.19167 238.08 13.8282 240.607C21.4647 243.134 29.0079 242.312 30.2897 238.832C30.2855 238.809 30.2855 238.785 30.2897 238.762L31.3075 235.662C31.3075 235.662 31.3075 235.616 31.3075 235.592C32.364 232.035 26.8094 226.889 19.1651 224.362C11.5208 221.835 3.99312 222.657 2.70353 226.145V226.214L1.68581 229.307Z" fill="#333333"/>
<path d="M32.093 235.993C33.4369 231.946 27.7943 226.44 19.4899 223.695C11.1855 220.95 3.36405 222.006 2.02014 226.053C0.676235 230.1 6.31883 235.606 14.6232 238.351C22.9276 241.096 30.7491 240.04 32.093 235.993Z" fill="#F7F7F7"/>
<path d="M23.7873 240.607C20.5715 240.617 17.3764 240.094 14.333 239.057C10.5363 237.887 7.04722 235.891 4.11742 233.213C1.50718 230.679 0.489336 228.036 1.23512 225.788C1.9809 223.54 4.3427 222.029 7.99393 221.541C11.9471 221.144 15.9392 221.623 19.6855 222.944C28.5261 225.866 34.2827 231.694 32.7756 236.213C31.8511 238.98 28.3863 240.53 23.7873 240.607ZM10.2778 222.889C9.58141 222.901 8.88629 222.952 8.19592 223.044C5.25163 223.44 3.24728 224.594 2.70348 226.245C2.15968 227.896 3.0608 230.02 5.18939 232.097C7.95586 234.606 11.2421 236.477 14.8148 237.577C22.5833 240.134 30.1266 239.282 31.3152 235.709C32.5038 232.136 26.9569 226.943 19.1961 224.378C16.3263 223.393 13.3127 222.89 10.2778 222.889Z" fill="#333333"/>
<path d="M2.41194 230.702L1.4054 233.733L2.87289 234.218L3.87943 231.187L2.41194 230.702Z" fill="#333333"/>
<path d="M1.51196 229.126L0.58606 231.914L2.05365 232.399L2.97955 229.611L1.51196 229.126Z" fill="#333333"/>
<path d="M3.97383 232.245L2.96729 235.276L4.43478 235.761L5.44132 232.73L3.97383 232.245Z" fill="#333333"/>
<path d="M5.68348 234.107L4.67688 237.139L6.14438 237.624L7.15098 234.592L5.68348 234.107Z" fill="#333333"/>
<path d="M8.09846 235.427L7.09192 238.458L8.55942 238.943L9.56596 235.912L8.09846 235.427Z" fill="#333333"/>
<path d="M10.1931 236.885L9.18652 239.916L10.654 240.401L11.6606 237.37L10.1931 236.885Z" fill="#333333"/>
<path d="M12.9985 237.815L11.9919 240.846L13.4595 241.332L14.4661 238.3L12.9985 237.815Z" fill="#333333"/>
<path d="M27.4031 239.218L26.3965 242.25L27.864 242.735L28.8706 239.703L27.4031 239.218Z" fill="#333333"/>
<path d="M29.0688 238.487L28.1428 241.276L29.6103 241.761L30.5363 238.972L29.0688 238.487Z" fill="#333333"/>
<path d="M25.2345 239.534L24.2279 242.565L25.6954 243.05L26.702 240.019L25.2345 239.534Z" fill="#333333"/>
<path d="M22.7433 240.004L21.7367 243.035L23.2042 243.52L24.2108 240.489L22.7433 240.004Z" fill="#333333"/>
<path d="M10.3227 233.258L9.33044 236.292L10.7991 236.77L11.7913 233.737L10.3227 233.258Z" fill="#333333"/>
<path d="M18.0769 239.232L17.0703 242.263L18.5378 242.748L19.5444 239.717L18.0769 239.232Z" fill="#333333"/>
<path d="M15.3612 238.851L14.3546 241.882L15.8221 242.367L16.8287 239.336L15.3612 238.851Z" fill="#333333"/>
<path d="M28.635 234.159C28.635 234.112 26.7317 229.191 18.6214 226.509C15.5733 225.416 12.3028 225.086 9.09708 225.548C7.9275 225.709 6.79465 226.071 5.74878 226.617L4.97192 225.308C5.18168 225.176 10.2701 222.122 19.134 225.052C27.9979 227.981 30.0101 233.415 30.1189 233.639L28.635 234.159Z" fill="#333333"/>
<path d="M50.4336 238.065C49.548 233.949 42.0202 231.864 33.4903 233.415C24.9604 234.965 18.6447 239.545 19.2662 243.707L19.8797 247.086C20.7654 251.202 28.2931 253.287 36.8153 251.737C45.3374 250.187 51.6611 245.606 51.0473 241.444L50.4414 238.065H50.4336Z" fill="#F7F7F7"/>
<path d="M45.9743 249.357C43.1612 250.883 40.1132 251.931 36.9551 252.458C28.0057 254.07 20.2215 251.807 19.1494 247.303C19.1329 247.261 19.1199 247.217 19.1105 247.172L18.5047 243.8C18.4975 243.757 18.4975 243.712 18.5047 243.669C17.9299 239.072 24.4243 234.228 33.3737 232.616C42.3231 231.004 50.0994 233.26 51.1792 237.763C51.183 237.806 51.183 237.85 51.1792 237.894L51.7929 241.266C51.7963 241.31 51.7963 241.354 51.7929 241.398C52.1736 244.25 49.8741 247.156 45.9743 249.357ZM20.61 246.838V246.908C21.3868 250.543 28.7358 252.403 36.6598 250.969C44.5837 249.536 50.8064 245.226 50.2548 241.553V241.475L49.6721 238.29C49.6685 238.266 49.6685 238.243 49.6721 238.22C48.8953 234.593 41.5385 232.725 33.6223 234.159C25.7062 235.592 19.4758 239.902 20.0196 243.583C20.0233 243.606 20.0233 243.63 20.0196 243.653L20.61 246.838Z" fill="#333333"/>
<path d="M36.2973 248.37C44.9054 246.814 51.2661 242.152 50.5042 237.957C49.7423 233.762 42.1464 231.622 33.5383 233.178C24.9302 234.734 18.5696 239.397 19.3315 243.592C20.0934 247.787 27.6892 249.926 36.2973 248.37Z" fill="#F7F7F7"/>
<path d="M45.4151 246.218C42.591 247.744 39.5327 248.792 36.3648 249.318C32.4686 250.102 28.447 250.017 24.5875 249.07C21.0839 248.078 18.9243 246.257 18.4971 243.916C18.0698 241.576 19.4604 239.119 22.3813 236.941C25.6641 234.704 29.4019 233.22 33.3271 232.593C42.4941 230.934 50.3403 233.306 51.1948 238.018C51.7464 240.94 49.447 243.955 45.4151 246.218ZM25.0537 237.111C24.4501 237.453 23.8665 237.828 23.3058 238.235C20.9053 239.995 19.7089 241.979 20.0197 243.661C20.3304 245.342 22.1482 246.761 25.007 247.606C28.6417 248.488 32.4263 248.562 36.0928 247.823C44.1255 246.366 50.3481 242.01 49.68 238.305C49.0119 234.6 41.6474 232.694 33.6069 234.143C30.6202 234.661 27.7387 235.664 25.077 237.111H25.0537Z" fill="#333333"/>
<path d="M15.3735 239.067L13.8585 239.344L14.4346 242.474L15.9497 242.196L15.3735 239.067Z" fill="#333333"/>
<path d="M21.8428 246.285L20.3217 246.56L20.8466 249.451L22.3677 249.176L21.8428 246.285Z" fill="#333333"/>
<path d="M25.491 247.862L23.9698 248.137L24.5405 251.279L26.0617 251.004L25.491 247.862Z" fill="#333333"/>
<path d="M27.8821 248.671L26.361 248.946L26.9316 252.088L28.4528 251.813L27.8821 248.671Z" fill="#333333"/>
<path d="M30.6348 248.67L29.1136 248.945L29.6843 252.087L31.2054 251.812L30.6348 248.67Z" fill="#333333"/>
<path d="M33.1855 248.957L31.6643 249.232L32.2349 252.374L33.7561 252.099L33.1855 248.957Z" fill="#333333"/>
<path d="M36.0838 248.442L34.5626 248.717L35.1333 251.859L36.6544 251.584L36.0838 248.442Z" fill="#333333"/>
<path d="M49.4109 242.79L47.8898 243.065L48.4604 246.207L49.9816 245.932L49.4109 242.79Z" fill="#333333"/>
<path d="M50.5201 241.356L48.9989 241.631L49.5238 244.521L51.045 244.246L50.5201 241.356Z" fill="#333333"/>
<path d="M47.6471 244.105L46.126 244.38L46.6966 247.522L48.2178 247.247L47.6471 244.105Z" fill="#333333"/>
<path d="M45.6952 245.705L44.1741 245.98L44.7447 249.122L46.2659 248.847L45.6952 245.705Z" fill="#333333"/>
<path d="M43.559 246.339L42.0378 246.614L42.6085 249.756L44.1296 249.481L43.559 246.339Z" fill="#333333"/>
<path d="M41.2273 247.25L39.7062 247.525L40.2768 250.667L41.798 250.392L41.2273 247.25Z" fill="#333333"/>
<path d="M38.6605 248.219L37.1393 248.494L37.7099 251.636L39.2311 251.361L38.6605 248.219Z" fill="#333333"/>
<path d="M46.6037 238.204C46.6037 238.204 42.5563 234.755 34.174 236.274C30.975 236.773 27.9458 238.042 25.3489 239.971C24.3991 240.672 23.579 241.532 22.9252 242.514L21.589 241.739C21.7133 241.522 24.6963 236.406 33.9021 234.763C43.1078 233.12 47.4815 236.894 47.6679 237.088L46.6037 238.204Z" fill="#333333"/>
</g>
<defs>
<clipPath id="clip0_363_1655">
<rect width="420" height="253" fill="white"/>
</clipPath>
</defs>
</svg>
